<svg width="83" height="94" viewBox="0 0 83 94" fill="none" xmlns="http://www.w3.org/2000/svg">
<path fill-rule="evenodd" clip-rule="evenodd" d="M78.4987 40.1775C76.6707 44.6838 71.4445 53.5297 67.6227 58.5946C65.8269 60.9931 62.6487 64.4969 60.7784 66.1579C56.4551 69.9934 48.4556 74.8383 41.5653 77.81C34.5462 80.8293 26.319 83.3317 17.3578 85.1938L14.2024 85.8502L15.2662 86.0808C15.8528 86.2053 17.5578 86.5694 19.0462 86.8906L21.7624 87.4697L22.4224 88.2384C23.6746 89.691 25.1045 93.0277 24.6531 93.437C24.4654 93.6101 23.3449 93.5701 22.5903 93.3599C22.2413 93.2561 21.5128 93.1752 20.9833 93.1965C20.2952 93.2207 19.9127 93.157 19.676 92.965C19.4624 92.8156 18.1192 92.416 16.2291 91.9753C10.7859 90.6851 8.76427 90.2768 6.77746 90.0649L4.85383 89.8574L4.09516 89.131C2.67806 87.7509 0.499579 83.0756 0.806512 82.0439C0.959 81.5313 2.54006 80.6497 8.94433 77.5048C11.8009 76.0942 16.837 73.5008 20.1193 71.6947L26.0944 68.4507L26.7316 69.0552C27.935 70.2143 29.9045 74.291 29.6582 75.119C29.6112 75.2767 25.4754 78.4097 23.9533 79.4305L23.0622 80.0166L23.9919 79.8067C25.6934 79.4116 32.542 77.2788 34.7252 76.469C39.8666 74.5579 45.7131 71.6977 49.7269 69.1435C55.6708 65.3538 60.7143 60.7597 64.1737 55.9734C68.2715 50.3183 71.6805 44.4726 74.4338 38.4461C75.6996 35.6609 78.2762 26.9996 78.682 24.1661C79.3674 19.2841 79.4825 11.8863 78.947 6.36211C78.7867 4.8051 78.6723 4.37047 77.9637 2.99373C77.1083 1.31577 76.9164 0.250091 77.5035 0.324594C78.413 0.423486 80.5593 3.73728 81.3231 6.2535C81.9498 8.24253 82.1916 10.2244 82.3435 14.3397C82.5469 19.6792 82.3012 24.1913 81.57 28.938C81.2179 31.2296 79.3413 38.0677 78.4723 40.1697L78.4987 40.1775Z" fill="#323232"/>
</svg>
