<svg width="492" height="249" viewBox="0 0 492 249" fill="none" xmlns="http://www.w3.org/2000/svg">
<path d="M38.9669 175.77C34.43 176.151 30.7537 175.597 27.9381 174.107C25.1729 172.613 23.134 170.398 21.8215 167.463C20.5048 164.476 19.6771 160.967 19.3386 156.934L17.4914 134.93C17.136 130.696 17.3606 127.022 18.1653 123.908C18.9658 120.744 20.6069 118.221 23.0885 116.337C25.6206 114.449 29.1551 113.315 33.692 112.934C38.0777 112.566 41.567 113.009 44.1598 114.264C46.803 115.514 48.7409 117.433 49.9733 120.02C51.2562 122.603 52.0458 125.658 52.342 129.187L52.7737 134.329L40.6752 135.345L40.1928 129.598C40.0743 128.186 39.8887 126.882 39.6359 125.685C39.3789 124.437 38.8657 123.465 38.0965 122.768C37.3735 122.017 36.1802 121.711 34.5167 121.85C32.8531 121.99 31.6771 122.495 30.9887 123.365C30.3003 124.235 29.9102 125.334 29.8186 126.661C29.7228 127.938 29.7404 129.358 29.8716 130.921L32.2075 158.747C32.3514 160.461 32.6044 161.963 32.9665 163.253C33.3747 164.488 33.9865 165.426 34.8019 166.068C35.6635 166.656 36.8253 166.888 38.2871 166.766C39.9003 166.63 41.0028 166.157 41.5946 165.346C42.2327 164.48 42.5723 163.385 42.6135 162.062C42.7051 160.734 42.6895 159.34 42.5668 157.878L42.0654 151.904L54.1638 150.889L54.5891 155.955C54.8895 159.534 54.652 162.752 53.8766 165.609C53.0969 168.416 51.5397 170.73 49.205 172.55C46.8661 174.32 43.4534 175.394 38.9669 175.77ZM77.813 172.509C73.3265 172.886 69.7049 172.378 66.9482 170.985C64.1914 169.592 62.1085 167.457 60.6994 164.58C59.3365 161.648 58.4794 158.09 58.1281 153.906L56.2112 131.071C55.8599 126.887 56.114 123.261 56.9733 120.194C57.8831 117.122 59.583 114.695 62.0732 112.912C64.5633 111.129 68.0517 110.05 72.5382 109.673C77.0751 109.292 80.7219 109.798 83.4786 111.191C86.2816 112.53 88.3624 114.64 89.7211 117.521C91.1259 120.347 92.004 123.852 92.3552 128.036L94.2722 150.872C94.6234 155.056 94.3463 158.709 93.4408 161.831C92.5814 164.898 90.8836 167.351 88.3472 169.188C85.8613 171.021 82.3499 172.128 77.813 172.509ZM77.0576 163.511C78.6708 163.376 79.8258 162.923 80.5227 162.154C81.2154 161.334 81.637 160.309 81.7874 159.078C81.9337 157.797 81.9476 156.45 81.8291 155.039L79.398 126.078C79.2795 124.667 79.0434 123.367 78.6898 122.178C78.3362 120.989 77.7517 120.074 76.9363 119.432C76.1167 118.739 74.9003 118.46 73.2872 118.596C71.7749 118.723 70.6724 119.196 69.9797 120.016C69.2828 120.785 68.8591 121.785 68.7086 123.016C68.5581 124.247 68.5421 125.568 68.6606 126.98L71.0917 155.94C71.2102 157.352 71.4232 158.679 71.7306 159.922C72.0842 161.111 72.6709 162.052 73.4905 162.744C74.3059 163.387 75.4949 163.642 77.0576 163.511ZM100.97 169.728L96.8871 108.391L110.12 107.28L120.925 145.284L125.772 105.966L138.551 104.893L144.751 166.052L135.677 166.814L131.21 125.384L126.906 167.55L119.118 168.204L107.441 127.075L110.119 168.96L100.97 169.728ZM150.522 165.568L146.439 104.231L159.671 103.12L170.476 141.125L175.324 101.806L188.103 100.733L194.303 161.893L185.229 162.654L180.761 121.224L176.458 163.391L168.669 164.045L156.993 122.915L159.671 164.8L150.522 165.568ZM217.61 160.774C212.972 161.163 209.302 160.684 206.6 159.337C203.894 157.94 201.887 155.799 200.578 152.914C199.316 149.974 198.505 146.361 198.146 142.076L194.629 100.185L206.954 99.1508L210.617 142.781C210.744 144.293 210.97 145.772 211.294 147.217C211.669 148.657 212.272 149.8 213.105 150.644C213.987 151.483 215.235 151.835 216.848 151.7C218.512 151.56 219.684 151.005 220.364 150.034C221.094 149.059 221.499 147.832 221.578 146.353C221.657 144.875 221.633 143.379 221.506 141.867L217.843 98.2367L230.168 97.2021L233.685 139.093C234.045 143.378 233.822 147.077 233.017 150.19C232.259 153.249 230.662 155.693 228.226 157.522C225.787 159.301 222.248 160.385 217.61 160.774ZM240.99 157.974L235.849 96.7252L244.545 95.9952L260.834 126.762L258.155 94.8527L268.439 93.9894L273.581 155.238L265.263 155.936L248.808 123.203L251.652 157.078L240.99 157.974ZM279.986 154.7L274.844 93.4517L287.245 92.4107L292.387 153.659L279.986 154.7ZM304.488 152.643L300.128 100.695L290.676 101.489L289.895 92.1883L321.2 89.5603L321.98 98.861L312.68 99.6418L317.04 151.589L304.488 152.643ZM336.888 149.923L334.85 125.651L319.799 89.6779L331.519 88.694L339.907 109.692L344.223 87.6276L355.565 86.6755L346.873 124.642L348.91 148.914L336.888 149.923ZM378.796 146.405L373.655 85.1569L388.626 83.9001C393.819 83.4642 397.909 83.8062 400.896 84.9261C403.93 85.9913 406.172 87.9098 407.624 90.6817C409.07 93.4031 409.98 96.9818 410.352 101.418L412.225 123.724C412.606 128.261 412.314 132.042 411.35 135.068C410.385 138.093 408.526 140.432 405.771 142.085C403.062 143.683 399.162 144.696 394.07 145.123L378.796 146.405ZM390.543 136.662L393.189 136.44C395.508 136.245 397.117 135.755 398.015 134.969C398.96 134.128 399.499 132.991 399.633 131.559C399.762 130.076 399.738 128.275 399.56 126.158L397.44 100.903C397.262 98.7855 396.944 97.1116 396.485 95.8809C396.073 94.5957 395.337 93.6929 394.278 93.1726C393.27 92.6481 391.656 92.4789 389.438 92.6651L386.867 92.8809L390.543 136.662ZM415.28 143.343L422.011 81.0976L435.848 79.936L452.786 140.194L441.216 141.165L437.894 127.89L428.215 128.702L427.001 142.359L415.28 143.343ZM428.708 120.97L436.043 120.354L430.262 95.9392L428.708 120.97ZM460.734 139.527L458.696 115.254L443.645 79.2815L455.366 78.2976L463.753 99.2957L468.069 77.2312L479.411 76.2791L470.719 114.245L472.757 138.518L460.734 139.527Z" fill="#0A0A0A"/>
<mask id="path-2-outside-1_1160_216" maskUnits="userSpaceOnUse" x="7.94699" y="71.2214" width="473.957" height="106.082" fill="black">
<rect fill="white" x="7.94699" y="71.2214" width="473.957" height="106.082"/>
<path d="M33.2276 173.478C28.6907 173.859 25.0145 173.305 22.1988 171.815C19.4336 170.321 17.3948 168.106 16.0823 165.171C14.7655 162.185 13.9379 158.675 13.5993 154.642L11.7522 132.638C11.3967 128.404 11.6213 124.73 12.426 121.616C13.2265 118.452 14.8676 115.929 17.3493 114.045C19.8814 112.157 23.4159 111.023 27.9528 110.642C32.3385 110.274 35.8277 110.717 38.4205 111.972C41.0637 113.222 43.0016 115.141 44.2341 117.728C45.517 120.311 46.3065 123.366 46.6028 126.895L47.0344 132.037L34.936 133.053L34.4536 127.306C34.3351 125.894 34.1494 124.59 33.8966 123.393C33.6396 122.145 33.1265 121.173 32.3573 120.476C31.6342 119.725 30.4409 119.419 28.7774 119.558C27.1139 119.698 25.9379 120.203 25.2494 121.073C24.561 121.943 24.171 123.042 24.0794 124.369C23.9835 125.647 24.0012 127.066 24.1324 128.629L26.4683 156.456C26.6122 158.17 26.8651 159.671 27.2272 160.961C27.6355 162.196 28.2473 163.134 29.0627 163.776C29.9243 164.364 31.086 164.597 32.5479 164.474C34.161 164.338 35.2635 163.865 35.8554 163.054C36.4934 162.188 36.833 161.094 36.8742 159.77C36.9658 158.443 36.9503 157.048 36.8276 155.586L36.3261 149.612L48.4245 148.597L48.8498 153.663C49.1503 157.242 48.9128 160.46 48.1373 163.317C47.3576 166.124 45.8004 168.438 43.4658 170.258C41.1268 172.028 37.7141 173.102 33.2276 173.478ZM72.0738 170.217C67.5873 170.594 63.9656 170.086 61.2089 168.693C58.4522 167.3 56.3692 165.165 54.9601 162.288C53.5972 159.356 52.7401 155.798 52.3889 151.614L50.4719 128.779C50.1207 124.595 50.3747 120.969 51.2341 117.902C52.1438 114.83 53.8438 112.403 56.3339 110.62C58.8241 108.837 62.3124 107.758 66.7989 107.381C71.3358 107 74.9826 107.506 77.7394 108.899C80.5423 110.238 82.6231 112.348 83.9818 115.229C85.3867 118.055 86.2647 121.56 86.616 125.745L88.5329 148.58C88.8842 152.764 88.607 156.417 87.7015 159.539C86.8421 162.607 85.1443 165.059 82.608 166.896C80.1221 168.729 76.6107 169.837 72.0738 170.217ZM71.3184 161.219C72.9315 161.084 74.0865 160.631 74.7834 159.862C75.4761 159.043 75.8977 158.017 76.0482 156.786C76.1944 155.505 76.2083 154.158 76.0898 152.747L73.6587 123.786C73.5402 122.375 73.3042 121.075 72.9506 119.886C72.5969 118.697 72.0124 117.782 71.197 117.14C70.3774 116.447 69.161 116.168 67.5479 116.304C66.0356 116.431 64.9331 116.904 64.2404 117.724C63.5435 118.493 63.1198 119.493 62.9693 120.724C62.8189 121.955 62.8029 123.276 62.9213 124.688L65.3525 153.648C65.471 155.06 65.6839 156.387 65.9914 157.63C66.345 158.819 66.9316 159.76 67.7512 160.453C68.5666 161.095 69.7557 161.35 71.3184 161.219ZM95.2308 167.436L91.1478 106.099L104.38 104.988L115.186 142.992L120.033 103.674L132.812 102.601L139.012 163.761L129.938 164.522L125.47 123.092L121.167 165.259L113.378 165.912L101.702 124.783L104.38 166.668L95.2308 167.436ZM144.782 163.276L140.699 101.939L153.932 100.828L164.737 138.833L169.584 99.5142L182.363 98.4414L188.564 159.601L179.49 160.363L175.022 118.932L170.718 161.099L162.93 161.753L151.253 120.623L153.932 162.508L144.782 163.276ZM211.871 158.482C207.233 158.871 203.563 158.392 200.861 157.046C198.155 155.648 196.147 153.507 194.839 150.622C193.577 147.682 192.766 144.069 192.406 139.784L188.89 97.8935L201.215 96.8589L204.878 140.489C205.005 142.001 205.23 143.48 205.555 144.925C205.929 146.365 206.533 147.508 207.365 148.352C208.248 149.191 209.496 149.544 211.109 149.408C212.773 149.268 213.944 148.713 214.624 147.742C215.355 146.767 215.759 145.54 215.838 144.061C215.917 142.583 215.893 141.087 215.766 139.575L212.104 95.9448L224.429 94.9102L227.946 136.801C228.305 141.086 228.083 144.785 227.278 147.898C226.52 150.957 224.923 153.401 222.487 155.23C220.047 157.009 216.509 158.093 211.871 158.482ZM235.251 155.682L230.11 94.4333L238.805 93.7033L255.095 124.47L252.416 92.5608L262.7 91.6975L267.841 152.946L259.524 153.644L243.069 120.911L245.913 154.787L235.251 155.682ZM274.247 152.408L269.105 91.1598L281.506 90.1188L286.648 151.367L274.247 152.408ZM298.749 150.351L294.388 98.4036L284.936 99.197L284.156 89.8964L315.46 87.2684L316.241 96.5691L306.94 97.3499L311.301 149.297L298.749 150.351ZM331.148 147.631L329.111 123.359L314.06 87.386L325.78 86.4021L334.168 107.4L338.483 85.3357L349.826 84.3836L341.134 122.35L343.171 146.622L331.148 147.631ZM373.057 144.113L367.915 82.865L382.887 81.6082C388.079 81.1723 392.169 81.5143 395.157 82.6342C398.191 83.6994 400.433 85.6179 401.884 88.3898C403.331 91.1112 404.241 94.6899 404.613 99.126L406.486 121.432C406.866 125.969 406.575 129.751 405.61 132.776C404.646 135.801 402.786 138.14 400.031 139.793C397.323 141.391 393.423 142.404 388.331 142.831L373.057 144.113ZM384.803 134.37L387.45 134.148C389.769 133.953 391.378 133.463 392.276 132.677C393.221 131.836 393.76 130.699 393.894 129.267C394.023 127.784 393.999 125.984 393.821 123.866L391.701 98.6108C391.523 96.4936 391.205 94.8197 390.746 93.589C390.334 92.3038 389.598 91.401 388.539 90.8807C387.53 90.3562 385.917 90.187 383.699 90.3732L381.128 90.589L384.803 134.37ZM409.541 141.051L416.271 78.8057L430.109 77.6441L447.046 137.902L435.477 138.873L432.155 125.598L422.476 126.41L421.262 140.067L409.541 141.051ZM422.969 118.678L430.304 118.062L424.523 93.6473L422.969 118.678ZM454.995 137.235L452.957 112.962L437.906 76.9896L449.626 76.0057L458.014 97.0038L462.33 74.9393L473.672 73.9872L464.98 111.953L467.018 136.226L454.995 137.235Z"/>
</mask>
<path d="M33.2276 173.478C28.6907 173.859 25.0145 173.305 22.1988 171.815C19.4336 170.321 17.3948 168.106 16.0823 165.171C14.7655 162.185 13.9379 158.675 13.5993 154.642L11.7522 132.638C11.3967 128.404 11.6213 124.73 12.426 121.616C13.2265 118.452 14.8676 115.929 17.3493 114.045C19.8814 112.157 23.4159 111.023 27.9528 110.642C32.3385 110.274 35.8277 110.717 38.4205 111.972C41.0637 113.222 43.0016 115.141 44.2341 117.728C45.517 120.311 46.3065 123.366 46.6028 126.895L47.0344 132.037L34.936 133.053L34.4536 127.306C34.3351 125.894 34.1494 124.59 33.8966 123.393C33.6396 122.145 33.1265 121.173 32.3573 120.476C31.6342 119.725 30.4409 119.419 28.7774 119.558C27.1139 119.698 25.9379 120.203 25.2494 121.073C24.561 121.943 24.171 123.042 24.0794 124.369C23.9835 125.647 24.0012 127.066 24.1324 128.629L26.4683 156.456C26.6122 158.17 26.8651 159.671 27.2272 160.961C27.6355 162.196 28.2473 163.134 29.0627 163.776C29.9243 164.364 31.086 164.597 32.5479 164.474C34.161 164.338 35.2635 163.865 35.8554 163.054C36.4934 162.188 36.833 161.094 36.8742 159.77C36.9658 158.443 36.9503 157.048 36.8276 155.586L36.3261 149.612L48.4245 148.597L48.8498 153.663C49.1503 157.242 48.9128 160.46 48.1373 163.317C47.3576 166.124 45.8004 168.438 43.4658 170.258C41.1268 172.028 37.7141 173.102 33.2276 173.478ZM72.0738 170.217C67.5873 170.594 63.9656 170.086 61.2089 168.693C58.4522 167.3 56.3692 165.165 54.9601 162.288C53.5972 159.356 52.7401 155.798 52.3889 151.614L50.4719 128.779C50.1207 124.595 50.3747 120.969 51.2341 117.902C52.1438 114.83 53.8438 112.403 56.3339 110.62C58.8241 108.837 62.3124 107.758 66.7989 107.381C71.3358 107 74.9826 107.506 77.7394 108.899C80.5423 110.238 82.6231 112.348 83.9818 115.229C85.3867 118.055 86.2647 121.56 86.616 125.745L88.5329 148.58C88.8842 152.764 88.607 156.417 87.7015 159.539C86.8421 162.607 85.1443 165.059 82.608 166.896C80.1221 168.729 76.6107 169.837 72.0738 170.217ZM71.3184 161.219C72.9315 161.084 74.0865 160.631 74.7834 159.862C75.4761 159.043 75.8977 158.017 76.0482 156.786C76.1944 155.505 76.2083 154.158 76.0898 152.747L73.6587 123.786C73.5402 122.375 73.3042 121.075 72.9506 119.886C72.5969 118.697 72.0124 117.782 71.197 117.14C70.3774 116.447 69.161 116.168 67.5479 116.304C66.0356 116.431 64.9331 116.904 64.2404 117.724C63.5435 118.493 63.1198 119.493 62.9693 120.724C62.8189 121.955 62.8029 123.276 62.9213 124.688L65.3525 153.648C65.471 155.06 65.6839 156.387 65.9914 157.63C66.345 158.819 66.9316 159.76 67.7512 160.453C68.5666 161.095 69.7557 161.35 71.3184 161.219ZM95.2308 167.436L91.1478 106.099L104.38 104.988L115.186 142.992L120.033 103.674L132.812 102.601L139.012 163.761L129.938 164.522L125.47 123.092L121.167 165.259L113.378 165.912L101.702 124.783L104.38 166.668L95.2308 167.436ZM144.782 163.276L140.699 101.939L153.932 100.828L164.737 138.833L169.584 99.5142L182.363 98.4414L188.564 159.601L179.49 160.363L175.022 118.932L170.718 161.099L162.93 161.753L151.253 120.623L153.932 162.508L144.782 163.276ZM211.871 158.482C207.233 158.871 203.563 158.392 200.861 157.046C198.155 155.648 196.147 153.507 194.839 150.622C193.577 147.682 192.766 144.069 192.406 139.784L188.89 97.8935L201.215 96.8589L204.878 140.489C205.005 142.001 205.23 143.48 205.555 144.925C205.929 146.365 206.533 147.508 207.365 148.352C208.248 149.191 209.496 149.544 211.109 149.408C212.773 149.268 213.944 148.713 214.624 147.742C215.355 146.767 215.759 145.54 215.838 144.061C215.917 142.583 215.893 141.087 215.766 139.575L212.104 95.9448L224.429 94.9102L227.946 136.801C228.305 141.086 228.083 144.785 227.278 147.898C226.52 150.957 224.923 153.401 222.487 155.23C220.047 157.009 216.509 158.093 211.871 158.482ZM235.251 155.682L230.11 94.4333L238.805 93.7033L255.095 124.47L252.416 92.5608L262.7 91.6975L267.841 152.946L259.524 153.644L243.069 120.911L245.913 154.787L235.251 155.682ZM274.247 152.408L269.105 91.1598L281.506 90.1188L286.648 151.367L274.247 152.408ZM298.749 150.351L294.388 98.4036L284.936 99.197L284.156 89.8964L315.46 87.2684L316.241 96.5691L306.94 97.3499L311.301 149.297L298.749 150.351ZM331.148 147.631L329.111 123.359L314.06 87.386L325.78 86.4021L334.168 107.4L338.483 85.3357L349.826 84.3836L341.134 122.35L343.171 146.622L331.148 147.631ZM373.057 144.113L367.915 82.865L382.887 81.6082C388.079 81.1723 392.169 81.5143 395.157 82.6342C398.191 83.6994 400.433 85.6179 401.884 88.3898C403.331 91.1112 404.241 94.6899 404.613 99.126L406.486 121.432C406.866 125.969 406.575 129.751 405.61 132.776C404.646 135.801 402.786 138.14 400.031 139.793C397.323 141.391 393.423 142.404 388.331 142.831L373.057 144.113ZM384.803 134.37L387.45 134.148C389.769 133.953 391.378 133.463 392.276 132.677C393.221 131.836 393.76 130.699 393.894 129.267C394.023 127.784 393.999 125.984 393.821 123.866L391.701 98.6108C391.523 96.4936 391.205 94.8197 390.746 93.589C390.334 92.3038 389.598 91.401 388.539 90.8807C387.53 90.3562 385.917 90.187 383.699 90.3732L381.128 90.589L384.803 134.37ZM409.541 141.051L416.271 78.8057L430.109 77.6441L447.046 137.902L435.477 138.873L432.155 125.598L422.476 126.41L421.262 140.067L409.541 141.051ZM422.969 118.678L430.304 118.062L424.523 93.6473L422.969 118.678ZM454.995 137.235L452.957 112.962L437.906 76.9896L449.626 76.0057L458.014 97.0038L462.33 74.9393L473.672 73.9872L464.98 111.953L467.018 136.226L454.995 137.235Z" fill="white"/>
<path d="M22.1988 171.815L21.542 173.031L21.5526 173.037L22.1988 171.815ZM16.0823 165.171L14.8179 165.728L14.8208 165.735L16.0823 165.171ZM12.426 121.616L13.7639 121.962L13.7657 121.955L12.426 121.616ZM17.3493 114.045L16.5233 112.937L16.5138 112.944L17.3493 114.045ZM38.4205 111.972L37.8186 113.216L37.8296 113.221L38.4205 111.972ZM44.2341 117.728L42.9866 118.322L42.9915 118.332L42.9965 118.343L44.2341 117.728ZM47.0344 132.037L47.15 133.414L48.527 133.298L48.4114 131.921L47.0344 132.037ZM34.936 133.053L33.559 133.168L33.6746 134.545L35.0516 134.43L34.936 133.053ZM33.8966 123.393L32.5432 123.672L32.5446 123.678L33.8966 123.393ZM32.3573 120.476L31.3615 121.434L31.3943 121.468L31.4295 121.5L32.3573 120.476ZM25.2494 121.073L24.1658 120.215L25.2494 121.073ZM24.0794 124.369L25.4573 124.473L25.4579 124.464L24.0794 124.369ZM27.2272 160.961L25.8968 161.334L25.9053 161.365L25.9152 161.395L27.2272 160.961ZM29.0627 163.776L28.2076 164.862L28.2449 164.891L28.2841 164.918L29.0627 163.776ZM35.8554 163.054L34.7429 162.234L34.7391 162.239L35.8554 163.054ZM36.8742 159.77L35.4957 159.675L35.4939 159.701L35.493 159.727L36.8742 159.77ZM36.3261 149.612L36.2105 148.235L34.8335 148.351L34.9491 149.728L36.3261 149.612ZM48.4245 148.597L49.8015 148.481L49.6859 147.104L48.3089 147.22L48.4245 148.597ZM48.1373 163.317L49.4688 163.687L49.4709 163.679L48.1373 163.317ZM43.4658 170.258L44.2996 171.36L44.3076 171.354L44.3155 171.348L43.4658 170.258ZM33.112 172.101C28.731 172.469 25.3468 171.917 22.8451 170.594L21.5526 173.037C24.6821 174.692 28.6505 175.249 33.3432 174.855L33.112 172.101ZM22.8557 170.599C20.3649 169.254 18.5351 167.271 17.3438 164.607L14.8208 165.735C16.2544 168.941 18.5023 171.389 21.542 173.031L22.8557 170.599ZM17.3466 164.613C16.1044 161.796 15.305 158.442 14.9763 154.527L12.2223 154.758C12.5707 158.908 13.4266 162.573 14.8179 165.728L17.3466 164.613ZM14.9763 154.527L13.1292 132.523L10.3752 132.754L12.2223 154.758L14.9763 154.527ZM13.1292 132.523C12.7828 128.396 13.0083 124.885 13.7639 121.962L11.0882 121.271C10.2343 124.574 10.0106 128.411 10.3752 132.754L13.1292 132.523ZM13.7657 121.955C14.4932 119.08 15.9651 116.831 18.1847 115.146L16.5138 112.944C13.7701 115.027 11.9598 117.825 11.0864 121.277L13.7657 121.955ZM18.1752 115.153C20.4282 113.473 23.6812 112.387 28.0684 112.019L27.8372 109.265C23.1505 109.659 19.3346 110.841 16.5233 112.937L18.1752 115.153ZM28.0684 112.019C32.3273 111.662 35.5367 112.111 37.8187 113.216L39.0224 110.728C36.1188 109.323 32.3496 108.886 27.8372 109.265L28.0684 112.019ZM37.8296 113.221C40.1915 114.338 41.894 116.029 42.9866 118.322L45.4816 117.134C44.1092 114.253 41.936 112.106 39.0114 110.723L37.8296 113.221ZM42.9965 118.343C44.1864 120.738 44.9409 123.617 45.2258 127.011L47.9798 126.78C47.6722 123.116 46.8476 119.883 45.4717 117.113L42.9965 118.343ZM45.2258 127.011L45.6574 132.153L48.4114 131.921L47.9798 126.78L45.2258 127.011ZM46.9188 130.66L34.8204 131.676L35.0516 134.43L47.15 133.414L46.9188 130.66ZM36.313 132.937L35.8306 127.19L33.0766 127.421L33.559 133.168L36.313 132.937ZM35.8306 127.19C35.708 125.73 35.515 124.369 35.2487 123.107L32.5446 123.678C32.7839 124.812 32.9621 126.058 33.0766 127.421L35.8306 127.19ZM35.25 123.114C34.9475 121.646 34.317 120.387 33.2851 119.452L31.4295 121.5C31.9359 121.959 32.3317 122.645 32.5432 123.672L35.25 123.114ZM33.3531 119.518C32.2047 118.325 30.4922 118.028 28.6618 118.181L28.893 120.935C30.3897 120.81 31.0637 121.125 31.3615 121.434L33.3531 119.518ZM28.6618 118.181C26.8092 118.337 25.1887 118.923 24.1658 120.215L26.3331 121.93C26.6871 121.483 27.4186 121.059 28.893 120.935L28.6618 118.181ZM24.1658 120.215C23.2724 121.345 22.8077 122.725 22.7008 124.274L25.4579 124.464C25.5342 123.358 25.8496 122.541 26.3331 121.93L24.1658 120.215ZM22.7014 124.266C22.599 125.63 22.6194 127.125 22.7554 128.745L25.5094 128.514C25.383 127.008 25.368 125.663 25.4573 124.473L22.7014 124.266ZM22.7554 128.745L25.0913 156.571L27.8453 156.34L25.5094 128.514L22.7554 128.745ZM25.0913 156.571C25.2405 158.349 25.5055 159.941 25.8968 161.334L28.5576 160.587C28.2248 159.402 27.9838 157.99 27.8453 156.34L25.0913 156.571ZM25.9152 161.395C26.387 162.822 27.1311 164.014 28.2076 164.862L29.9177 162.691C29.3634 162.254 28.8839 161.57 28.5392 160.527L25.9152 161.395ZM28.2841 164.918C29.4964 165.745 31.0119 165.989 32.6635 165.851L32.4323 163.097C31.1601 163.204 30.3521 162.983 29.8413 162.635L28.2841 164.918ZM32.6635 165.851C34.4361 165.702 36.0314 165.157 36.9716 163.868L34.7391 162.239C34.4956 162.573 33.8859 162.975 32.4323 163.097L32.6635 165.851ZM36.9678 163.874C37.8071 162.735 38.2075 161.351 38.2554 159.813L35.493 159.727C35.4585 160.836 35.1797 161.642 34.7429 162.234L36.9678 163.874ZM38.2528 159.865C38.3497 158.461 38.3326 156.995 38.2046 155.47L35.4506 155.702C35.568 157.1 35.582 158.424 35.4957 159.675L38.2528 159.865ZM38.2046 155.47L37.7031 149.497L34.9491 149.728L35.4506 155.702L38.2046 155.47ZM36.4417 150.989L48.5401 149.974L48.3089 147.22L36.2105 148.235L36.4417 150.989ZM47.0475 148.712L47.4728 153.779L50.2268 153.547L49.8015 148.481L47.0475 148.712ZM47.4728 153.779C47.7626 157.23 47.5291 160.283 46.8037 162.955L49.4709 163.679C50.2965 160.638 50.538 157.254 50.2268 153.547L47.4728 153.779ZM46.8059 162.948C46.1069 165.464 44.7213 167.527 42.616 169.169L44.3155 171.348C46.8796 169.349 48.6084 166.784 49.4687 163.687L46.8059 162.948ZM42.6319 169.156C40.585 170.705 37.4669 171.736 33.112 172.101L33.3432 174.855C37.9614 174.468 41.6687 173.351 44.2996 171.36L42.6319 169.156ZM61.2089 168.693L61.8321 167.459L61.2089 168.693ZM54.9601 162.288L53.7071 162.87L53.713 162.883L53.7191 162.896L54.9601 162.288ZM51.2341 117.902L49.9091 117.509L49.9062 117.519L49.9035 117.529L51.2341 117.902ZM56.3339 110.62L57.1383 111.744L56.3339 110.62ZM77.7394 108.899L77.1161 110.133L77.13 110.14L77.1439 110.146L77.7394 108.899ZM83.9818 115.229L82.732 115.818L82.738 115.831L82.7444 115.844L83.9818 115.229ZM87.7015 159.539L86.3743 159.154L86.3709 159.166L87.7015 159.539ZM82.608 166.896L81.7973 165.777L81.7879 165.784L82.608 166.896ZM74.7834 159.862L75.8075 160.79L75.8235 160.772L75.8389 160.754L74.7834 159.862ZM76.0482 156.786L77.4199 156.954L77.4211 156.943L76.0482 156.786ZM72.9506 119.886L71.6261 120.28L72.9506 119.886ZM71.197 117.14L70.3051 118.195L70.3233 118.21L70.342 118.225L71.197 117.14ZM64.2404 117.724L65.2645 118.651L65.2805 118.634L65.2959 118.616L64.2404 117.724ZM62.9694 120.724L64.341 120.892L62.9694 120.724ZM65.9914 157.63L64.6499 157.962L64.6577 157.994L64.6669 158.025L65.9914 157.63ZM67.7512 160.453L66.8593 161.508L66.8775 161.523L66.8962 161.538L67.7512 160.453ZM71.9582 168.84C67.6167 169.205 64.2791 168.696 61.8321 167.459L60.5857 169.926C63.6522 171.476 67.5578 171.983 72.1894 171.594L71.9582 168.84ZM61.8321 167.459C59.3544 166.207 57.4831 164.297 56.2011 161.68L53.7191 162.896C55.2553 166.032 57.5499 168.392 60.5857 169.926L61.8321 167.459ZM56.2132 161.705C54.9357 158.957 54.1074 155.567 53.7659 151.499L51.0119 151.73C51.3728 156.03 52.2587 159.755 53.7071 162.87L56.2132 161.705ZM53.7659 151.499L51.8489 128.663L49.0949 128.894L51.0119 151.73L53.7659 151.499ZM51.8489 128.663C51.5073 124.594 51.7614 121.141 52.5647 118.274L49.9035 117.529C48.988 120.796 48.734 124.595 49.0949 128.894L51.8489 128.663ZM52.559 118.294C53.3858 115.503 54.9103 113.339 57.1383 111.744L55.5295 109.497C52.7773 111.467 50.9019 114.157 49.9091 117.509L52.559 118.294ZM57.1383 111.744C59.3523 110.159 62.5671 109.123 66.9145 108.758L66.6833 106.004C62.0577 106.392 58.2958 107.516 55.5295 109.497L57.1383 111.744ZM66.9145 108.758C71.3098 108.389 74.6713 108.897 77.1161 110.133L78.3626 107.666C75.2939 106.115 71.3618 105.611 66.6833 106.004L66.9145 108.758ZM77.1439 110.146C79.6516 111.344 81.5053 113.217 82.732 115.818L85.2316 114.639C83.7409 111.478 81.433 109.132 78.3348 107.653L77.1439 110.146ZM82.7444 115.844C84.0506 118.472 84.8978 121.796 85.239 125.86L87.993 125.629C87.6317 121.325 86.7227 117.639 85.2192 114.614L82.7444 115.844ZM85.239 125.86L87.1559 148.696L89.9099 148.465L87.993 125.629L85.239 125.86ZM87.1559 148.696C87.497 152.758 87.2213 156.234 86.3744 159.154L89.0286 159.924C89.9928 156.6 90.2714 152.77 89.9099 148.465L87.1559 148.696ZM86.3709 159.166C85.5941 161.939 84.0764 164.126 81.7973 165.777L83.4187 168.015C86.2122 165.992 88.0902 163.274 89.0321 159.912L86.3709 159.166ZM81.7879 165.784C79.5832 167.41 76.3535 168.471 71.9582 168.84L72.1894 171.594C76.8679 171.202 80.6609 170.049 83.4281 168.008L81.7879 165.784ZM71.434 162.596C73.208 162.447 74.7739 161.931 75.8075 160.79L73.7594 158.934C73.3992 159.332 72.6551 159.72 71.2028 159.842L71.434 162.596ZM75.8389 160.754C76.731 159.699 77.2419 158.409 77.4198 156.954L74.6766 156.619C74.5535 157.625 74.2213 158.387 73.728 158.97L75.8389 160.754ZM77.4211 156.943C77.5786 155.563 77.5922 154.125 77.4668 152.631L74.7128 152.863C74.8245 154.192 74.8102 155.447 74.6753 156.63L77.4211 156.943ZM77.4668 152.631L75.0357 123.671L72.2817 123.902L74.7128 152.863L77.4668 152.631ZM75.0357 123.671C74.9104 122.178 74.6591 120.783 74.275 119.492L71.6261 120.28C71.9492 121.366 72.17 122.572 72.2817 123.902L75.0357 123.671ZM74.275 119.492C73.8563 118.084 73.1324 116.905 72.0521 116.054L70.342 118.225C70.8924 118.659 71.3376 119.31 71.6261 120.28L74.275 119.492ZM72.089 116.084C70.8749 115.058 69.2275 114.776 67.4323 114.927L67.6635 117.681C69.0945 117.561 69.8799 117.836 70.3051 118.195L72.089 116.084ZM67.4323 114.927C65.7078 115.072 64.1977 115.633 63.185 116.832L65.2959 118.616C65.6685 118.175 66.3635 117.79 67.6635 117.681L67.4323 114.927ZM63.2164 116.796C62.293 117.815 61.7759 119.098 61.5977 120.556L64.341 120.892C64.4637 119.887 64.794 119.171 65.2645 118.651L63.2164 116.796ZM61.5977 120.556C61.4343 121.893 61.419 123.31 61.5444 124.803L64.2983 124.572C64.1867 123.242 64.2035 122.016 64.341 120.892L61.5977 120.556ZM61.5444 124.803L63.9755 153.764L66.7295 153.533L64.2983 124.572L61.5444 124.803ZM63.9755 153.764C64.0995 155.241 64.3232 156.641 64.6499 157.962L67.3328 157.299C67.0447 156.133 66.8425 154.879 66.7295 153.533L63.9755 153.764ZM64.6669 158.025C65.085 159.43 65.8037 160.616 66.8593 161.508L68.6432 159.397C68.0595 158.904 67.605 158.208 67.3158 157.236L64.6669 158.025ZM66.8962 161.538C68.0983 162.485 69.6963 162.742 71.434 162.596L71.2028 159.842C69.8151 159.959 69.035 159.705 68.6063 159.367L66.8962 161.538ZM95.2308 167.436L93.852 167.528L93.9454 168.93L95.3464 168.813L95.2308 167.436ZM91.1478 106.099L91.0322 104.722L89.6788 104.835L89.7691 106.19L91.1478 106.099ZM104.381 104.988L105.71 104.61L105.399 103.516L104.265 103.611L104.381 104.988ZM115.186 142.992L113.856 143.37L116.557 143.161L115.186 142.992ZM120.033 103.674L119.917 102.297L118.799 102.391L118.661 103.505L120.033 103.674ZM132.812 102.601L134.187 102.462L134.05 101.11L132.696 101.224L132.812 102.601ZM139.012 163.761L139.128 165.138L140.529 165.02L140.387 163.621L139.012 163.761ZM129.938 164.522L128.564 164.67L128.709 166.012L130.054 165.899L129.938 164.522ZM125.47 123.092L126.844 122.944L124.096 122.952L125.47 123.092ZM121.167 165.259L121.282 166.636L122.425 166.54L122.542 165.399L121.167 165.259ZM113.378 165.912L112.049 166.29L112.36 167.385L113.494 167.289L113.378 165.912ZM101.702 124.783L103.031 124.405L100.323 124.871L101.702 124.783ZM104.38 166.668L104.496 168.045L105.846 167.931L105.759 166.58L104.38 166.668ZM96.6096 167.344L92.5266 106.007L89.7691 106.19L93.852 167.528L96.6096 167.344ZM91.2634 107.476L104.496 106.365L104.265 103.611L91.0322 104.722L91.2634 107.476ZM103.051 105.366L113.856 143.37L116.515 142.614L105.71 104.61L103.051 105.366ZM116.557 143.161L121.404 103.843L118.661 103.505L113.814 142.823L116.557 143.161ZM120.148 105.051L132.927 103.978L132.696 101.224L119.917 102.297L120.148 105.051ZM131.437 102.74L137.637 163.9L140.387 163.621L134.187 102.462L131.437 102.74ZM138.896 162.384L129.823 163.145L130.054 165.899L139.128 165.138L138.896 162.384ZM131.312 164.374L126.844 122.944L124.096 123.24L128.564 164.67L131.312 164.374ZM124.096 122.952L119.792 165.118L122.542 165.399L126.845 123.232L124.096 122.952ZM121.051 163.882L113.263 164.535L113.494 167.289L121.282 166.636L121.051 163.882ZM114.708 165.535L103.031 124.405L100.372 125.16L112.049 166.29L114.708 165.535ZM100.323 124.871L103.001 166.756L105.759 166.58L103.081 124.695L100.323 124.871ZM104.265 165.291L95.1152 166.059L95.3464 168.813L104.496 168.045L104.265 165.291ZM144.782 163.276L143.404 163.368L143.497 164.771L144.898 164.653L144.782 163.276ZM140.699 101.939L140.584 100.562L139.23 100.676L139.321 102.031L140.699 101.939ZM153.932 100.828L155.261 100.45L154.95 99.356L153.816 99.4511L153.932 100.828ZM164.737 138.833L163.408 139.211L166.109 139.002L164.737 138.833ZM169.584 99.5142L169.469 98.1372L168.35 98.2311L168.213 99.3451L169.584 99.5142ZM182.363 98.4414L183.738 98.3021L183.601 96.9508L182.248 97.0644L182.363 98.4414ZM188.564 159.601L188.679 160.978L190.08 160.86L189.938 159.461L188.564 159.601ZM179.49 160.363L178.116 160.511L178.261 161.852L179.605 161.74L179.49 160.363ZM175.022 118.932L176.396 118.784L173.647 118.792L175.022 118.932ZM170.718 161.099L170.834 162.476L171.977 162.38L172.093 161.239L170.718 161.099ZM162.93 161.753L161.601 162.13L161.912 163.225L163.046 163.13L162.93 161.753ZM151.253 120.623L152.583 120.246L149.874 120.711L151.253 120.623ZM153.932 162.508L154.047 163.885L155.397 163.772L155.311 162.42L153.932 162.508ZM146.161 163.184L142.078 101.847L139.321 102.031L143.404 163.368L146.161 163.184ZM140.815 103.316L154.048 102.205L153.816 99.4511L140.584 100.562L140.815 103.316ZM152.603 101.206L163.408 139.211L166.066 138.455L155.261 100.45L152.603 101.206ZM166.109 139.002L170.956 99.6832L168.213 99.3451L163.366 138.664L166.109 139.002ZM169.7 100.891L182.479 99.8184L182.248 97.0644L169.469 98.1372L169.7 100.891ZM180.989 98.5808L187.189 159.74L189.938 159.461L183.738 98.3021L180.989 98.5808ZM188.448 158.224L179.374 158.986L179.605 161.74L188.679 160.978L188.448 158.224ZM180.864 160.214L176.396 118.784L173.648 119.081L178.116 160.511L180.864 160.214ZM173.647 118.792L169.344 160.959L172.093 161.239L176.397 119.073L173.647 118.792ZM170.603 159.722L162.814 160.376L163.046 163.13L170.834 162.476L170.603 159.722ZM164.259 161.375L152.583 120.246L149.924 121L161.601 162.13L164.259 161.375ZM149.874 120.711L152.553 162.596L155.311 162.42L152.632 120.535L149.874 120.711ZM153.816 161.131L144.667 161.899L144.898 164.653L154.047 163.885L153.816 161.131ZM200.861 157.046L200.227 158.273L200.236 158.278L200.245 158.282L200.861 157.046ZM194.839 150.622L193.569 151.167L193.575 151.18L193.581 151.192L194.839 150.622ZM188.89 97.8935L188.774 96.5166L187.397 96.6321L187.513 98.0091L188.89 97.8935ZM201.215 96.8589L202.592 96.7433L202.477 95.3663L201.1 95.4819L201.215 96.8589ZM205.555 144.925L204.206 145.227L204.212 145.25L204.217 145.273L205.555 144.925ZM207.365 148.352L206.382 149.322L206.397 149.338L206.413 149.353L207.365 148.352ZM214.624 147.742L213.518 146.914L213.505 146.932L213.493 146.95L214.624 147.742ZM212.104 95.9448L211.988 94.5678L210.611 94.6834L210.727 96.0604L212.104 95.9448ZM224.429 94.9102L225.806 94.7946L225.69 93.4176L224.313 93.5332L224.429 94.9102ZM227.278 147.898L225.94 147.553L225.937 147.566L227.278 147.898ZM222.487 155.23L223.301 156.347L223.309 156.341L223.317 156.335L222.487 155.23ZM211.755 157.105C207.244 157.484 203.862 156.997 201.478 155.809L200.245 158.282C203.264 159.788 207.222 160.259 211.986 159.859L211.755 157.105ZM201.495 155.818C199.077 154.569 197.283 152.665 196.098 150.051L193.581 151.192C195.012 154.348 197.233 156.727 200.227 158.273L201.495 155.818ZM196.109 150.076C194.922 147.311 194.135 143.853 193.783 139.669L191.029 139.9C191.398 144.285 192.232 148.052 193.569 151.167L196.109 150.076ZM193.783 139.669L190.267 97.778L187.513 98.0091L191.029 139.9L193.783 139.669ZM189.006 99.2705L201.331 98.2359L201.1 95.4819L188.774 96.5166L189.006 99.2705ZM199.838 96.9745L203.501 140.604L206.255 140.373L202.592 96.7433L199.838 96.9745ZM203.501 140.604C203.633 142.178 203.868 143.719 204.206 145.227L206.903 144.622C206.593 143.24 206.377 141.824 206.255 140.373L203.501 140.604ZM204.217 145.273C204.638 146.889 205.34 148.266 206.382 149.322L208.349 147.381C207.726 146.749 207.221 145.842 206.892 144.577L204.217 145.273ZM206.413 149.353C207.668 150.547 209.355 150.942 211.225 150.785L210.994 148.031C209.637 148.145 208.828 147.836 208.318 147.35L206.413 149.353ZM211.225 150.785C213.123 150.626 214.756 149.963 215.756 148.535L213.493 146.95C213.132 147.464 212.423 147.911 210.994 148.031L211.225 150.785ZM215.73 148.571C216.657 147.333 217.128 145.828 217.218 144.135L214.459 143.988C214.391 145.253 214.052 146.201 213.518 146.914L215.73 148.571ZM217.218 144.135C217.301 142.592 217.275 141.033 217.143 139.459L214.389 139.69C214.511 141.141 214.534 142.574 214.459 143.988L217.218 144.135ZM217.143 139.459L213.481 95.8292L210.727 96.0604L214.389 139.69L217.143 139.459ZM212.219 97.3218L224.545 96.2872L224.313 93.5332L211.988 94.5678L212.219 97.3218ZM223.052 95.0258L226.569 136.917L229.323 136.685L225.806 94.7946L223.052 95.0258ZM226.569 136.917C226.919 141.095 226.695 144.631 225.94 147.553L228.616 148.244C229.47 144.939 229.691 141.076 229.323 136.685L226.569 136.917ZM225.937 147.566C225.252 150.328 223.829 152.494 221.657 154.125L223.317 156.335C226.016 154.308 227.787 151.587 228.619 148.231L225.937 147.566ZM221.673 154.114C219.52 155.683 216.266 156.726 211.755 157.105L211.986 159.859C216.751 159.459 220.574 158.334 223.301 156.347L221.673 154.114ZM235.251 155.682L233.874 155.797L233.99 157.174L235.367 157.059L235.251 155.682ZM230.11 94.4333L229.994 93.0563L228.617 93.1719L228.733 94.5489L230.11 94.4333ZM238.805 93.7033L240.027 93.0568L239.599 92.25L238.69 92.3263L238.805 93.7033ZM255.095 124.47L253.874 125.117L256.472 124.355L255.095 124.47ZM252.416 92.5608L252.301 91.1838L250.924 91.2994L251.039 92.6764L252.416 92.5608ZM262.7 91.6975L264.077 91.5819L263.961 90.2049L262.584 90.3205L262.7 91.6975ZM267.841 152.946L267.957 154.323L269.334 154.207L269.218 152.83L267.841 152.946ZM259.524 153.644L258.289 154.265L258.709 155.099L259.639 155.021L259.524 153.644ZM243.069 120.911L244.304 120.29L241.692 121.027L243.069 120.911ZM245.913 154.787L246.029 156.164L247.406 156.048L247.29 154.671L245.913 154.787ZM236.628 155.566L231.487 94.3177L228.733 94.5489L233.874 155.797L236.628 155.566ZM230.225 95.8103L238.921 95.0803L238.69 92.3263L229.994 93.0563L230.225 95.8103ZM237.584 94.3499L253.874 125.117L256.316 123.824L240.027 93.0568L237.584 94.3499ZM256.472 124.355L253.793 92.4452L251.039 92.6764L253.718 124.586L256.472 124.355ZM252.532 93.9378L262.815 93.0745L262.584 90.3205L252.301 91.1838L252.532 93.9378ZM261.323 91.8131L266.464 153.061L269.218 152.83L264.077 91.5819L261.323 91.8131ZM267.726 151.569L259.408 152.267L259.639 155.021L267.957 154.323L267.726 151.569ZM260.758 153.023L244.304 120.29L241.835 121.532L258.289 154.265L260.758 153.023ZM241.692 121.027L244.536 154.902L247.29 154.671L244.446 120.795L241.692 121.027ZM245.797 153.41L235.136 154.305L235.367 157.059L246.029 156.164L245.797 153.41ZM274.247 152.408L272.87 152.524L272.985 153.901L274.362 153.785L274.247 152.408ZM269.105 91.1598L268.99 89.7828L267.613 89.8984L267.728 91.2754L269.105 91.1598ZM281.506 90.1188L282.883 90.0032L282.768 88.6262L281.39 88.7418L281.506 90.1188ZM286.648 151.367L286.763 152.744L288.14 152.628L288.025 151.251L286.648 151.367ZM275.624 152.292L270.482 91.0442L267.728 91.2754L272.87 152.524L275.624 152.292ZM269.221 92.5368L281.622 91.4958L281.39 88.7418L268.99 89.7828L269.221 92.5368ZM280.129 90.2344L285.271 151.483L288.025 151.251L282.883 90.0032L280.129 90.2344ZM286.532 149.99L274.131 151.031L274.362 153.785L286.763 152.744L286.532 149.99ZM298.749 150.351L297.372 150.467L297.488 151.844L298.865 151.728L298.749 150.351ZM294.388 98.4036L295.765 98.288L295.65 96.911L294.273 97.0266L294.388 98.4036ZM284.936 99.197L283.559 99.3126L283.675 100.69L285.052 100.574L284.936 99.197ZM284.156 89.8963L284.04 88.5194L282.663 88.6349L282.779 90.0119L284.156 89.8963ZM315.46 87.2684L316.837 87.1528L316.722 85.7758L315.345 85.8914L315.46 87.2684ZM316.241 96.5691L316.357 97.9461L317.734 97.8305L317.618 96.4535L316.241 96.5691ZM306.94 97.3499L306.825 95.9729L305.448 96.0885L305.563 97.4655L306.94 97.3499ZM311.301 149.297L311.417 150.674L312.794 150.559L312.678 149.182L311.301 149.297ZM300.126 150.236L295.765 98.288L293.011 98.5192L297.372 150.467L300.126 150.236ZM294.273 97.0266L284.821 97.82L285.052 100.574L294.504 99.7806L294.273 97.0266ZM286.313 99.0814L285.533 89.7808L282.779 90.0119L283.559 99.3126L286.313 99.0814ZM284.271 91.2733L315.576 88.6454L315.345 85.8914L284.04 88.5194L284.271 91.2733ZM314.083 87.384L314.864 96.6847L317.618 96.4535L316.837 87.1528L314.083 87.384ZM316.125 95.1921L306.825 95.9729L307.056 98.7269L316.357 97.9461L316.125 95.1921ZM305.563 97.4655L309.924 149.413L312.678 149.182L308.317 97.2343L305.563 97.4655ZM311.186 147.92L298.633 148.974L298.865 151.728L311.417 150.674L311.186 147.92ZM331.148 147.631L329.771 147.747L329.887 149.124L331.264 149.008L331.148 147.631ZM329.111 123.359L330.488 123.243L330.47 123.026L330.386 122.826L329.111 123.359ZM314.06 87.386L313.944 86.009L312.052 86.1679L312.785 87.9194L314.06 87.386ZM325.78 86.4021L327.063 85.8896L326.684 84.9396L325.664 85.0251L325.78 86.4021ZM334.168 107.4L332.884 107.913L334.624 112.267L335.524 107.665L334.168 107.4ZM338.483 85.3357L338.368 83.9587L337.328 84.0461L337.127 85.0705L338.483 85.3357ZM349.826 84.3836L351.173 84.692L351.595 82.8484L349.71 83.0066L349.826 84.3836ZM341.134 122.35L339.787 122.041L339.739 122.251L339.757 122.465L341.134 122.35ZM343.171 146.622L343.287 147.999L344.664 147.884L344.548 146.507L343.171 146.622ZM332.525 147.516L330.488 123.243L327.734 123.475L329.771 147.747L332.525 147.516ZM330.386 122.826L315.334 86.8527L312.785 87.9194L327.836 123.892L330.386 122.826ZM314.175 88.763L325.896 87.7791L325.664 85.0251L313.944 86.009L314.175 88.763ZM324.497 86.9147L332.884 107.913L335.451 106.888L327.063 85.8896L324.497 86.9147ZM335.524 107.665L339.839 85.601L337.127 85.0705L332.811 107.135L335.524 107.665ZM338.599 86.7127L349.941 85.7606L349.71 83.0066L338.368 83.9587L338.599 86.7127ZM348.479 84.0752L339.787 122.041L342.481 122.658L351.173 84.692L348.479 84.0752ZM339.757 122.465L341.794 146.738L344.548 146.507L342.511 122.234L339.757 122.465ZM343.056 145.245L331.033 146.254L331.264 149.008L343.287 147.999L343.056 145.245ZM373.057 144.113L371.68 144.229L371.796 145.606L373.173 145.49L373.057 144.113ZM367.915 82.865L367.8 81.488L366.423 81.6036L366.538 82.9806L367.915 82.865ZM395.157 82.6342L394.672 83.9281L394.686 83.9332L394.699 83.938L395.157 82.6342ZM401.884 88.3898L400.66 89.0307L400.664 89.0384L401.884 88.3898ZM405.61 132.776L406.927 133.196L405.61 132.776ZM400.031 139.793L400.734 140.983L400.742 140.978L400.031 139.793ZM384.803 134.37L383.426 134.486L383.542 135.863L384.919 135.747L384.803 134.37ZM392.276 132.677L393.186 133.717L393.195 133.709L392.276 132.677ZM393.894 129.267L395.269 129.395L395.27 129.387L393.894 129.267ZM390.746 93.589L389.43 94.0113L389.44 94.0417L389.451 94.0716L390.746 93.589ZM388.539 90.8807L387.901 92.1067L387.915 92.114L387.93 92.1209L388.539 90.8807ZM381.128 90.589L381.013 89.212L379.636 89.3276L379.751 90.7046L381.128 90.589ZM374.434 143.998L369.292 82.7494L366.538 82.9806L371.68 144.229L374.434 143.998ZM368.031 84.242L383.003 82.9852L382.772 80.2312L367.8 81.488L368.031 84.242ZM383.003 82.9852C388.105 82.5569 391.96 82.9116 394.672 83.9281L395.642 81.3403C392.379 80.1171 388.054 79.7878 382.772 80.2312L383.003 82.9852ZM394.699 83.938C397.413 84.8909 399.376 86.5783 400.66 89.0306L403.109 87.7489C401.49 84.6576 398.969 82.508 395.615 81.3304L394.699 83.938ZM400.664 89.0384C401.993 91.5383 402.873 94.9157 403.236 99.2416L405.99 99.0104C405.608 94.4641 404.669 90.684 403.104 87.7411L400.664 89.0384ZM403.236 99.2416L405.109 121.548L407.863 121.317L405.99 99.0104L403.236 99.2416ZM405.109 121.548C405.48 125.976 405.185 129.561 404.294 132.356L406.927 133.196C407.965 129.94 408.253 125.962 407.863 121.317L405.109 121.548ZM404.294 132.356C403.433 135.057 401.791 137.126 399.321 138.608L400.742 140.978C403.782 139.155 405.859 136.545 406.927 133.196L404.294 132.356ZM399.329 138.603C396.877 140.049 393.214 141.034 388.216 141.454L388.447 144.208C393.631 143.773 397.768 142.733 400.734 140.983L399.329 138.603ZM388.216 141.454L372.941 142.736L373.173 145.49L388.447 144.208L388.216 141.454ZM384.919 135.747L387.566 135.525L387.334 132.771L384.688 132.993L384.919 135.747ZM387.566 135.525C389.943 135.326 391.937 134.81 393.186 133.717L391.366 131.637C390.819 132.116 389.595 132.581 387.334 132.771L387.566 135.525ZM393.195 133.709C394.437 132.603 395.108 131.124 395.269 129.395L392.518 129.138C392.412 130.274 392.004 131.069 391.357 131.645L393.195 133.709ZM395.27 129.387C395.409 127.8 395.38 125.916 395.198 123.751L392.444 123.982C392.618 126.051 392.637 127.767 392.517 129.147L395.27 129.387ZM395.198 123.751L393.078 98.4952L390.324 98.7264L392.444 123.982L395.198 123.751ZM393.078 98.4952C392.895 96.3196 392.562 94.5049 392.041 93.1065L389.451 94.0716C389.848 95.1345 390.151 96.6676 390.324 98.7264L393.078 98.4952ZM392.062 93.1668C391.553 91.5805 390.594 90.3505 389.148 89.6405L387.93 92.1209C388.602 92.4514 389.115 93.0271 389.43 94.0113L392.062 93.1668ZM389.177 89.6547C387.803 88.9405 385.855 88.8056 383.584 88.9962L383.815 91.7502C385.98 91.5685 387.258 91.7719 387.901 92.1067L389.177 89.6547ZM383.584 88.9962L381.013 89.212L381.244 91.966L383.815 91.7502L383.584 88.9962ZM379.751 90.7046L383.426 134.486L386.18 134.255L382.505 90.4735L379.751 90.7046ZM409.541 141.051L408.167 140.902L407.987 142.568L409.657 142.428L409.541 141.051ZM416.271 78.8057L416.156 77.4287L415.02 77.5241L414.897 78.6572L416.271 78.8057ZM430.109 77.6441L431.439 77.2702L431.13 76.1717L429.993 76.2671L430.109 77.6441ZM447.046 137.902L447.162 139.279L448.829 139.139L448.377 137.528L447.046 137.902ZM435.477 138.873L434.137 139.209L434.422 140.349L435.593 140.25L435.477 138.873ZM432.155 125.598L433.495 125.262L433.21 124.123L432.039 124.221L432.155 125.598ZM422.476 126.41L422.36 125.033L421.202 125.131L421.099 126.288L422.476 126.41ZM421.262 140.067L421.377 141.444L422.535 141.347L422.638 140.189L421.262 140.067ZM422.969 118.678L421.59 118.592L421.491 120.189L423.084 120.055L422.969 118.678ZM430.304 118.062L430.419 119.439L432.018 119.305L431.648 117.744L430.304 118.062ZM424.523 93.6473L425.867 93.3289L423.144 93.5616L424.523 93.6473ZM410.915 141.199L417.645 78.9543L414.897 78.6572L408.167 140.902L410.915 141.199ZM416.387 80.1827L430.224 79.0211L429.993 76.2671L416.156 77.4287L416.387 80.1827ZM428.779 78.018L445.716 138.276L448.377 137.528L431.439 77.2702L428.779 78.018ZM446.931 136.525L435.362 137.496L435.593 140.25L447.162 139.279L446.931 136.525ZM436.818 138.538L433.495 125.262L430.814 125.933L434.137 139.209L436.818 138.538ZM432.039 124.221L422.36 125.033L422.591 127.787L432.27 126.975L432.039 124.221ZM421.099 126.288L419.885 139.944L422.638 140.189L423.852 126.533L421.099 126.288ZM421.146 138.69L409.426 139.674L409.657 142.428L421.377 141.444L421.146 138.69ZM423.084 120.055L430.419 119.439L430.188 116.685L422.853 117.301L423.084 120.055ZM431.648 117.744L425.867 93.3289L423.178 93.9656L428.959 118.381L431.648 117.744ZM423.144 93.5616L421.59 118.592L424.348 118.764L425.902 93.7329L423.144 93.5616ZM454.995 137.235L453.618 137.351L453.733 138.728L455.11 138.612L454.995 137.235ZM452.957 112.962L454.334 112.847L454.316 112.63L454.232 112.429L452.957 112.962ZM437.906 76.9896L437.79 75.6126L435.898 75.7714L436.631 77.5229L437.906 76.9896ZM449.626 76.0057L450.91 75.4931L450.53 74.5431L449.511 74.6287L449.626 76.0057ZM458.014 97.0038L456.731 97.5164L458.47 101.871L459.37 97.269L458.014 97.0038ZM462.33 74.9393L462.214 73.5623L461.174 73.6496L460.974 74.674L462.33 74.9393ZM473.672 73.9872L475.019 74.2955L475.441 72.452L473.556 72.6102L473.672 73.9872ZM464.98 111.953L463.633 111.645L463.585 111.854L463.603 112.069L464.98 111.953ZM467.018 136.226L467.133 137.603L468.51 137.487L468.395 136.11L467.018 136.226ZM456.372 137.119L454.334 112.847L451.58 113.078L453.618 137.351L456.372 137.119ZM454.232 112.429L439.181 76.4562L436.631 77.5229L451.682 113.496L454.232 112.429ZM438.022 78.3666L449.742 77.3827L449.511 74.6287L437.79 75.6126L438.022 78.3666ZM448.343 76.5183L456.731 97.5164L459.297 96.4912L450.91 75.4931L448.343 76.5183ZM459.37 97.269L463.686 75.2046L460.974 74.674L456.658 96.7385L459.37 97.269ZM462.445 76.3163L473.788 75.3642L473.556 72.6102L462.214 73.5623L462.445 76.3163ZM472.325 73.6788L463.633 111.645L466.327 112.262L475.019 74.2955L472.325 73.6788ZM463.603 112.069L465.641 136.341L468.395 136.11L466.357 111.838L463.603 112.069ZM466.902 134.849L454.879 135.858L455.11 138.612L467.133 137.603L466.902 134.849Z" fill="black" mask="url(#path-2-outside-1_1160_216)"/>
<rect x="220.184" y="177.057" width="165.821" height="53.7797" rx="8.06696" transform="rotate(-13.377 220.184 177.057)" fill="black"/>
<rect x="214.459" y="173.837" width="167.344" height="55.303" rx="8.82861" transform="rotate(-13.377 214.459 173.837)" fill="#F02D32" stroke="black" stroke-width="1.52329"/>
<path d="M248.756 206.699L243.726 185.549L257.71 182.223L258.532 185.68L248.861 187.98L250.211 193.656L258.614 191.657L259.443 195.145L251.04 197.144L253.069 205.674L248.756 206.699ZM272.688 201.51C270.067 202.134 267.927 201.872 266.27 200.725C264.612 199.578 263.457 197.631 262.803 194.882C262.104 191.944 262.263 189.651 263.278 188.002C264.314 186.349 266.1 185.22 268.637 184.617C270.413 184.195 271.968 184.16 273.303 184.512C274.632 184.844 275.731 185.565 276.598 186.677C277.487 187.783 278.152 189.267 278.594 191.127C279.248 193.875 279.061 196.142 278.034 197.927C277.028 199.708 275.246 200.902 272.688 201.51ZM271.904 198.213C272.834 197.992 273.534 197.602 274.004 197.043C274.496 196.48 274.788 195.785 274.882 194.958C274.971 194.111 274.887 193.148 274.631 192.07C274.344 190.865 273.963 189.917 273.486 189.226C273.03 188.531 272.463 188.074 271.786 187.855C271.13 187.631 270.347 187.628 269.438 187.844C268.508 188.065 267.803 188.434 267.322 188.95C266.842 189.466 266.555 190.137 266.461 190.964C266.388 191.785 266.49 192.777 266.767 193.94C267.169 195.631 267.782 196.848 268.606 197.59C269.431 198.332 270.53 198.539 271.904 198.213ZM284.085 198.298L280.654 183.87C280.905 183.609 281.362 183.232 282.027 182.739C282.712 182.241 283.524 181.758 284.463 181.289C285.396 180.799 286.37 180.433 287.384 180.192C288.145 180.011 288.763 179.931 289.237 179.953C289.727 179.948 290.119 180 290.413 180.108L291.137 183.152C290.699 183.19 290.201 183.252 289.641 183.341C289.102 183.424 288.55 183.544 287.984 183.701C287.435 183.832 286.901 183.981 286.382 184.149C285.885 184.312 285.454 184.471 285.088 184.624L288.112 197.34L284.085 198.298ZM309.864 192.536C308.976 192.747 308.105 192.842 307.252 192.822C306.419 192.796 305.625 192.695 304.868 192.518L303.91 188.491C304.676 188.8 305.393 189.043 306.06 189.219C306.743 189.369 307.413 189.366 308.068 189.21C309.125 188.959 309.866 188.504 310.29 187.845C310.735 187.18 310.814 186.246 310.527 185.041L307.066 170.486L311.379 169.461L314.893 184.237C315.209 185.569 315.27 186.716 315.074 187.678C314.9 188.636 314.556 189.443 314.043 190.101C313.529 190.76 312.904 191.277 312.167 191.653C311.435 192.05 310.667 192.345 309.864 192.536ZM327.071 188.578C326.183 188.789 325.318 188.905 324.474 188.927C323.631 188.949 322.847 188.845 322.122 188.616C321.392 188.365 320.757 187.946 320.215 187.36C319.69 186.748 319.304 185.924 319.058 184.888C318.801 183.81 318.807 182.848 319.075 182.003C319.338 181.136 319.847 180.412 320.602 179.831C321.374 179.223 322.383 178.771 323.63 178.474C324.391 178.293 325.117 178.199 325.807 178.191C326.493 178.162 327.127 178.201 327.711 178.308C328.295 178.414 328.789 178.565 329.192 178.759L330.013 180.943C329.499 180.753 328.873 180.656 328.135 180.653C327.413 180.623 326.651 180.704 325.847 180.895C324.727 181.162 323.935 181.54 323.471 182.03C323.006 182.52 322.865 183.145 323.046 183.907C323.171 184.435 323.425 184.844 323.806 185.133C324.183 185.401 324.626 185.574 325.136 185.654C325.642 185.713 326.148 185.681 326.655 185.561C327.818 185.284 328.636 185.012 329.108 184.743C329.596 184.448 329.777 184.037 329.652 183.508L328.151 177.198C327.905 176.162 327.398 175.49 326.633 175.18C325.862 174.85 324.884 174.826 323.7 175.107C322.791 175.323 321.899 175.703 321.023 176.246C320.142 176.769 319.464 177.343 318.987 177.97L318.12 174.323C318.605 173.828 319.386 173.308 320.462 172.761C321.539 172.215 322.732 171.786 324.043 171.474C324.592 171.344 325.186 171.258 325.824 171.218C326.463 171.178 327.084 171.209 327.689 171.311C328.315 171.408 328.911 171.612 329.477 171.924C330.037 172.215 330.53 172.645 330.956 173.214C331.376 173.762 331.692 174.48 331.903 175.368L333.706 182.946C333.942 183.94 333.811 184.797 333.312 185.519C332.809 186.219 332.022 186.808 330.952 187.286C329.887 187.785 328.593 188.216 327.071 188.578ZM343.449 184.18L332.958 169.79L337.27 168.764L345.485 180.346L344.518 180.643L346.181 166.645L350.366 165.65L347.476 183.223L343.449 184.18ZM362.744 180.094C361.857 180.305 360.991 180.422 360.147 180.444C359.304 180.466 358.52 180.362 357.795 180.132C357.065 179.881 356.43 179.463 355.888 178.877C355.363 178.265 354.977 177.441 354.731 176.405C354.475 175.327 354.48 174.365 354.748 173.52C355.011 172.653 355.52 171.929 356.276 171.347C357.047 170.74 358.056 170.287 359.303 169.991C360.064 169.81 360.79 169.715 361.481 169.707C362.166 169.678 362.801 169.717 363.384 169.824C363.968 169.931 364.462 170.082 364.865 170.276L365.686 172.46C365.172 172.269 364.546 172.172 363.808 172.169C363.086 172.14 362.324 172.221 361.521 172.412C360.4 172.678 359.608 173.056 359.144 173.546C358.68 174.037 358.538 174.662 358.719 175.423C358.845 175.952 359.098 176.36 359.48 176.649C359.856 176.917 360.299 177.091 360.81 177.171C361.315 177.229 361.821 177.198 362.329 177.077C363.491 176.801 364.309 176.528 364.781 176.26C365.269 175.965 365.45 175.553 365.325 175.025L363.824 168.715C363.578 167.679 363.072 167.006 362.306 166.697C361.535 166.367 360.557 166.342 359.374 166.624C358.465 166.84 357.572 167.22 356.696 167.763C355.815 168.285 355.137 168.86 354.66 169.487L353.793 165.84C354.279 165.345 355.059 164.824 356.135 164.278C357.212 163.732 358.405 163.303 359.716 162.991C360.265 162.86 360.859 162.775 361.497 162.735C362.136 162.695 362.757 162.726 363.362 162.827C363.988 162.924 364.584 163.129 365.15 163.441C365.71 163.732 366.203 164.162 366.629 164.731C367.05 165.278 367.366 165.996 367.577 166.884L369.379 174.463C369.615 175.456 369.484 176.314 368.986 177.035C368.482 177.736 367.695 178.325 366.625 178.803C365.56 179.302 364.267 179.732 362.744 180.094Z" fill="white"/>
<circle cx="227.362" cy="181.783" r="3.42519" transform="rotate(-13.377 227.362 181.783)" fill="white" stroke="black" stroke-width="0.761646"/>
<path d="M225.945 181.941C211.675 174.35 210.495 152.032 209.228 145.205C216.314 144.61 221.341 177.078 226.924 179.948C231.562 182.333 227.364 182.697 225.945 181.941Z" stroke="black" stroke-width="1.38184"/>
<path d="M221.016 175.484C220.217 175.006 221.462 172.614 224.588 172.509C229.197 172.353 232.526 177.567 229.042 177.86C227.524 177.987 225.627 178.147 224.402 179.402C223.168 178.359 221.49 175.768 221.016 175.484Z" fill="#F02D32"/>
<path d="M215.21 158.766C213.827 155.953 211.601 150.595 212.928 149.786C214.382 148.9 215.193 147.94 215.393 147.286C217.155 150.068 221.028 156.138 220.775 156.771C220.522 157.403 216.823 158.249 215.21 158.766Z" fill="white"/>
<path d="M165.36 35.612C166.574 32.2719 170.487 25.4671 176.423 24.9687C183.843 24.3458 186.817 33.0635 185.273 36.9294C184.434 39.0324 178.921 44.7338 173.117 48.9149M173.117 48.9149C168.251 52.4201 163.18 54.8567 160.485 53.2085C155.759 50.3173 159.832 46.9115 162.46 45.57C163.527 44.5365 166.993 44.0965 173.117 48.9149ZM173.117 48.9149C174.264 49.818 175.505 50.9058 176.841 52.2091C185.306 60.4658 191.19 53.9938 193.073 49.7256C194.144 47.643 195.808 42.2475 193.9 37.3262C191.993 32.4048 200.05 31.9526 204.317 32.3417C205.183 32.269 206.359 33.5154 204.136 39.0824C201.357 46.0411 194.942 71.987 206.138 76.2781M212.553 33.8641C213.601 35.0474 214.915 37.2949 215.764 39.895M215.764 39.895C217.057 43.8591 217.267 48.6428 213.791 51.7253C207.749 57.0837 207.434 44.8537 215.764 39.895ZM215.764 39.895C217.353 38.9492 219.256 38.2679 221.494 38.0237C221.506 38.0224 221.518 38.0211 221.53 38.0198M221.53 38.0198C230.241 37.0569 227.3 32.6736 224.736 30.5996C222.091 27.8471 220.979 32.6654 221.53 38.0198ZM221.53 38.0198C221.735 40.0146 222.172 42.0839 222.846 43.8637C223.6 46.2769 223.627 55.3028 224.244 56.0762M248.134 32.9996C244.236 29.5904 236.504 26.2042 236.76 39.9326C237.027 40.9843 237.362 41.8202 237.746 42.4742M237.746 42.4742C239.927 46.1873 243.685 44.0333 245.542 42.1831C246.904 39.4108 243.796 35.2892 237.746 42.4742ZM237.746 42.4742C236.709 43.7059 235.585 45.2699 234.383 47.2299C229.226 62.0098 250.384 73.1621 257.576 52.0084M311.282 29.1931C307.384 25.7839 299.652 22.3977 299.908 36.1261C300.175 37.1778 300.511 38.0137 300.895 38.6677M300.895 38.6677C303.076 42.3808 306.834 40.2267 308.691 38.3766C310.053 35.6042 306.945 31.4827 300.895 38.6677ZM300.895 38.6677C299.858 39.8994 298.734 41.4633 297.531 43.4233C292.375 58.2033 313.533 69.3556 320.724 48.2018M278.042 30.6364C272.61 31.2169 263.58 34.6154 270.907 43.5654C272.64 46.409 278.206 45.9418 281.264 42.3223M259.675 29.9365C258.883 33.8638 258.136 42.7693 261.478 46.9724M289.629 31.1583C289.009 34.2319 288.425 41.2014 291.04 44.4908M283.186 30.9519C282.395 34.8792 281.648 43.7847 284.99 47.9878" stroke="#0A0A0A" stroke-width="1.98575" stroke-linecap="round"/>
</svg>
