<svg width="300" height="125" xmlns="http://www.w3.org/2000/svg" fill="none">
 <defs>
  <clipPath id="clip0_888_228">
   <rect id="svg_1" x="65.677" y="37.2829" fill="white" height="28.0466" width="34.9597"/>
  </clipPath>
  <clipPath id="clip1_888_228">
   <rect x="46" y="27" id="svg_2" fill="white" rx="33.5486" height="67.0972" width="67.0972"/>
  </clipPath>
  <clipPath id="clip2_888_228">
   <rect id="svg_3" x="62.1035" y="33.70927" fill="white" height="28.0466" width="34.9597"/>
  </clipPath>
  <radialGradient gradientTransform="matrix(6.035429954528809,0,0,6.035429954528809,81.66630554199219,49.277000427246094)" gradientUnits="userSpaceOnUse" r="1" cy="0" cx="0" id="paint0_radial_888_228">
   <stop stop-color="#FBC8B4"/>
   <stop stop-color="#ED1C24" offset="1"/>
  </radialGradient>
  <radialGradient gradientTransform="matrix(6.035429954528809,0,0,6.035429954528809,78.0927963256836,45.70330047607422)" gradientUnits="userSpaceOnUse" r="1" cy="0" cx="0" id="paint1_radial_888_228">
   <stop stop-color="#FBC8B4"/>
   <stop stop-color="#ED1C24" offset="1"/>
  </radialGradient>
 </defs>
 <g>
  <title>Layer 1</title>
  <g id="svg_36">
   <rect id="svg_4" fill="black" rx="33.2131" height="66.4262" width="66.4262" y="30.90913" x="49.90926"/>
   <rect id="svg_5" stroke-width="0.67097" stroke="black" rx="33.2131" height="66.4262" width="66.4262" y="30.90913" x="49.90926"/>
   <g id="svg_6" clip-path="url(#clip0_888_228)">
    <path id="svg_7" fill="white" d="m84.7052,38.1847c-3.6144,4.2842 -6.9636,8.8272 -8.9333,14.1327c-0.9815,2.6595 -2.1355,6.7912 -2.3079,9.6164c-0.0796,1.2004 -0.2122,2.9579 1.5055,2.6727c0.4244,-0.0729 0.9351,-0.4443 1.2799,-0.6963c0.9816,-0.703 1.8968,-1.2402 3.011,-1.7376c1.2998,-0.5704 2.865,-1.0213 4.2776,-0.9285c1.658,0.0995 3.2762,0.5969 4.5297,1.7376c0.6101,0.5505 1.4059,1.8503 2.3212,1.8503c1.6778,0 1.8569,-5.0071 1.8569,-6.1346c0,-1.658 -0.4642,-3.4022 -0.9351,-4.9872c-1.5917,-5.3454 -4.145,-10.5317 -6.6055,-15.5255z" clip-rule="evenodd" fill-rule="evenodd"/>
    <path id="svg_8" fill="black" d="m91.8276,55.3558c0.5439,-0.5438 1.0479,-0.9417 1.0479,-1.7177c1.081,-1.2335 2.0559,-2.4405 3.19,-3.6277c0.1459,0.252 1.081,0.2388 1.6248,-0.1127c0.0332,-0.0199 0.073,0 0.1128,0c0.4708,0 1.0677,0.4576 1.5121,0.3448c0.4045,-0.0994 0.6035,-0.305 0.703,-0.7029c0.0397,-0.1658 -0.1592,-0.2123 -0.2454,-0.3449c0.1525,-0.1525 0.5968,0.0928 0.8157,-0.577c0.2321,-0.6897 -0.4443,-1.0346 -0.6897,-1.1606c0.1724,-0.0066 0.4974,-0.5305 0.4642,-0.8091c-0.0199,-0.1393 -0.3316,-0.4908 -0.4642,-0.5703c-0.1061,-0.0664 -0.2321,-0.1062 -0.3581,-0.1327c-0.4245,-0.0729 -0.9484,0.0332 -1.3928,-0.1127c-0.053,-0.0133 -0.1127,-0.0597 -0.1127,-0.1128c-0.0066,-0.3647 0.2255,-0.9682 0.1127,-1.2667c-0.252,-0.7096 -0.3846,-1.0744 -1.1473,-1.28c-0.4178,-0.1127 -0.7096,0.0266 -1.0479,0.2322c-0.0464,0.0265 -0.0928,0.0663 -0.1193,0.1127c-0.0067,0.0199 -0.0067,0.2189 0,0.2321c0.0265,0.0464 0.0994,0.0663 0.1193,0.1128c0.2388,0.6101 0.5571,2.1487 0.3449,2.7854c-0.1459,0.4311 -0.6831,0.8887 -0.8091,1.5121c-0.1127,0.5571 -0.2586,1.2336 0,1.3795l-2.6727,3.4685c-0.4311,-0.6433 -1.1208,-0.5571 -1.8636,-0.5571l0.8754,2.9048z" clip-rule="evenodd" fill-rule="evenodd"/>
    <path id="svg_9" fill="black" d="m76.13,51.0502c-1.3462,-0.2255 -1.2667,-0.0531 -1.6248,0.4642c-1.2136,-0.0265 -2.2217,0.126 -3.369,0.6898c-0.7627,0.3713 -0.6765,1.7773 -0.8091,2.4273c-0.0067,0.053 -0.0597,0.1193 -0.1128,0.1193c-0.252,-0.2652 -0.63,0.1061 -0.577,0.4709c-0.5239,0.0398 -1.1208,0.6499 -1.1606,0.9219c-0.1194,0.7825 -1.8503,-0.5571 -2.4405,-0.4643c-0.199,0.0332 -0.3184,0.4112 -0.3449,0.577c-0.0398,0.2388 -0.0066,0.5637 0.2255,0.703c0.2719,0.1592 2.162,0.3051 2.2151,0.4576c0.0464,0.1459 -0.8224,0.4112 -0.9351,0.4642c-0.7163,0.3184 -0.776,0.3648 -1.0479,1.0479c-0.2852,0.703 0.756,0.756 1.28,0.6897c0.4708,-0.0597 1.1274,-1.1009 1.6248,-0.8091c0.4775,0.2918 0.1592,1.1938 0.1128,1.6249c-0.0597,0.557 -0.1791,1.1539 0.4708,1.1539c0.6765,0 0.7494,-0.6499 0.8091,-1.2667c0.0199,-0.2321 -0.0199,-0.4709 0,-0.703c0.0332,-0.3846 0.3582,-1.532 0.9285,-1.3927c0.6234,0.1525 0.3382,0.9285 1.6248,0.9285c0.2056,0 0.4245,-0.0929 0.577,-0.2255c0.1658,-0.1525 0.2653,-0.378 0.3449,-0.5903c0.0796,-0.2188 0.1127,-0.4576 0.1127,-0.6897c0,-0.2785 -0.2188,-0.4576 -0.4576,-0.4576c-0.2586,0 -0.5637,0.2255 -0.6897,0.2255c-0.0928,0 -0.1658,-0.073 -0.2454,-0.1127c-0.3515,-0.1725 -0.7627,-0.4245 -1.0346,-0.703c-0.0066,-0.0067 -0.2188,-0.3184 -0.2321,-0.3449c0.378,-0.1459 0.1326,-1.1672 -0.2387,-1.154c-0.0199,-0.0729 -0.0133,-0.1591 0,-0.2387c0.0994,-0.5438 0.2918,-1.857 0.7029,-2.2018c0.6102,-0.5107 1.8504,-0.7694 2.6661,-0.9219c0.0066,0.5505 0.5969,0.7494 1.0412,0.9219l0.5836,-1.6116z" clip-rule="evenodd" fill-rule="evenodd"/>
    <path id="svg_10" fill="black" d="m84.7052,38.4172c-4.2511,4.2511 -6.9172,8.6349 -9.046,14.2455c4.6424,-1.7641 11.0091,-1.5717 15.5387,0.4643c-1.658,-4.6491 -3.9261,-10.3792 -6.4927,-14.7098z" clip-rule="evenodd" fill-rule="evenodd"/>
    <path id="svg_11" stroke-width="0.86216" stroke="#231F20" fill="url(#paint0_radial_888_228)" d="m83.1732,47.0913c2.4273,0 4.47,1.7443 4.47,4.0456c0,2.288 -2.2416,4.0853 -4.6623,4.0322c-2.9645,-0.0663 -4.3439,-1.6116 -4.3439,-3.8996c0,-2.3013 2.1089,-4.1782 4.5362,-4.1782z" clip-rule="evenodd" fill-rule="evenodd"/>
    <path id="svg_12" stroke-width="0.0199" stroke="#666666" d="m99.6604,46.0771l-0.577,0.1128l-0.8091,0.1127l-0.4709,0.345l0,0.5769"/>
    <path id="svg_13" stroke-width="0.0199" stroke="#666666" d="m99.8992,47.4561l-1.1606,0l-0.8157,0.2321l-0.2321,0.3515l0.2321,0.4642"/>
    <path id="svg_14" stroke-width="0.0199" stroke="#666666" d="m99.7732,49.193l-0.6897,-0.2321l-0.6897,-0.1129l-0.5903,0.2322l-0.1127,0.5836"/>
    <path id="svg_15" stroke-width="0.9948" stroke="#231F20" d="m84.7052,38.1847c-3.6144,4.2842 -6.9636,8.8272 -8.9333,14.1327c-0.9815,2.6595 -2.1355,6.7912 -2.3079,9.6164c-0.0796,1.2004 -0.2122,2.9579 1.5055,2.6727c0.4244,-0.0729 0.9351,-0.4443 1.2799,-0.6963c0.9816,-0.703 1.8968,-1.2402 3.011,-1.7376c1.2998,-0.5704 2.865,-1.0213 4.2776,-0.9285c1.658,0.0995 3.2762,0.5969 4.5297,1.7376c0.6101,0.5504 1.4059,1.8503 2.3212,1.8503c1.6778,0 1.8569,-5.0071 1.8569,-6.1346c0,-1.658 -0.4642,-3.4022 -0.9351,-4.9872c-1.5917,-5.3454 -4.145,-10.5317 -6.6055,-15.5255z" clip-rule="evenodd" fill-rule="evenodd"/>
   </g>
   <path id="svg_16" fill="white" d="m70.8371,87.2481c-0.8805,0 -1.6509,-0.1401 -2.3112,-0.4202c-0.6503,-0.2802 -1.1556,-0.6904 -1.5158,-1.2306c-0.3602,-0.5503 -0.5403,-1.2207 -0.5403,-2.0111c0,-0.3902 0.045,-0.8004 0.1351,-1.2306c0.3502,-1.6209 1.0555,-2.8715 2.1161,-3.752c1.0606,-0.8805 2.5413,-1.3207 4.4423,-1.3207c0.6003,0 1.1356,0.035 1.6059,0.1051c0.4702,0.07 0.9054,0.175 1.3057,0.3151l-0.5253,2.4163c-0.4002,-0.1701 -0.8305,-0.2852 -1.2907,-0.3452c-0.4502,-0.06 -0.9205,-0.09 -1.4107,-0.09c-0.8605,0 -1.5859,0.2101 -2.1762,0.6303c-0.5903,0.4202 -0.9855,1.1006 -1.1856,2.0411c-0.09,0.3902 -0.1351,0.7303 -0.1351,1.0205c0,0.5103 0.1501,0.8855 0.4503,1.1256c0.3101,0.2301 0.8254,0.3452 1.5458,0.3452c0.2601,0 0.5052,-0.015 0.7354,-0.0451c0.2401,-0.04 0.4702,-0.09 0.6903,-0.15l0.3002,-1.4108l-1.921,0l0.3752,-1.7409l4.2772,0l-1.0355,4.8626c-0.4203,0.2301 -0.9605,0.4352 -1.6209,0.6153c-0.6503,0.1801 -1.4207,0.2701 -2.3112,0.2701zm9.3104,0c-0.8204,0 -1.5158,-0.1351 -2.0861,-0.4052c-0.5703,-0.2801 -1.0055,-0.6553 -1.3057,-1.1256c-0.2901,-0.4802 -0.4352,-1.0205 -0.4352,-1.6208c0,-0.2602 0.03,-0.5303 0.09,-0.8105l1.2457,-5.853l2.8215,0l-1.2007,5.6429c-0.06,0.2802 -0.09,0.5253 -0.09,0.7354c0,0.3702 0.115,0.6354 0.3452,0.7954c0.2301,0.1601 0.6053,0.2402 1.1256,0.2402c0.6403,0 1.1205,-0.1351 1.4407,-0.4053c0.3202,-0.2701 0.5453,-0.7253 0.6754,-1.3657l1.2006,-5.6429l2.8215,0l-1.2607,5.9431c-0.2801,1.3607 -0.8604,2.3462 -1.7409,2.9565c-0.8805,0.6104 -2.0961,0.9155 -3.6469,0.9155zm7.5407,0c-0.4202,0 -0.8154,-0.03 -1.1856,-0.09c-0.3702,-0.0501 -0.7154,-0.1351 -1.0355,-0.2552l0.4952,-2.3412c0.4603,0.2001 1.0106,0.3002 1.6509,0.3002c0.6003,0 1.0255,-0.1101 1.2757,-0.3302c0.2501,-0.2201 0.4252,-0.5853 0.5252,-1.0956l1.2757,-6.0031l2.8215,0l-1.3657,6.4534c-0.2302,1.0905 -0.7054,1.926 -1.4258,2.5063c-0.7204,0.5703 -1.7309,0.8554 -3.0316,0.8554z"/>
   <path id="svg_17" fill="black" d="m70.5307,77.3179c-0.4202,0 -0.8154,-0.03 -1.1856,-0.09c-0.3702,-0.0501 -0.7154,-0.1351 -1.0355,-0.2552l0.4952,-2.3412c0.4603,0.2001 1.0106,0.3002 1.6509,0.3002c0.6003,0 1.0255,-0.1101 1.2757,-0.3302c0.2501,-0.2201 0.4252,-0.5853 0.5252,-1.0956l1.2757,-6.0031l2.8215,0l-1.3657,6.4534c-0.2302,1.0905 -0.7054,1.926 -1.4258,2.5063c-0.7204,0.5703 -1.7309,0.8554 -3.0316,0.8554zm9.519,0c-0.8204,0 -1.5158,-0.1351 -2.0861,-0.4052c-0.5703,-0.2801 -1.0055,-0.6553 -1.3057,-1.1256c-0.2901,-0.4802 -0.4352,-1.0205 -0.4352,-1.6208c0,-0.2602 0.03,-0.5303 0.09,-0.8105l1.2457,-5.853l2.8215,0l-1.2007,5.6429c-0.06,0.2802 -0.09,0.5253 -0.09,0.7354c0,0.3702 0.1151,0.6353 0.3452,0.7954c0.2301,0.1601 0.6053,0.2402 1.1256,0.2402c0.6403,0 1.1206,-0.1351 1.4407,-0.4053c0.3202,-0.2701 0.5453,-0.7253 0.6754,-1.3657l1.2006,-5.6429l2.8215,0l-1.2607,5.9431c-0.2801,1.3607 -0.8604,2.3462 -1.7409,2.9565c-0.8804,0.6104 -2.0961,0.9155 -3.6469,0.9155zm10.8125,0c-0.8805,0 -1.6509,-0.1401 -2.3113,-0.4202c-0.6503,-0.2802 -1.1556,-0.6904 -1.5157,-1.2307c-0.3602,-0.5502 -0.5403,-1.2206 -0.5403,-2.011c0,-0.3902 0.045,-0.8004 0.135,-1.2307c0.3502,-1.6208 1.0556,-2.8715 2.1162,-3.7519c1.0605,-0.8805 2.5413,-1.3207 4.4423,-1.3207c0.6003,0 1.1356,0.035 1.6058,0.105c0.4703,0.0701 0.9055,0.1751 1.3057,0.3152l-0.5253,2.4163c-0.4002,-0.1701 -0.8304,-0.2852 -1.2907,-0.3452c-0.4502,-0.06 -0.9204,-0.09 -1.4107,-0.09c-0.8604,0 -1.5858,0.2101 -2.1761,0.6303c-0.5903,0.4202 -0.9855,1.1006 -1.1856,2.041c-0.0901,0.3903 -0.1351,0.7304 -0.1351,1.0206c0,0.5103 0.1501,0.8854 0.4502,1.1256c0.3102,0.2301 0.8254,0.3452 1.5458,0.3452c0.2602,0 0.5053,-0.0151 0.7354,-0.0451c0.2401,-0.04 0.4703,-0.09 0.6904,-0.15l0.3001,-1.4108l-1.921,0l0.3752,-1.7409l4.2773,0l-1.0356,4.8625c-0.4202,0.2302 -0.9605,0.4353 -1.6208,0.6154c-0.6504,0.1801 -1.4208,0.2701 -2.3112,0.2701z"/>
   <g id="svg_18" clip-path="url(#clip1_888_228)">
    <rect x="46" y="27" id="svg_19" fill="white" rx="33.5486" height="67.0972" width="67.0972"/>
    <rect id="svg_20" fill="#F02D32" height="22.1421" width="67.0972" y="74.1695" x="46.06699"/>
    <g id="svg_21" clip-path="url(#clip2_888_228)">
     <path id="svg_22" fill="white" d="m81.1318,34.611c-3.6145,4.2843 -6.9636,8.8272 -8.9333,14.1328c-0.9815,2.6594 -2.1355,6.7911 -2.3079,9.6164c-0.0796,1.2004 -0.2123,2.9578 1.5054,2.6727c0.4245,-0.073 0.9351,-0.4444 1.28,-0.6964c0.9815,-0.703 1.8967,-1.2402 3.0109,-1.7376c1.2999,-0.5703 2.865,-1.0213 4.2776,-0.9285c1.658,0.0995 3.2763,0.5969 4.5297,1.7376c0.6101,0.5505 1.406,1.8504 2.3212,1.8504c1.6779,0 1.857,-5.0072 1.857,-6.1346c0,-1.658 -0.4643,-3.4023 -0.9352,-4.9873c-1.5916,-5.3454 -4.145,-10.5317 -6.6054,-15.5255z" clip-rule="evenodd" fill-rule="evenodd"/>
     <path id="svg_23" fill="black" d="m88.2544,51.7822c0.5438,-0.5438 1.0479,-0.9418 1.0479,-1.7177c1.081,-1.2335 2.0559,-2.4406 3.19,-3.6277c0.1459,0.252 1.081,0.2388 1.6248,-0.1127c0.0332,-0.0199 0.073,0 0.1128,0c0.4708,0 1.0677,0.4576 1.512,0.3448c0.4046,-0.0995 0.6036,-0.3051 0.703,-0.703c0.0398,-0.1658 -0.1591,-0.2122 -0.2453,-0.3448c0.1525,-0.1526 0.5968,0.0928 0.8157,-0.577c0.2321,-0.6897 -0.4444,-1.0346 -0.6897,-1.1606c0.1724,-0.0066 0.4974,-0.5306 0.4642,-0.8091c-0.0199,-0.1393 -0.3316,-0.4908 -0.4642,-0.5704c-0.1062,-0.0663 -0.2322,-0.1061 -0.3582,-0.1326c-0.4244,-0.073 -0.9483,0.0331 -1.3927,-0.1128c-0.053,-0.0132 -0.1127,-0.0596 -0.1127,-0.1127c-0.0067,-0.3648 0.2255,-0.9683 0.1127,-1.2667c-0.252,-0.7096 -0.3846,-1.0744 -1.1473,-1.28c-0.4178,-0.1127 -0.7096,0.0265 -1.0479,0.2321c-0.0464,0.0266 -0.0928,0.0664 -0.1194,0.1128c-0.0066,0.0199 -0.0066,0.2188 0,0.2321c0.0266,0.0464 0.0995,0.0663 0.1194,0.1127c0.2388,0.6102 0.5571,2.1488 0.3449,2.7855c-0.1459,0.4311 -0.6831,0.8887 -0.8091,1.5121c-0.1128,0.5571 -0.2587,1.2335 0,1.3794l-2.6727,3.4686c-0.4311,-0.6433 -1.1208,-0.5571 -1.8636,-0.5571l0.8754,2.9048z" clip-rule="evenodd" fill-rule="evenodd"/>
     <path id="svg_24" fill="black" d="m72.5566,47.4765c-1.3463,-0.2255 -1.2667,-0.053 -1.6249,0.4643c-1.2136,-0.0265 -2.2217,0.126 -3.369,0.6897c-0.7627,0.3714 -0.6765,1.7774 -0.8091,2.4273c-0.0067,0.0531 -0.0597,0.1194 -0.1128,0.1194c-0.252,-0.2653 -0.63,0.1061 -0.5769,0.4709c-0.524,0.0398 -1.1209,0.6499 -1.1606,0.9218c-0.1194,0.7826 -1.8504,-0.5571 -2.4406,-0.4642c-0.199,0.0331 -0.3184,0.4112 -0.3449,0.577c-0.0398,0.2387 -0.0066,0.5637 0.2255,0.7029c0.2719,0.1592 2.162,0.3051 2.2151,0.4577c0.0464,0.1459 -0.8224,0.4111 -0.9351,0.4642c-0.7163,0.3183 -0.776,0.3648 -1.0479,1.0478c-0.2852,0.703 0.7561,0.7561 1.28,0.6898c0.4709,-0.0597 1.1274,-1.1009 1.6248,-0.8091c0.4775,0.2918 0.1592,1.1937 0.1128,1.6248c-0.0597,0.5571 -0.1791,1.154 0.4709,1.154c0.6764,0 0.7494,-0.65 0.8091,-1.2667c0.0199,-0.2322 -0.0199,-0.4709 0,-0.703c0.0331,-0.3847 0.3581,-1.532 0.9284,-1.3927c0.6234,0.1525 0.3383,0.9284 1.6249,0.9284c0.2056,0 0.4244,-0.0928 0.577,-0.2255c0.1658,-0.1525 0.2652,-0.378 0.3448,-0.5902c0.0796,-0.2189 0.1128,-0.4576 0.1128,-0.6897c0,-0.2786 -0.2189,-0.4576 -0.4576,-0.4576c-0.2587,0 -0.5638,0.2255 -0.6898,0.2255c-0.0928,0 -0.1658,-0.073 -0.2454,-0.1128c-0.3514,-0.1724 -0.7626,-0.4244 -1.0345,-0.703c-0.0067,-0.0066 -0.2189,-0.3183 -0.2322,-0.3448c0.3781,-0.146 0.1327,-1.1673 -0.2387,-1.154c-0.0199,-0.073 -0.0133,-0.1592 0,-0.2388c0.0995,-0.5438 0.2918,-1.8569 0.703,-2.2018c0.6101,-0.5107 1.8503,-0.7693 2.666,-0.9218c0.0067,0.5504 0.5969,0.7494 1.0413,0.9218l0.5836,-1.6116z" clip-rule="evenodd" fill-rule="evenodd"/>
     <path id="svg_25" fill="black" d="m81.132,34.84354c-4.2511,4.25116 -6.9172,8.63486 -9.046,14.24556c4.6424,-1.7641 11.0091,-1.5718 15.5387,0.4642c-1.658,-4.6491 -3.9261,-10.3792 -6.4927,-14.70976z" clip-rule="evenodd" fill-rule="evenodd"/>
     <path id="svg_26" stroke-width="0.86216" stroke="#231F20" fill="url(#paint1_radial_888_228)" d="m79.5998,43.5177c2.4273,0 4.4699,1.7442 4.4699,4.0455c0,2.288 -2.2416,4.0853 -4.6623,4.0323c-2.9645,-0.0664 -4.3439,-1.6116 -4.3439,-3.8997c0,-2.3013 2.1089,-4.1781 4.5363,-4.1781z" clip-rule="evenodd" fill-rule="evenodd"/>
     <path id="svg_27" stroke-width="0.0199" stroke="#666666" d="m96.0869,42.5035l-0.577,0.1128l-0.8091,0.1127l-0.4708,0.345l0,0.5769"/>
     <path id="svg_28" stroke-width="0.0199" stroke="#666666" d="m96.3257,43.8824l-1.1606,0l-0.8157,0.2321l-0.2321,0.3515l0.2321,0.4643"/>
     <path id="svg_29" stroke-width="0.0199" stroke="#666666" d="m96.1997,45.6194l-0.6897,-0.2322l-0.6897,-0.1128l-0.5903,0.2321l-0.1127,0.5836"/>
     <path id="svg_30" stroke-width="0.9948" stroke="#231F20" d="m81.1318,34.611c-3.6145,4.2843 -6.9636,8.8272 -8.9333,14.1328c-0.9815,2.6594 -2.1355,6.7911 -2.3079,9.6164c-0.0796,1.2004 -0.2123,2.9578 1.5054,2.6727c0.4245,-0.073 0.9351,-0.4444 1.28,-0.6964c0.9815,-0.703 1.8967,-1.2402 3.0109,-1.7376c1.2999,-0.5703 2.865,-1.0213 4.2776,-0.9285c1.658,0.0995 3.2763,0.5969 4.5297,1.7376c0.6101,0.5505 1.406,1.8504 2.3212,1.8504c1.6779,0 1.857,-5.0072 1.857,-6.1346c0,-1.658 -0.4643,-3.4023 -0.9352,-4.9873c-1.5916,-5.3454 -4.145,-10.5317 -6.6054,-15.5255z" clip-rule="evenodd" fill-rule="evenodd"/>
    </g>
    <path id="svg_31" fill="white" d="m67.2639,83.6745c-0.8805,0 -1.6509,-0.14 -2.3112,-0.4202c-0.6504,-0.2801 -1.1556,-0.6903 -1.5158,-1.2306c-0.3602,-0.5503 -0.5403,-1.2207 -0.5403,-2.0111c0,-0.3902 0.045,-0.8004 0.1351,-1.2306c0.3501,-1.6209 1.0555,-2.8715 2.1161,-3.752c1.0605,-0.8804 2.5413,-1.3207 4.4423,-1.3207c0.6003,0 1.1356,0.035 1.6058,0.1051c0.4703,0.07 0.9055,0.1751 1.3057,0.3152l-0.5253,2.4162c-0.4002,-0.1701 -0.8304,-0.2851 -1.2906,-0.3452c-0.4503,-0.06 -0.9205,-0.09 -1.4108,-0.09c-0.8604,0 -1.5858,0.2101 -2.1761,0.6303c-0.5903,0.4202 -0.9855,1.1006 -1.1856,2.0411c-0.0901,0.3902 -0.1351,0.7304 -0.1351,1.0205c0,0.5103 0.1501,0.8855 0.4502,1.1256c0.3102,0.2301 0.8255,0.3452 1.5458,0.3452c0.2602,0 0.5053,-0.015 0.7354,-0.045c0.2401,-0.0401 0.4703,-0.0901 0.6904,-0.1501l0.3001,-1.4108l-1.921,0l0.3752,-1.7409l4.2773,0l-1.0356,4.8626c-0.4202,0.2301 -0.9605,0.4352 -1.6208,0.6153c-0.6504,0.1801 -1.4208,0.2701 -2.3112,0.2701zm9.3103,0c-0.8204,0 -1.5157,-0.135 -2.086,-0.4052c-0.5703,-0.2801 -1.0056,-0.6553 -1.3057,-1.1256c-0.2902,-0.4802 -0.4353,-1.0205 -0.4353,-1.6208c0,-0.2601 0.0301,-0.5303 0.0901,-0.8104l1.2456,-5.8531l2.8215,0l-1.2006,5.643c-0.06,0.2801 -0.0901,0.5252 -0.0901,0.7353c0,0.3702 0.1151,0.6354 0.3452,0.7955c0.2301,0.16 0.6053,0.2401 1.1256,0.2401c0.6403,0 1.1206,-0.1351 1.4408,-0.4052c0.3201,-0.2702 0.5453,-0.7254 0.6753,-1.3657l1.2007,-5.643l2.8214,0l-1.2606,5.9431c-0.2802,1.3607 -0.8605,2.3462 -1.7409,2.9566c-0.8805,0.6103 -2.0961,0.9154 -3.647,0.9154zm7.5408,0c-0.4202,0 -0.8154,-0.03 -1.1856,-0.09c-0.3702,-0.05 -0.7154,-0.1351 -1.0356,-0.2551l0.4953,-2.3413c0.4602,0.2001 1.0105,0.3002 1.6509,0.3002c0.6003,0 1.0255,-0.1101 1.2756,-0.3302c0.2502,-0.2201 0.4252,-0.5853 0.5253,-1.0955l1.2757,-6.0032l2.8214,0l-1.3657,6.4534c-0.2301,1.0906 -0.7053,1.926 -1.4257,2.5063c-0.7204,0.5703 -1.7309,0.8554 -3.0316,0.8554z"/>
    <path id="svg_32" fill="black" d="m66.9575,73.7443c-0.4202,0 -0.8154,-0.03 -1.1856,-0.09c-0.3702,-0.05 -0.7154,-0.1351 -1.0356,-0.2551l0.4953,-2.3413c0.4602,0.2001 1.0105,0.3002 1.6509,0.3002c0.6003,0 1.0255,-0.1101 1.2756,-0.3302c0.2502,-0.2201 0.4252,-0.5853 0.5253,-1.0956l1.2757,-6.0031l2.8214,0l-1.3657,6.4534c-0.2301,1.0905 -0.7053,1.926 -1.4257,2.5063c-0.7204,0.5703 -1.7309,0.8554 -3.0316,0.8554zm9.519,0c-0.8205,0 -1.5158,-0.135 -2.0861,-0.4052c-0.5703,-0.2801 -1.0056,-0.6553 -1.3057,-1.1256c-0.2902,-0.4802 -0.4352,-1.0205 -0.4352,-1.6208c0,-0.2601 0.03,-0.5303 0.09,-0.8104l1.2457,-5.8531l2.8214,0l-1.2006,5.643c-0.06,0.2801 -0.09,0.5252 -0.09,0.7353c0,0.3702 0.115,0.6354 0.3451,0.7955c0.2302,0.16 0.6054,0.2401 1.1256,0.2401c0.6404,0 1.1206,-0.1351 1.4408,-0.4052c0.3201,-0.2702 0.5453,-0.7254 0.6753,-1.3657l1.2007,-5.643l2.8214,0l-1.2606,5.9431c-0.2802,1.3607 -0.8605,2.3462 -1.7409,2.9566c-0.8805,0.6103 -2.0961,0.9154 -3.6469,0.9154zm10.8124,0c-0.8804,0 -1.6508,-0.14 -2.3112,-0.4202c-0.6503,-0.2801 -1.1556,-0.6903 -1.5158,-1.2306c-0.3602,-0.5503 -0.5403,-1.2207 -0.5403,-2.0111c0,-0.3902 0.0451,-0.8004 0.1351,-1.2306c0.3502,-1.6209 1.0556,-2.8715 2.1161,-3.752c1.0606,-0.8804 2.5413,-1.3207 4.4423,-1.3207c0.6003,0 1.1356,0.035 1.6059,0.1051c0.4702,0.07 0.9054,0.1751 1.3057,0.3151l-0.5253,2.4163c-0.4002,-0.1701 -0.8305,-0.2851 -1.2907,-0.3452c-0.4502,-0.06 -0.9205,-0.09 -1.4107,-0.09c-0.8605,0 -1.5859,0.2101 -2.1762,0.6303c-0.5903,0.4202 -0.9855,1.1006 -1.1856,2.0411c-0.09,0.3902 -0.1351,0.7304 -0.1351,1.0205c0,0.5103 0.1501,0.8855 0.4503,1.1256c0.3101,0.2301 0.8254,0.3452 1.5458,0.3452c0.2601,0 0.5052,-0.015 0.7354,-0.045c0.2401,-0.0401 0.4702,-0.0901 0.6903,-0.1501l0.3002,-1.4108l-1.921,0l0.3752,-1.7409l4.2772,0l-1.0355,4.8626c-0.4202,0.2301 -0.9605,0.4352 -1.6209,0.6153c-0.6503,0.1801 -1.4207,0.2701 -2.3112,0.2701z"/>
   </g>
   <rect id="svg_33" stroke-width="0.67097" stroke="black" rx="33.2131" height="66.4262" width="66.4262" y="27.33549" x="46.33549"/>
   <path id="svg_34" fill="black" d="m133.4467,92.8077c-2.1732,0 -3.8133,-0.5877 -4.9203,-1.7631c-1.0934,-1.1754 -1.6401,-2.7677 -1.6401,-4.7768c0,-1.4488 0.2391,-2.6994 0.7175,-3.7518c0.4784,-1.0661 1.2027,-1.8861 2.1731,-2.4601c0.9841,-0.5741 2.2279,-0.8611 3.7313,-0.8611c0.779,0 1.4829,0.0547 2.1116,0.164c0.6424,0.0957 1.2438,0.2392 1.8041,0.4305l0,1.9272c-1.1207,-0.4101 -2.3644,-0.6151 -3.7312,-0.6151c-1.6811,0 -2.8634,0.4442 -3.5467,1.3326c-0.6697,0.8884 -1.0046,2.1663 -1.0046,3.8338c0,1.5171 0.3554,2.672 1.0661,3.4647c0.7107,0.7927 1.8109,1.1891 3.3007,1.1891c1.1754,0 2.1253,-0.1367 2.8497,-0.4101l0,-3.6902l-3.3007,0l0,-1.4556l5.2073,0l0,6.3554c-0.4237,0.2734 -1.0319,0.5262 -1.8246,0.7586c-0.7791,0.2186 -1.7768,0.328 -2.9932,0.328zm12.6213,0c-1.818,0 -3.2326,-0.4374 -4.244,-1.3121c-0.9977,-0.8747 -1.4966,-2.139 -1.4966,-3.7927l0,-8.3031l2.2347,0l0,8.221c0,1.1071 0.3007,1.934 0.9021,2.4807c0.615,0.5467 1.4829,0.8201 2.6038,0.8201c1.107,0 1.961,-0.2734 2.562,-0.8201c0.616,-0.5467 0.923,-1.3736 0.923,-2.4807l0,-8.221l2.214,0l0,8.3031c0,1.6537 -0.499,2.918 -1.496,3.7927c-0.998,0.8747 -2.399,1.3121 -4.203,1.3121zm10.226,0c-1.12,0 -2.077,-0.1572 -2.87,-0.4715l0,-1.8862c0.328,0.1367 0.711,0.2529 1.148,0.3486c0.451,0.082 0.896,0.123 1.333,0.123c0.916,0 1.551,-0.1845 1.907,-0.5536c0.369,-0.3827 0.553,-0.9909 0.553,-1.8246l0,-9.1436l2.235,0l0,9.5126c0,1.2574 -0.362,2.221 -1.087,2.8907c-0.711,0.6697 -1.783,1.0046 -3.219,1.0046zm5.669,-0.205l5.044,-13.2029l2.501,0l5.002,13.2029l-2.296,0l-1.312,-3.4032l-5.31,0l-1.312,3.4032l-2.317,0zm3.978,-5.1254l4.592,0l-2.296,-6.0479l-2.296,6.0479zm10.767,5.1254l0,-13.2029l6.068,0c1.476,0 2.549,0.3827 3.219,1.1481c0.683,0.7517 1.025,1.7768 1.025,3.0752c0,0.9294 -0.232,1.7221 -0.697,2.3781c-0.465,0.6561 -1.135,1.1139 -2.009,1.3736c0.246,0.1777 0.437,0.3691 0.574,0.5741c0.136,0.205 0.273,0.4783 0.41,0.82l1.66,3.8338l-2.296,0l-1.619,-3.6903c-0.151,-0.3553 -0.335,-0.6082 -0.554,-0.7585c-0.205,-0.1504 -0.56,-0.2255 -1.066,-0.2255l-2.481,0l0,4.6743l-2.234,0zm2.234,-6.4785l3.24,0c0.806,0 1.442,-0.1981 1.906,-0.5945c0.465,-0.3963 0.697,-1.0319 0.697,-1.9066c0,-1.6538 -0.799,-2.4807 -2.398,-2.4807l-3.445,0l0,4.9818zm8.968,6.4785l5.044,-13.2029l2.501,0l5.002,13.2029l-2.296,0l-1.312,-3.4032l-5.31,0l-1.312,3.4032l-2.317,0zm3.978,-5.1254l4.592,0l-2.296,-6.0479l-2.296,6.0479zm12.449,5.1254l0,-11.4603l-4.224,0l0,-1.7426l10.661,0l0,1.7426l-4.203,0l0,11.4603l-2.234,0z"/>
   <path id="svg_35" fill="black" d="m128.5382,49.4269c-0.6196,0 -1.2014,-0.0454 -1.7455,-0.1361c-0.544,-0.0755 -1.0427,-0.204 -1.496,-0.3853l0.6573,-3.0602c0.3325,0.1511 0.7103,0.272 1.1334,0.3627c0.4383,0.0756 0.8916,0.1133 1.3601,0.1133c0.68,0 1.209,-0.0755 1.5868,-0.2266c0.3929,-0.1663 0.6876,-0.4156 0.884,-0.7481c0.2116,-0.3476 0.3703,-0.7934 0.476,-1.3374l1.9948,-9.40722l3.6496,0l-2.1308,10.08722c-0.3325,1.5264 -0.9974,2.6975 -1.9948,3.5136c-0.9974,0.816 -2.4557,1.2241 -4.3749,1.2241zm6.3748,-0.2267l8.6592,-14.59822l3.9438,0l2.494,14.59822l-3.536,0l-0.6123,-3.3096l-5.0097,0l-1.9947,3.3096l-3.9443,0zm7.0044,-6.007l3.8309,0l-0.8387,-5.0777l-2.9922,5.0777zm12.4746,6.007l-2.494,-14.59822l3.672,0l1.519,10.42732l5.939,-10.42732l3.967,0l-8.659,14.59822l-3.944,0zm7.838,0l8.659,-14.59822l3.944,0l2.494,14.59822l-3.537,0l-0.612,-3.3096l-5.009,0l-1.995,3.3096l-3.944,0zm7.004,-6.007l3.831,0l-0.839,-5.0777l-2.992,5.0777zm-36.5476,27.2337c-1.2392,0 -2.3197,-0.2343 -3.2415,-0.7028c-0.9067,-0.4835 -1.5641,-1.156 -1.9721,-2.0174c-0.408,-0.8765 -0.4912,-1.8966 -0.2494,-3.0602l1.9041,-9.0445l3.6496,0l-1.8361,8.7045c-0.2116,1.0125 -0.1436,1.7681 0.204,2.2668c0.3627,0.4987 1.0956,0.748 2.1988,0.748c1.1183,0 1.9646,-0.2493 2.5388,-0.748c0.5743,-0.4987 0.9672,-1.2543 1.1787,-2.2668l1.8362,-8.7045l3.6495,0l-1.9041,9.0445c-0.4231,1.9646 -1.3148,3.4229 -2.6748,4.3749c-1.3601,0.937 -3.1207,1.4055 -5.2817,1.4055zm13.5686,0c-0.9674,0 -1.859,-0.0756 -2.675,-0.2267c-0.8009,-0.136 -1.4734,-0.34 -2.0175,-0.6121l0.6574,-3.1055c0.6196,0.2871 1.3072,0.5214 2.0628,0.7027c0.7707,0.1814 1.5188,0.272 2.2443,0.272c0.907,0 1.602,-0.0831 2.085,-0.2493c0.484,-0.1662 0.786,-0.5289 0.907,-1.0881c0.076,-0.3778 0.03,-0.68 -0.136,-0.9067c-0.166,-0.2267 -0.484,-0.4231 -0.952,-0.5894c-0.453,-0.1813 -1.073,-0.3929 -1.859,-0.6347c-1.4053,-0.4382 -2.3422,-0.9747 -2.8107,-1.6094c-0.4533,-0.6498 -0.5591,-1.549 -0.3173,-2.6975c0.3022,-1.3903 1.0276,-2.4557 2.1761,-3.1962c1.1639,-0.7405 2.7199,-1.1107 4.6699,-1.1107c0.846,0 1.654,0.068 2.425,0.204c0.771,0.1209 1.39,0.2645 1.859,0.4307l-0.68,3.1282c-0.605,-0.2569 -1.224,-0.4458 -1.859,-0.5667c-0.619,-0.1209 -1.239,-0.1814 -1.859,-0.1814c-0.816,0 -1.496,0.0756 -2.04,0.2267c-0.529,0.1511 -0.854,0.4987 -0.974,1.0428c-0.061,0.3173 -0.023,0.5742 0.113,0.7707c0.136,0.1813 0.408,0.3475 0.816,0.4987c0.423,0.1511 0.997,0.3324 1.723,0.544c1.133,0.3173 1.964,0.7027 2.493,1.1561c0.544,0.4382 0.877,0.952 0.998,1.5414c0.12,0.5742 0.105,1.2241 -0.046,1.9494c-0.272,1.2846 -0.997,2.3273 -2.176,3.1282c-1.164,0.7858 -2.773,1.1788 -4.828,1.1788zm8.017,-0.2267l3.083,-14.5982l10.767,0l-0.59,2.8108l-7.117,0l-0.658,3.0602l6.279,0l-0.589,2.8562l-6.279,0l-0.657,3.0601l7.117,0l-0.589,2.8109l-10.767,0zm12.529,0l3.083,-14.5982l7.299,0c0.967,0 1.783,0.2115 2.448,0.6347c0.68,0.408 1.156,0.9898 1.428,1.7454c0.287,0.7405 0.318,1.617 0.091,2.6295c-0.197,0.9823 -0.627,1.8437 -1.292,2.5842c-0.65,0.7404 -1.443,1.292 -2.38,1.6547c0.166,0.1663 0.287,0.3552 0.362,0.5667c0.091,0.1965 0.174,0.4761 0.25,0.8387l0.906,3.9443l-3.808,0l-0.861,-3.7176c-0.076,-0.3476 -0.204,-0.5818 -0.386,-0.7027c-0.166,-0.136 -0.445,-0.204 -0.838,-0.204l-1.678,0l-0.974,4.6243l-3.65,0zm5.214,-7.4351l2.697,0c0.71,0 1.3,-0.1738 1.768,-0.5214c0.484,-0.3627 0.801,-0.9067 0.952,-1.6321c0.167,-0.7254 0.151,-1.2694 -0.045,-1.6321c-0.181,-0.3778 -0.71,-0.5667 -1.587,-0.5667l-2.856,0l-0.929,4.3523zm21.054,7.6618c-1.587,0 -2.901,-0.2872 -3.944,-0.8614c-1.028,-0.5743 -1.738,-1.4054 -2.131,-2.4935c-0.393,-1.1032 -0.423,-2.4255 -0.091,-3.9669c0.529,-2.433 1.587,-4.3296 3.174,-5.6897c1.587,-1.3601 3.733,-2.0401 6.438,-2.0401c0.891,0 1.685,0.0529 2.38,0.1587c0.695,0.1058 1.345,0.2644 1.949,0.476l-0.68,3.1282c-0.589,-0.2418 -1.216,-0.408 -1.881,-0.4987c-0.65,-0.0907 -1.345,-0.136 -2.086,-0.136c-1.556,0 -2.788,0.3778 -3.695,1.1334c-0.906,0.7405 -1.533,1.8965 -1.881,3.4682c-0.332,1.5112 -0.264,2.5917 0.204,3.2415c0.484,0.6498 1.458,0.9747 2.924,0.9747c0.438,0 0.892,-0.0302 1.36,-0.0906c0.469,-0.0756 0.862,-0.1663 1.179,-0.2721l0.589,-2.7654l-3.15,0l0.476,-2.2895l6.211,0l-1.542,7.2311c-0.589,0.3324 -1.367,0.6347 -2.335,0.9067c-0.967,0.2569 -2.123,0.3854 -3.468,0.3854zm7.468,-0.2267l3.083,-14.5982l7.299,0c0.968,0 1.784,0.2115 2.448,0.6347c0.681,0.408 1.157,0.9898 1.429,1.7454c0.287,0.7405 0.317,1.617 0.09,2.6295c-0.196,0.9823 -0.627,1.8437 -1.292,2.5842c-0.65,0.7404 -1.443,1.292 -2.38,1.6547c0.166,0.1663 0.287,0.3552 0.363,0.5667c0.09,0.1965 0.174,0.4761 0.249,0.8387l0.907,3.9443l-3.808,0l-0.862,-3.7176c-0.075,-0.3476 -0.204,-0.5818 -0.385,-0.7027c-0.166,-0.136 -0.446,-0.204 -0.839,-0.204l-1.677,0l-0.975,4.6243l-3.65,0zm5.214,-7.4351l2.698,0c0.71,0 1.299,-0.1738 1.768,-0.5214c0.483,-0.3627 0.801,-0.9067 0.952,-1.6321c0.166,-0.7254 0.151,-1.2694 -0.046,-1.6321c-0.181,-0.3778 -0.71,-0.5667 -1.586,-0.5667l-2.857,0l-0.929,4.3523zm15.399,7.6618c-1.451,0 -2.667,-0.2721 -3.649,-0.8161c-0.968,-0.544 -1.64,-1.3676 -2.018,-2.4708c-0.378,-1.1032 -0.385,-2.4935 -0.023,-4.1709c0.575,-2.7051 1.58,-4.647 3.015,-5.8257c1.436,-1.1787 3.4,-1.7681 5.894,-1.7681c1.451,0 2.66,0.272 3.627,0.816c0.982,0.529 1.655,1.3526 2.017,2.4709c0.378,1.1182 0.378,2.5539 0,4.3069c-0.544,2.5539 -1.541,4.4354 -2.992,5.6443c-1.436,1.209 -3.393,1.8135 -5.871,1.8135zm0.657,-3.1056c1.225,0 2.192,-0.3475 2.902,-1.0427c0.725,-0.7103 1.247,-1.8134 1.564,-3.3095c0.242,-1.1334 0.325,-2.025 0.249,-2.6748c-0.075,-0.6499 -0.347,-1.1108 -0.816,-1.3828c-0.453,-0.272 -1.126,-0.408 -2.017,-0.408c-1.239,0 -2.214,0.34 -2.924,1.02c-0.711,0.665 -1.239,1.8135 -1.587,3.4456c-0.212,1.0427 -0.28,1.889 -0.204,2.5388c0.075,0.6347 0.34,1.0956 0.793,1.3827c0.454,0.2872 1.134,0.4307 2.04,0.4307zm15.077,3.1056c-1.239,0 -2.32,-0.2343 -3.242,-0.7028c-0.906,-0.4835 -1.564,-1.156 -1.972,-2.0174c-0.408,-0.8765 -0.491,-1.8966 -0.249,-3.0602l1.904,-9.0445l3.65,0l-1.836,8.7045c-0.212,1.0125 -0.144,1.7681 0.204,2.2668c0.362,0.4987 1.095,0.748 2.198,0.748c1.119,0 1.965,-0.2493 2.539,-0.748c0.574,-0.4987 0.967,-1.2543 1.179,-2.2668l1.836,-8.7045l3.65,0l-1.905,9.0445c-0.423,1.9646 -1.314,3.4229 -2.674,4.3749c-1.36,0.937 -3.121,1.4055 -5.282,1.4055zm8.989,-0.2267l3.083,-14.5982l6.982,0c1.133,0 2.04,0.2342 2.72,0.7027c0.695,0.4685 1.164,1.0956 1.406,1.8814c0.256,0.7859 0.287,1.6624 0.09,2.6295c-0.302,1.5717 -0.967,2.8184 -1.995,3.7402c-1.027,0.9068 -2.417,1.3601 -4.17,1.3601l-3.559,0l-0.907,4.2843l-3.65,0zm5.146,-7.0951l2.63,0c0.891,0 1.549,-0.2116 1.972,-0.6347c0.423,-0.4232 0.702,-0.9823 0.838,-1.6774c0.167,-0.8463 0.129,-1.4508 -0.113,-1.8135c-0.227,-0.3778 -0.756,-0.5667 -1.587,-0.5667l-2.743,0l-0.997,4.6923z"/>
  </g>
 </g>
</svg>