<svg width="206" height="104" viewBox="0 0 206 104" fill="none" xmlns="http://www.w3.org/2000/svg">
<path d="M16.334 73.9568C14.4319 74.1165 12.8906 73.884 11.7101 73.2595C10.5508 72.6332 9.69595 71.7046 9.14567 70.4737C8.59361 69.2218 8.24661 67.7504 8.10468 66.0596L7.33024 56.8342C7.18121 55.0589 7.27538 53.5186 7.61276 52.2132C7.94837 50.8867 8.63641 49.8286 9.67687 49.0389C10.7385 48.2474 12.2203 47.7719 14.1225 47.6122C15.9612 47.4578 17.4241 47.6436 18.5112 48.1696C19.6194 48.6938 20.4318 49.4983 20.9485 50.5829C21.4864 51.6658 21.8174 52.947 21.9416 54.4264L22.1226 56.5822L17.0502 57.008L16.848 54.5986C16.7983 54.0068 16.7205 53.46 16.6145 52.9581C16.5067 52.435 16.2916 52.0274 15.9691 51.7352C15.666 51.4201 15.1657 51.2919 14.4682 51.3504C13.7708 51.4089 13.2777 51.6206 12.9891 51.9854C12.7004 52.3501 12.5369 52.8108 12.4985 53.3674C12.4583 53.9029 12.4657 54.4982 12.5207 55.1534L13.5001 66.8199C13.5604 67.5384 13.6665 68.168 13.8183 68.7087C13.9894 69.2264 14.246 69.6199 14.5878 69.8892C14.949 70.1356 15.4361 70.233 16.049 70.1816C16.7253 70.1248 17.1876 69.9264 17.4357 69.5863C17.7032 69.2233 17.8456 68.7644 17.8629 68.2095C17.9013 67.6529 17.8948 67.0682 17.8433 66.4553L17.6331 63.9508L22.7054 63.525L22.8837 65.649C23.0097 67.1496 22.9101 68.4988 22.585 69.6967C22.2581 70.8735 21.6053 71.8435 20.6264 72.6068C19.6458 73.3489 18.215 73.7989 16.334 73.9568ZM32.6206 72.5896C30.7396 72.7475 29.2212 72.5344 28.0654 71.9504C26.9096 71.3663 26.0363 70.4712 25.4455 69.2651C24.8741 68.036 24.5148 66.5444 24.3675 64.7902L23.5638 55.2161C23.4165 53.4619 23.5231 51.9418 23.8834 50.6558C24.2648 49.368 24.9775 48.3504 26.0215 47.603C27.0655 46.8556 28.528 46.4029 30.409 46.245C32.3112 46.0853 33.8401 46.2975 34.9959 46.8816C36.1711 47.4427 37.0435 48.3273 37.6131 49.5352C38.2021 50.7202 38.5702 52.1898 38.7175 53.944L39.5212 63.5181C39.6685 65.2723 39.5523 66.8038 39.1726 68.1127C38.8123 69.3987 38.1005 70.4269 37.0371 71.1972C35.9949 71.9658 34.5227 72.4299 32.6206 72.5896ZM32.3039 68.817C32.9802 68.7603 33.4644 68.5706 33.7566 68.2481C34.047 67.9045 34.2238 67.4746 34.2869 66.9585C34.3482 66.4213 34.354 65.8567 34.3043 65.265L33.2851 53.123C33.2354 52.5312 33.1364 51.9861 32.9882 51.4878C32.8399 50.9894 32.5948 50.6056 32.253 50.3363C31.9094 50.0459 31.3994 49.9291 30.7231 49.9859C30.089 50.0391 29.6268 50.2375 29.3364 50.5812C29.0442 50.9037 28.8666 51.323 28.8035 51.8391C28.7404 52.3552 28.7337 52.9091 28.7833 53.5009L29.8026 65.6429C29.8523 66.2346 29.9416 66.7912 30.0705 67.3124C30.2187 67.8108 30.4647 68.2052 30.8083 68.4956C31.1502 68.7649 31.6487 68.872 32.3039 68.817ZM42.3293 71.4234L40.6175 45.7073L46.1654 45.2416L50.6956 61.1753L52.7278 44.6907L58.0855 44.2409L60.685 69.8825L56.8807 70.2019L55.0075 52.8319L53.2032 70.5106L49.9379 70.7847L45.0423 53.5407L46.1653 71.1014L42.3293 71.4234ZM63.1042 69.6794L61.3924 43.9633L66.9403 43.4976L71.4705 59.4313L73.5027 42.9467L78.8604 42.4969L81.4599 68.1385L77.6556 68.4579L75.7824 51.0879L73.9781 68.7666L70.7128 69.0407L65.8172 51.7968L66.9402 69.3574L63.1042 69.6794ZM91.2316 67.6694C89.2872 67.8326 87.7486 67.6319 86.6157 67.0672C85.4811 66.4814 84.6395 65.5836 84.091 64.3739C83.5618 63.1413 83.2218 61.6268 83.071 59.8303L81.5967 42.2672L86.7642 41.8335L88.2997 60.1257C88.353 60.7597 88.4476 61.3796 88.5835 61.9855C88.7407 62.5895 88.9937 63.0684 89.3427 63.4222C89.7128 63.7743 90.236 63.9219 90.9123 63.8651C91.6097 63.8066 92.101 63.5738 92.3861 63.1668C92.6923 62.7579 92.862 62.2435 92.8951 61.6235C92.9281 61.0035 92.9181 60.3765 92.8649 59.7424L91.3293 41.4502L96.4968 41.0164L97.9711 58.5795C98.1219 60.376 98.0286 61.9269 97.6913 63.2322C97.3732 64.5147 96.7037 65.5393 95.6826 66.3061C94.6597 67.0517 93.1761 67.5062 91.2316 67.6694ZM101.034 66.4954L98.8784 40.8165L102.524 40.5105L109.354 53.4098L108.231 40.0314L112.542 39.6695L114.698 65.3483L111.21 65.6411L104.312 51.9175L105.504 66.1201L101.034 66.4954ZM117.383 65.1229L115.228 39.4441L120.427 39.0076L122.582 64.6865L117.383 65.1229ZM127.656 64.2605L125.828 42.4811L121.865 42.8137L121.538 38.9144L134.662 37.8126L134.99 41.712L131.09 42.0393L132.919 63.8188L127.656 64.2605ZM141.24 63.1202L140.385 52.9438L134.075 37.8619L138.989 37.4494L142.506 46.253L144.315 37.0023L149.07 36.6031L145.426 52.5207L146.28 62.6971L141.24 63.1202ZM158.81 61.6453L156.655 35.9664L162.932 35.4395C165.109 35.2567 166.823 35.4001 168.076 35.8696C169.348 36.3162 170.288 37.1206 170.896 38.2827C171.503 39.4237 171.884 40.9241 172.04 42.784L172.825 52.1361C172.985 54.0383 172.863 55.6235 172.458 56.8919C172.054 58.1603 171.274 59.141 170.119 59.8339C168.984 60.5039 167.349 60.9285 165.214 61.1077L158.81 61.6453ZM163.735 57.5604L164.845 57.4672C165.817 57.3856 166.491 57.18 166.868 56.8504C167.264 56.4979 167.49 56.0213 167.546 55.4207C167.6 54.7989 167.59 54.0442 167.516 53.1565L166.627 42.568C166.552 41.6803 166.419 40.9785 166.227 40.4625C166.054 39.9237 165.745 39.5452 165.301 39.3271C164.878 39.1071 164.202 39.0362 163.272 39.1143L162.194 39.2048L163.735 57.5604ZM174.107 60.3612L176.928 34.2645L182.73 33.7775L189.831 59.0412L184.98 59.4484L183.587 53.8825L179.529 54.2232L179.02 59.9487L174.107 60.3612ZM179.736 50.9813L182.811 50.7232L180.388 40.487L179.736 50.9813ZM193.163 58.7615L192.309 48.585L185.999 33.5031L190.913 33.0906L194.429 41.8942L196.239 32.6435L200.994 32.2443L197.35 48.1619L198.204 58.3383L193.163 58.7615Z" fill="#0A0A0A"/>
<mask id="path-2-outside-1_1155_87" maskUnits="userSpaceOnUse" x="3.50114" y="29.9456" width="198.652" height="44.3813" fill="black">
<rect fill="white" x="3.50114" y="29.9456" width="198.652" height="44.3813"/>
<path d="M13.9278 72.9959C12.0256 73.1556 10.4843 72.9231 9.30384 72.2986C8.14451 71.6723 7.2897 70.7437 6.73942 69.5128C6.18736 68.2609 5.84036 66.7895 5.69843 65.0987L4.92399 55.8733C4.77496 54.098 4.86913 52.5577 5.20651 51.2523C5.54212 49.9258 6.23016 48.8677 7.27062 48.078C8.33222 47.2866 9.81409 46.811 11.7162 46.6513C13.555 46.4969 15.0179 46.6828 16.1049 47.2087C17.2131 47.7329 18.0256 48.5374 18.5423 49.622C19.0802 50.7049 19.4112 51.9861 19.5354 53.4655L19.7164 55.6213L14.644 56.0471L14.4417 53.6377C14.3921 53.0459 14.3142 52.4991 14.2082 51.9972C14.1005 51.4741 13.8853 51.0665 13.5628 50.7743C13.2597 50.4592 12.7594 50.331 12.062 50.3895C11.3645 50.4481 10.8715 50.6597 10.5828 51.0245C10.2942 51.3893 10.1307 51.8499 10.0923 52.4065C10.0521 52.942 10.0595 53.5373 10.1145 54.1925L11.0938 65.859C11.1542 66.5775 11.2602 67.2072 11.412 67.7478C11.5832 68.2655 11.8397 68.659 12.1816 68.9283C12.5428 69.1747 13.0299 69.2721 13.6428 69.2207C14.3191 69.1639 14.7813 68.9655 15.0294 68.6254C15.2969 68.2624 15.4393 67.8035 15.4566 67.2486C15.495 66.692 15.4885 66.1073 15.4371 65.4944L15.2268 62.9899L20.2992 62.5641L20.4775 64.6881C20.6034 66.1887 20.5039 67.5379 20.1788 68.7358C19.8519 69.9126 19.199 70.8826 18.2202 71.6459C17.2396 72.388 15.8088 72.838 13.9278 72.9959ZM30.2143 71.6287C28.3333 71.7866 26.8149 71.5735 25.6591 70.9895C24.5033 70.4054 23.6301 69.5103 23.0393 68.3042C22.4679 67.0751 22.1085 65.5835 21.9613 63.8293L21.1576 54.2552C21.0103 52.501 21.1168 50.9809 21.4771 49.6949C21.8585 48.4072 22.5712 47.3896 23.6153 46.6421C24.6593 45.8947 26.1218 45.442 28.0028 45.2841C29.9049 45.1244 31.4339 45.3366 32.5897 45.9207C33.7648 46.4818 34.6372 47.3664 35.2069 48.5743C35.7959 49.7593 36.164 51.2289 36.3112 52.9831L37.115 62.5572C37.2622 64.3114 37.146 65.8429 36.7664 67.1518C36.4061 68.4378 35.6942 69.466 34.6309 70.2363C33.5886 71.0049 32.1164 71.469 30.2143 71.6287ZM29.8976 67.8561C30.5739 67.7994 31.0582 67.6097 31.3504 67.2872C31.6408 66.9436 31.8175 66.5137 31.8806 65.9976C31.9419 65.4604 31.9478 64.8959 31.8981 64.3041L30.8788 52.1621C30.8291 51.5703 30.7302 51.0253 30.5819 50.5269C30.4337 50.0285 30.1886 49.6447 29.8467 49.3754C29.5031 49.085 28.9931 48.9682 28.3168 49.025C27.6828 49.0782 27.2205 49.2766 26.9301 49.6203C26.6379 49.9428 26.4603 50.3621 26.3972 50.8782C26.3341 51.3943 26.3274 51.9482 26.3771 52.54L27.3964 64.682C27.446 65.2738 27.5353 65.8303 27.6642 66.3516C27.8125 66.8499 28.0584 67.2443 28.4021 67.5347C28.7439 67.804 29.2424 67.9111 29.8976 67.8561ZM39.9231 70.4625L38.2113 44.7464L43.7592 44.2807L48.2893 60.2144L50.3215 43.7298L55.6792 43.28L58.2787 68.9216L54.4744 69.241L52.6013 51.871L50.797 69.5497L47.5316 69.8238L42.6361 52.5798L43.7591 70.1405L39.9231 70.4625ZM60.698 68.7185L58.9862 43.0024L64.5341 42.5367L69.0642 58.4704L71.0965 41.9858L76.4541 41.536L79.0536 67.1776L75.2493 67.497L73.3762 50.127L71.5719 67.8057L68.3065 68.0798L63.411 50.8359L64.534 68.3965L60.698 68.7185ZM88.8254 66.7085C86.881 66.8717 85.3423 66.671 84.2095 66.1063C83.0748 65.5205 82.2332 64.6227 81.6847 63.413C81.1556 62.1804 80.8156 60.6659 80.6648 58.8694L79.1904 41.3063L84.3579 40.8726L85.8935 59.1648C85.9467 59.7988 86.0413 60.4188 86.1773 61.0246C86.3344 61.6286 86.5875 62.1075 86.9364 62.4613C87.3065 62.8134 87.8297 62.961 88.506 62.9042C89.2035 62.8457 89.6948 62.6129 89.9798 62.2059C90.2861 61.7971 90.4557 61.2826 90.4888 60.6626C90.5219 60.0426 90.5118 59.4156 90.4586 58.7816L88.923 40.4893L94.0905 40.0555L95.5649 57.6186C95.7157 59.4151 95.6224 60.966 95.285 62.2713C94.967 63.5538 94.2974 64.5784 93.2763 65.3452C92.2534 66.0909 90.7698 66.5453 88.8254 66.7085ZM98.6278 65.5345L96.4721 39.8556L100.118 39.5496L106.947 52.4489L105.824 39.0705L110.136 38.7086L112.291 64.3875L108.804 64.6802L101.906 50.9566L103.098 65.1592L98.6278 65.5345ZM114.977 64.162L112.821 38.4832L118.021 38.0467L120.176 63.7256L114.977 64.162ZM125.25 63.2996L123.421 41.5202L119.459 41.8528L119.131 37.9535L132.256 36.8517L132.583 40.7511L128.684 41.0784L130.512 62.8579L125.25 63.2996ZM138.833 62.1593L137.979 51.9829L131.669 36.901L136.583 36.4885L140.099 45.2921L141.909 36.0414L146.664 35.6422L143.02 51.5598L143.874 61.7362L138.833 62.1593ZM156.404 60.6844L154.248 35.0055L160.525 34.4786C162.702 34.2958 164.417 34.4392 165.67 34.9087C166.942 35.3553 167.882 36.1597 168.49 37.3218C169.097 38.4628 169.478 39.9632 169.634 41.8231L170.419 51.1752C170.579 53.0774 170.457 54.6626 170.052 55.931C169.648 57.1995 168.868 58.1801 167.713 58.873C166.578 59.543 164.942 59.9676 162.808 60.1468L156.404 60.6844ZM161.329 56.5995L162.438 56.5064C163.411 56.4247 164.085 56.2191 164.462 55.8895C164.858 55.537 165.084 55.0605 165.14 54.4598C165.194 53.838 165.184 53.0833 165.109 52.1956L164.221 41.6071C164.146 40.7194 164.013 40.0176 163.82 39.5016C163.647 38.9628 163.339 38.5843 162.895 38.3662C162.472 38.1462 161.796 38.0753 160.866 38.1534L159.788 38.2439L161.329 56.5995ZM171.7 59.4003L174.522 33.3036L180.323 32.8166L187.425 58.0803L182.574 58.4875L181.181 52.9217L177.123 53.2623L176.614 58.9878L171.7 59.4003ZM177.33 50.0204L180.405 49.7623L177.981 39.5261L177.33 50.0204ZM190.757 57.8006L189.903 47.6241L183.593 32.5422L188.506 32.1297L192.023 40.9333L193.832 31.6826L198.588 31.2834L194.944 47.201L195.798 57.3774L190.757 57.8006Z"/>
</mask>
<path d="M13.9278 72.9959C12.0256 73.1556 10.4843 72.9231 9.30384 72.2986C8.14451 71.6723 7.2897 70.7437 6.73942 69.5128C6.18736 68.2609 5.84036 66.7895 5.69843 65.0987L4.92399 55.8733C4.77496 54.098 4.86913 52.5577 5.20651 51.2523C5.54212 49.9258 6.23016 48.8677 7.27062 48.078C8.33222 47.2866 9.81409 46.811 11.7162 46.6513C13.555 46.4969 15.0179 46.6828 16.1049 47.2087C17.2131 47.7329 18.0256 48.5374 18.5423 49.622C19.0802 50.7049 19.4112 51.9861 19.5354 53.4655L19.7164 55.6213L14.644 56.0471L14.4417 53.6377C14.3921 53.0459 14.3142 52.4991 14.2082 51.9972C14.1005 51.4741 13.8853 51.0665 13.5628 50.7743C13.2597 50.4592 12.7594 50.331 12.062 50.3895C11.3645 50.4481 10.8715 50.6597 10.5828 51.0245C10.2942 51.3893 10.1307 51.8499 10.0923 52.4065C10.0521 52.942 10.0595 53.5373 10.1145 54.1925L11.0938 65.859C11.1542 66.5775 11.2602 67.2072 11.412 67.7478C11.5832 68.2655 11.8397 68.659 12.1816 68.9283C12.5428 69.1747 13.0299 69.2721 13.6428 69.2207C14.3191 69.1639 14.7813 68.9655 15.0294 68.6254C15.2969 68.2624 15.4393 67.8035 15.4566 67.2486C15.495 66.692 15.4885 66.1073 15.4371 65.4944L15.2268 62.9899L20.2992 62.5641L20.4775 64.6881C20.6034 66.1887 20.5039 67.5379 20.1788 68.7358C19.8519 69.9126 19.199 70.8826 18.2202 71.6459C17.2396 72.388 15.8088 72.838 13.9278 72.9959ZM30.2143 71.6287C28.3333 71.7866 26.8149 71.5735 25.6591 70.9895C24.5033 70.4054 23.6301 69.5103 23.0393 68.3042C22.4679 67.0751 22.1085 65.5835 21.9613 63.8293L21.1576 54.2552C21.0103 52.501 21.1168 50.9809 21.4771 49.6949C21.8585 48.4072 22.5712 47.3896 23.6153 46.6421C24.6593 45.8947 26.1218 45.442 28.0028 45.2841C29.9049 45.1244 31.4339 45.3366 32.5897 45.9207C33.7648 46.4818 34.6372 47.3664 35.2069 48.5743C35.7959 49.7593 36.164 51.2289 36.3112 52.9831L37.115 62.5572C37.2622 64.3114 37.146 65.8429 36.7664 67.1518C36.4061 68.4378 35.6942 69.466 34.6309 70.2363C33.5886 71.0049 32.1164 71.469 30.2143 71.6287ZM29.8976 67.8561C30.5739 67.7994 31.0582 67.6097 31.3504 67.2872C31.6408 66.9436 31.8175 66.5137 31.8806 65.9976C31.9419 65.4604 31.9478 64.8959 31.8981 64.3041L30.8788 52.1621C30.8291 51.5703 30.7302 51.0253 30.5819 50.5269C30.4337 50.0285 30.1886 49.6447 29.8467 49.3754C29.5031 49.085 28.9931 48.9682 28.3168 49.025C27.6828 49.0782 27.2205 49.2766 26.9301 49.6203C26.6379 49.9428 26.4603 50.3621 26.3972 50.8782C26.3341 51.3943 26.3274 51.9482 26.3771 52.54L27.3964 64.682C27.446 65.2738 27.5353 65.8303 27.6642 66.3516C27.8125 66.8499 28.0584 67.2443 28.4021 67.5347C28.7439 67.804 29.2424 67.9111 29.8976 67.8561ZM39.9231 70.4625L38.2113 44.7464L43.7592 44.2807L48.2893 60.2144L50.3215 43.7298L55.6792 43.28L58.2787 68.9216L54.4744 69.241L52.6013 51.871L50.797 69.5497L47.5316 69.8238L42.6361 52.5798L43.7591 70.1405L39.9231 70.4625ZM60.698 68.7185L58.9862 43.0024L64.5341 42.5367L69.0642 58.4704L71.0965 41.9858L76.4541 41.536L79.0536 67.1776L75.2493 67.497L73.3762 50.127L71.5719 67.8057L68.3065 68.0798L63.411 50.8359L64.534 68.3965L60.698 68.7185ZM88.8254 66.7085C86.881 66.8717 85.3423 66.671 84.2095 66.1063C83.0748 65.5205 82.2332 64.6227 81.6847 63.413C81.1556 62.1804 80.8156 60.6659 80.6648 58.8694L79.1904 41.3063L84.3579 40.8726L85.8935 59.1648C85.9467 59.7988 86.0413 60.4188 86.1773 61.0246C86.3344 61.6286 86.5875 62.1075 86.9364 62.4613C87.3065 62.8134 87.8297 62.961 88.506 62.9042C89.2035 62.8457 89.6948 62.6129 89.9798 62.2059C90.2861 61.7971 90.4557 61.2826 90.4888 60.6626C90.5219 60.0426 90.5118 59.4156 90.4586 58.7816L88.923 40.4893L94.0905 40.0555L95.5649 57.6186C95.7157 59.4151 95.6224 60.966 95.285 62.2713C94.967 63.5538 94.2974 64.5784 93.2763 65.3452C92.2534 66.0909 90.7698 66.5453 88.8254 66.7085ZM98.6278 65.5345L96.4721 39.8556L100.118 39.5496L106.947 52.4489L105.824 39.0705L110.136 38.7086L112.291 64.3875L108.804 64.6802L101.906 50.9566L103.098 65.1592L98.6278 65.5345ZM114.977 64.162L112.821 38.4832L118.021 38.0467L120.176 63.7256L114.977 64.162ZM125.25 63.2996L123.421 41.5202L119.459 41.8528L119.131 37.9535L132.256 36.8517L132.583 40.7511L128.684 41.0784L130.512 62.8579L125.25 63.2996ZM138.833 62.1593L137.979 51.9829L131.669 36.901L136.583 36.4885L140.099 45.2921L141.909 36.0414L146.664 35.6422L143.02 51.5598L143.874 61.7362L138.833 62.1593ZM156.404 60.6844L154.248 35.0055L160.525 34.4786C162.702 34.2958 164.417 34.4392 165.67 34.9087C166.942 35.3553 167.882 36.1597 168.49 37.3218C169.097 38.4628 169.478 39.9632 169.634 41.8231L170.419 51.1752C170.579 53.0774 170.457 54.6626 170.052 55.931C169.648 57.1995 168.868 58.1801 167.713 58.873C166.578 59.543 164.942 59.9676 162.808 60.1468L156.404 60.6844ZM161.329 56.5995L162.438 56.5064C163.411 56.4247 164.085 56.2191 164.462 55.8895C164.858 55.537 165.084 55.0605 165.14 54.4598C165.194 53.838 165.184 53.0833 165.109 52.1956L164.221 41.6071C164.146 40.7194 164.013 40.0176 163.82 39.5016C163.647 38.9628 163.339 38.5843 162.895 38.3662C162.472 38.1462 161.796 38.0753 160.866 38.1534L159.788 38.2439L161.329 56.5995ZM171.7 59.4003L174.522 33.3036L180.323 32.8166L187.425 58.0803L182.574 58.4875L181.181 52.9217L177.123 53.2623L176.614 58.9878L171.7 59.4003ZM177.33 50.0204L180.405 49.7623L177.981 39.5261L177.33 50.0204ZM190.757 57.8006L189.903 47.6241L183.593 32.5422L188.506 32.1297L192.023 40.9333L193.832 31.6826L198.588 31.2834L194.944 47.201L195.798 57.3774L190.757 57.8006Z" fill="white"/>
<path d="M9.30384 72.2986L9.02846 72.8083L9.03291 72.8107L9.30384 72.2986ZM6.73942 69.5128L6.20931 69.7466L6.21052 69.7493L6.73942 69.5128ZM5.20651 51.2523L5.76744 51.3973L5.76817 51.3944L5.20651 51.2523ZM7.27062 48.078L6.92432 47.6136L6.92036 47.6166L7.27062 48.078ZM16.1049 47.2087L15.8526 47.7303L15.8572 47.7324L16.1049 47.2087ZM18.5423 49.622L18.0192 49.8712L18.0234 49.8797L18.5423 49.622ZM19.7164 55.6213L19.7648 56.1986L20.3421 56.1501L20.2937 55.5728L19.7164 55.6213ZM14.644 56.0471L14.0667 56.0955L14.1151 56.6729L14.6925 56.6244L14.644 56.0471ZM14.2082 51.9972L13.6408 52.1141L13.6414 52.1169L14.2082 51.9972ZM13.5628 50.7743L13.1453 51.176L13.1591 51.1903L13.1739 51.2037L13.5628 50.7743ZM10.5828 51.0245L10.1285 50.665L10.1285 50.665L10.5828 51.0245ZM10.0923 52.4065L10.67 52.4499L10.6702 52.4464L10.0923 52.4065ZM11.412 67.7478L10.8542 67.9044L10.8578 67.9171L10.862 67.9296L11.412 67.7478ZM12.1816 68.9283L11.8231 69.3834L11.8387 69.3957L11.8551 69.4069L12.1816 68.9283ZM15.0294 68.6254L14.5631 68.2817L14.5614 68.2839L15.0294 68.6254ZM15.4566 67.2486L14.8786 67.2087L14.8779 67.2197L14.8775 67.2306L15.4566 67.2486ZM15.2268 62.9899L15.1783 62.4126L14.601 62.461L14.6495 63.0383L15.2268 62.9899ZM20.2992 62.5641L20.8765 62.5156L20.828 61.9383L20.2507 61.9868L20.2992 62.5641ZM20.1788 68.7358L20.737 68.8909L20.7379 68.8876L20.1788 68.7358ZM18.2202 71.6459L18.5698 72.1079L18.5764 72.1027L18.2202 71.6459ZM13.8793 72.4186C12.0425 72.5728 10.6237 72.3414 9.57478 71.7865L9.03291 72.8107C10.345 73.5049 12.0087 73.7384 13.9762 73.5732L13.8793 72.4186ZM9.57922 71.7889C8.53496 71.2247 7.7678 70.3936 7.26831 69.2764L6.21052 69.7493C6.8116 71.0937 7.75406 72.1198 9.02847 72.8083L9.57922 71.7889ZM7.26952 69.2791C6.74871 68.098 6.41355 66.6918 6.27574 65.0502L5.12111 65.1472C5.26718 66.8872 5.626 68.4237 6.20932 69.7466L7.26952 69.2791ZM6.27574 65.0502L5.50131 55.8249L4.34667 55.9218L5.12111 65.1472L6.27574 65.0502ZM5.50131 55.8249C5.35608 54.0949 5.45065 52.6229 5.76743 51.3973L4.6456 51.1074C4.28762 52.4924 4.19384 54.1012 4.34667 55.9218L5.50131 55.8249ZM5.76817 51.3944C6.0732 50.1888 6.69029 49.2458 7.62088 48.5395L6.92036 47.6166C5.77003 48.4897 5.01104 49.6629 4.64486 51.1102L5.76817 51.3944ZM7.61691 48.5425C8.56147 47.8383 9.92535 47.383 11.7647 47.2286L11.6678 46.074C9.70283 46.2389 8.10297 46.7348 6.92433 47.6136L7.61691 48.5425ZM11.7647 47.2286C13.5503 47.0787 14.8958 47.2673 15.8526 47.7302L16.3572 46.6872C15.1399 46.0982 13.5596 45.9152 11.6678 46.074L11.7647 47.2286ZM15.8572 47.7324C16.8474 48.2008 17.5612 48.9097 18.0193 49.8712L19.0653 49.3729C18.4899 48.1651 17.5788 47.265 16.3526 46.685L15.8572 47.7324ZM18.0234 49.8797C18.5223 50.8841 18.8386 52.0913 18.9581 53.514L20.1127 53.4171C19.9837 51.8809 19.638 50.5257 19.0612 49.3643L18.0234 49.8797ZM18.9581 53.514L19.139 55.6697L20.2937 55.5728L20.1127 53.4171L18.9581 53.514ZM19.6679 55.044L14.5955 55.4698L14.6925 56.6244L19.7648 56.1986L19.6679 55.044ZM15.2213 55.9986L15.019 53.5892L13.8644 53.6862L14.0667 56.0955L15.2213 55.9986ZM15.019 53.5892C14.9677 52.9772 14.8867 52.4062 14.7751 51.8775L13.6414 52.1169C13.7417 52.592 13.8164 53.1147 13.8644 53.6862L15.019 53.5892ZM14.7757 51.8803C14.6488 51.2646 14.3845 50.737 13.9518 50.345L13.1739 51.2037C13.3862 51.396 13.5521 51.6836 13.6408 52.1141L14.7757 51.8803ZM13.9803 50.3727C13.4989 49.8722 12.7809 49.7478 12.0135 49.8122L12.1104 50.9668C12.7379 50.9141 13.0205 51.0462 13.1453 51.176L13.9803 50.3727ZM12.0135 49.8122C11.2368 49.8774 10.5574 50.123 10.1285 50.665L11.0372 51.384C11.1856 51.1964 11.4923 51.0187 12.1104 50.9668L12.0135 49.8122ZM10.1285 50.665C9.75393 51.1384 9.55911 51.7172 9.51429 52.3667L10.6702 52.4464C10.7022 51.9827 10.8345 51.6401 11.0372 51.384L10.1285 50.665ZM9.51454 52.3632C9.47162 52.9351 9.48015 53.5618 9.53717 54.241L10.6918 54.1441C10.6388 53.5129 10.6325 52.9489 10.67 52.4499L9.51454 52.3632ZM9.53717 54.241L10.5165 65.9074L11.6712 65.8105L10.6918 54.1441L9.53717 54.241ZM10.5165 65.9074C10.5791 66.6529 10.6902 67.3201 10.8542 67.9044L11.9698 67.5912C11.8303 67.0942 11.7292 66.5022 11.6712 65.8105L10.5165 65.9074ZM10.862 67.9296C11.0598 68.528 11.3717 69.0279 11.8231 69.3834L12.54 68.4732C12.3077 68.2901 12.1066 68.0031 11.9621 67.5659L10.862 67.9296ZM11.8551 69.4069C12.3634 69.7536 12.9988 69.8561 13.6912 69.798L13.5943 68.6433C13.0609 68.6881 12.7222 68.5957 12.508 68.4497L11.8551 69.4069ZM13.6912 69.798C14.4344 69.7356 15.1033 69.5071 15.4975 68.9668L14.5614 68.2839C14.4594 68.4238 14.2037 68.5922 13.5943 68.6433L13.6912 69.798ZM15.4958 68.9691C15.8477 68.4915 16.0156 67.9115 16.0357 67.2667L14.8775 67.2306C14.8631 67.6954 14.7462 68.0332 14.5631 68.2817L15.4958 68.9691ZM16.0346 67.2885C16.0752 66.6997 16.068 66.0853 16.0144 65.4459L14.8597 65.5428C14.909 66.1293 14.9148 66.6844 14.8786 67.2087L16.0346 67.2885ZM16.0144 65.4459L15.8041 62.9414L14.6495 63.0383L14.8597 65.5428L16.0144 65.4459ZM15.2753 63.5672L20.3476 63.1414L20.2507 61.9868L15.1783 62.4126L15.2753 63.5672ZM19.7219 62.6125L19.9002 64.7366L21.0548 64.6397L20.8765 62.5156L19.7219 62.6125ZM19.9002 64.7366C20.0216 66.1838 19.9237 67.4636 19.6196 68.5841L20.7379 68.8876C21.084 67.6123 21.1852 66.1936 21.0548 64.6397L19.9002 64.7366ZM19.6205 68.5808C19.3275 69.6358 18.7465 70.5008 17.8639 71.189L18.5764 72.1027C19.6515 71.2645 20.3763 70.1894 20.737 68.8909L19.6205 68.5808ZM17.8706 71.1839C17.0124 71.8333 15.7051 72.2653 13.8793 72.4186L13.9762 73.5732C15.9124 73.4107 17.4667 72.9426 18.5698 72.1078L17.8706 71.1839ZM25.6591 70.9895L25.9204 70.4724L25.6591 70.9895ZM23.0393 68.3042L22.5138 68.5485L22.519 68.559L23.0393 68.3042ZM21.4771 49.6949L20.9215 49.5304L20.9192 49.5386L21.4771 49.6949ZM23.6153 46.6421L23.9525 47.1132L23.6153 46.6421ZM32.5897 45.9207L32.3283 46.4379L32.34 46.4435L32.5897 45.9207ZM35.2069 48.5743L34.6827 48.8214L34.6881 48.8321L35.2069 48.5743ZM36.7664 67.1518L36.2099 66.9904L36.2085 66.9955L36.7664 67.1518ZM34.6309 70.2363L34.291 69.7671L34.287 69.77L34.6309 70.2363ZM31.3504 67.2872L31.7797 67.6762L31.7864 67.6688L31.7929 67.6612L31.3504 67.2872ZM31.8806 65.9976L32.4557 66.0679L32.4562 66.0633L31.8806 65.9976ZM30.5819 50.5269L30.0266 50.6921L30.0266 50.6921L30.5819 50.5269ZM29.8467 49.3754L29.4728 49.8179L29.4804 49.8244L29.4883 49.8305L29.8467 49.3754ZM26.9301 49.6203L27.3595 50.0092L27.3662 50.0018L27.3726 49.9942L26.9301 49.6203ZM26.3972 50.8782L26.9723 50.9485L26.3972 50.8782ZM27.6642 66.3516L27.1018 66.4906L27.1051 66.5038L27.1089 66.5167L27.6642 66.3516ZM28.4021 67.5347L28.0281 67.9772L28.0357 67.9837L28.0436 67.9898L28.4021 67.5347ZM30.1658 71.0514C28.3457 71.2042 26.9463 70.9908 25.9204 70.4724L25.3978 71.5065C26.6835 72.1562 28.321 72.369 30.2628 72.206L30.1658 71.0514ZM25.9204 70.4724C24.8816 69.9475 24.0971 69.1467 23.5596 68.0493L22.519 68.559C23.163 69.8739 24.1251 70.8634 25.3978 71.5065L25.9204 70.4724ZM23.5646 68.0599C23.029 66.9079 22.6818 65.4864 22.5386 63.7808L21.3839 63.8777C21.5353 65.6805 21.9067 67.2423 22.5139 68.5484L23.5646 68.0599ZM22.5386 63.7808L21.7349 54.2067L20.5802 54.3037L21.3839 63.8777L22.5386 63.7808ZM21.7349 54.2067C21.5917 52.5007 21.6982 51.0532 22.035 49.8512L20.9192 49.5386C20.5354 50.9086 20.4289 52.5013 20.5802 54.3037L21.7349 54.2067ZM22.0326 49.8594C22.3792 48.6892 23.0184 47.7819 23.9525 47.1132L23.278 46.171C22.1241 46.9972 21.3378 48.1251 20.9216 49.5304L22.0326 49.8594ZM23.9525 47.1132C24.8807 46.4486 26.2285 46.0144 28.0512 45.8614L27.9543 44.7068C26.015 44.8696 24.4378 45.3407 23.278 46.171L23.9525 47.1132ZM28.0512 45.8614C29.894 45.7067 31.3034 45.9198 32.3284 46.4377L32.851 45.4036C31.5644 44.7535 29.9158 44.5421 27.9543 44.7068L28.0512 45.8614ZM32.34 46.4435C33.3914 46.9455 34.1686 47.7309 34.6828 48.8214L35.7309 48.3272C35.1058 47.0018 34.1383 46.0181 32.8393 45.3979L32.34 46.4435ZM34.6881 48.8321C35.2357 49.934 35.5909 51.3275 35.7339 53.0316L36.8886 52.9346C36.7371 51.1303 36.356 49.5846 35.7257 48.3164L34.6881 48.8321ZM35.7339 53.0316L36.5376 62.6056L37.6923 62.5087L36.8886 52.9346L35.7339 53.0316ZM36.5376 62.6056C36.6806 64.3088 36.565 65.7663 36.21 66.9904L37.3228 67.3132C37.727 65.9196 37.8438 64.3139 37.6923 62.5087L36.5376 62.6056ZM36.2085 66.9955C35.8828 68.1579 35.2465 69.0749 34.291 69.7672L34.9708 70.7055C36.142 69.857 36.9293 68.7177 37.3242 67.3081L36.2085 66.9955ZM34.287 69.77C33.3627 70.4517 32.0086 70.8967 30.1658 71.0514L30.2628 72.206C32.2243 72.0414 33.8146 71.5581 34.9747 70.7026L34.287 69.77ZM29.9461 68.4334C30.6898 68.371 31.3464 68.1545 31.7797 67.6762L30.921 66.8982C30.77 67.0649 30.458 67.2277 29.8492 67.2788L29.9461 68.4334ZM31.7929 67.6612C32.1669 67.2186 32.3811 66.6781 32.4557 66.0679L31.3056 65.9273C31.254 66.3493 31.1147 66.6686 30.9079 66.9133L31.7929 67.6612ZM32.4562 66.0633C32.5223 65.4847 32.528 64.8817 32.4754 64.2556L31.3208 64.3525C31.3676 64.91 31.3616 65.4361 31.305 65.9319L32.4562 66.0633ZM32.4754 64.2556L31.4561 52.1136L30.3015 52.2106L31.3208 64.3525L32.4754 64.2556ZM31.4561 52.1136C31.4036 51.4878 31.2983 50.903 31.1372 50.3617L30.0266 50.6921C30.1621 51.1475 30.2547 51.6529 30.3015 52.2106L31.4561 52.1136ZM31.1372 50.3617C30.9616 49.7715 30.6582 49.2771 30.2052 48.9203L29.4883 49.8305C29.719 50.0123 29.9057 50.2855 30.0266 50.6921L31.1372 50.3617ZM30.2207 48.9329C29.7117 48.5028 29.021 48.3845 28.2683 48.4477L28.3653 49.6023C28.9652 49.5519 29.2945 49.6673 29.4728 49.8179L30.2207 48.9329ZM28.2683 48.4477C27.5453 48.5083 26.9122 48.7439 26.4876 49.2463L27.3726 49.9942C27.5289 49.8093 27.8202 49.648 28.3653 49.6023L28.2683 48.4477ZM26.5008 49.2313C26.1137 49.6586 25.8969 50.1967 25.8221 50.8079L26.9723 50.9485C27.0237 50.5274 27.1622 50.227 27.3595 50.0092L26.5008 49.2313ZM25.8221 50.8079C25.7536 51.3685 25.7472 51.9626 25.7998 52.5885L26.9544 52.4915C26.9076 51.9339 26.9146 51.4201 26.9723 50.9485L25.8221 50.8079ZM25.7998 52.5885L26.819 64.7304L27.9737 64.6335L26.9544 52.4915L25.7998 52.5885ZM26.819 64.7304C26.871 65.3496 26.9648 65.9367 27.1018 66.4906L28.2266 66.2125C28.1058 65.7239 28.0211 65.1979 27.9737 64.6335L26.819 64.7304ZM27.1089 66.5167C27.2842 67.106 27.5855 67.6032 28.0281 67.9772L28.776 67.0922C28.5313 66.8854 28.3407 66.5939 28.2195 66.1864L27.1089 66.5167ZM28.0436 67.9898C28.5476 68.3868 29.2175 68.4946 29.9461 68.4334L29.8492 67.2788C29.2673 67.3277 28.9403 67.2212 28.7605 67.0796L28.0436 67.9898ZM39.9231 70.4625L39.345 70.501L39.3842 71.0891L39.9715 71.0398L39.9231 70.4625ZM38.2113 44.7464L38.1628 44.1691L37.5954 44.2167L37.6332 44.7849L38.2113 44.7464ZM43.7592 44.2807L44.3164 44.1222L44.186 43.6635L43.7107 43.7034L43.7592 44.2807ZM48.2893 60.2144L47.7321 60.3728L48.8643 60.2853L48.2893 60.2144ZM50.3215 43.7298L50.2731 43.1525L49.8041 43.1918L49.7466 43.6589L50.3215 43.7298ZM55.6792 43.28L56.2556 43.2216L56.1982 42.6551L55.6308 42.7027L55.6792 43.28ZM58.2787 68.9216L58.3272 69.4989L58.9146 69.4496L58.8551 68.8632L58.2787 68.9216ZM54.4744 69.241L53.8984 69.3031L53.9591 69.8656L54.5229 69.8183L54.4744 69.241ZM52.6013 51.871L53.1773 51.8089L52.0249 51.8122L52.6013 51.871ZM50.797 69.5497L50.8454 70.127L51.3245 70.0868L51.3733 69.6085L50.797 69.5497ZM47.5316 69.8238L46.9743 69.982L47.1046 70.441L47.5801 70.4011L47.5316 69.8238ZM42.6361 52.5798L43.1934 52.4216L42.0579 52.6168L42.6361 52.5798ZM43.7591 70.1405L43.8075 70.7178L44.3735 70.6703L44.3372 70.1035L43.7591 70.1405ZM40.5012 70.424L38.7893 44.7079L37.6332 44.7849L39.345 70.501L40.5012 70.424ZM38.2597 45.3237L43.8076 44.858L43.7107 43.7034L38.1628 44.1691L38.2597 45.3237ZM43.2019 44.4391L47.7321 60.3728L48.8466 60.056L44.3164 44.1222L43.2019 44.4391ZM48.8643 60.2853L50.8965 43.8007L49.7466 43.6589L47.7143 60.1435L48.8643 60.2853ZM50.37 44.3071L55.7277 43.8573L55.6308 42.7027L50.2731 43.1525L50.37 44.3071ZM55.1028 43.3385L57.7023 68.9801L58.8551 68.8632L56.2556 43.2216L55.1028 43.3385ZM58.2302 68.3443L54.426 68.6637L54.5229 69.8183L58.3272 69.4989L58.2302 68.3443ZM55.0504 69.1789L53.1773 51.8089L52.0253 51.9331L53.8984 69.3031L55.0504 69.1789ZM52.0249 51.8122L50.2206 69.4909L51.3733 69.6085L53.1776 51.9298L52.0249 51.8122ZM50.7485 68.9724L47.4832 69.2465L47.5801 70.4011L50.8454 70.127L50.7485 68.9724ZM48.089 69.6656L43.1934 52.4216L42.0788 52.7381L46.9743 69.982L48.089 69.6656ZM42.0579 52.6168L43.1809 70.1775L44.3372 70.1035L43.2143 52.5429L42.0579 52.6168ZM43.7106 69.5632L39.8746 69.8852L39.9715 71.0398L43.8075 70.7178L43.7106 69.5632ZM60.698 68.7185L60.1199 68.757L60.1591 69.3452L60.7465 69.2958L60.698 68.7185ZM58.9862 43.0024L58.9377 42.4251L58.3703 42.4727L58.4081 43.0409L58.9862 43.0024ZM64.5341 42.5367L65.0913 42.3783L64.9609 41.9195L64.4856 41.9594L64.5341 42.5367ZM69.0642 58.4704L68.507 58.6289L69.6392 58.5413L69.0642 58.4704ZM71.0965 41.9858L71.048 41.4085L70.579 41.4479L70.5215 41.9149L71.0965 41.9858ZM76.4541 41.536L77.0305 41.4776L76.9731 40.9111L76.4057 40.9587L76.4541 41.536ZM79.0536 67.1776L79.1021 67.755L79.6895 67.7057L79.63 67.1192L79.0536 67.1776ZM75.2493 67.497L74.6733 67.5591L74.734 68.1216L75.2978 68.0743L75.2493 67.497ZM73.3762 50.127L73.9522 50.0649L72.7998 50.0682L73.3762 50.127ZM71.5719 67.8057L71.6203 68.383L72.0994 68.3428L72.1482 67.8645L71.5719 67.8057ZM68.3065 68.0798L67.7492 68.238L67.8795 68.6971L68.355 68.6571L68.3065 68.0798ZM63.411 50.8359L63.9683 50.6777L62.8328 50.8728L63.411 50.8359ZM64.534 68.3965L64.5824 68.9738L65.1484 68.9263L65.1121 68.3595L64.534 68.3965ZM61.2761 68.6801L59.5642 42.9639L58.4081 43.0409L60.1199 68.757L61.2761 68.6801ZM59.0346 43.5797L64.5825 43.114L64.4856 41.9594L58.9377 42.4251L59.0346 43.5797ZM63.9768 42.6951L68.507 58.6289L69.6215 58.312L65.0913 42.3783L63.9768 42.6951ZM69.6392 58.5413L71.6714 42.0567L70.5215 41.9149L68.4892 58.3995L69.6392 58.5413ZM71.1449 42.5631L76.5026 42.1134L76.4057 40.9587L71.048 41.4085L71.1449 42.5631ZM75.8777 41.5945L78.4772 67.2361L79.63 67.1192L77.0305 41.4776L75.8777 41.5945ZM79.0051 66.6003L75.2009 66.9197L75.2978 68.0743L79.1021 67.755L79.0051 66.6003ZM75.8254 67.4349L73.9522 50.0649L72.8002 50.1892L74.6733 67.5591L75.8254 67.4349ZM72.7998 50.0682L70.9955 67.7469L72.1482 67.8645L73.9525 50.1859L72.7998 50.0682ZM71.5234 67.2284L68.2581 67.5025L68.355 68.6571L71.6203 68.383L71.5234 67.2284ZM68.8639 67.9216L63.9683 50.6777L62.8537 50.9941L67.7492 68.238L68.8639 67.9216ZM62.8328 50.8728L63.9558 68.4335L65.1121 68.3595L63.9892 50.7989L62.8328 50.8728ZM64.4855 67.8192L60.6495 68.1412L60.7465 69.2958L64.5824 68.9738L64.4855 67.8192ZM84.2095 66.1063L83.9437 66.6212L83.951 66.6248L84.2095 66.1063ZM81.6847 63.413L81.1522 63.6416L81.1571 63.6523L81.6847 63.413ZM79.1904 41.3063L79.142 40.729L78.5647 40.7775L78.6131 41.3548L79.1904 41.3063ZM84.3579 40.8726L84.9352 40.8241L84.8868 40.2468L84.3094 40.2952L84.3579 40.8726ZM86.1773 61.0246L85.612 61.1515L85.6142 61.161L85.6166 61.1704L86.1773 61.0246ZM86.9364 62.4613L86.5239 62.8682L86.5304 62.8748L86.5371 62.8811L86.9364 62.4613ZM89.9798 62.2059L89.5162 61.8585L89.5106 61.8659L89.5053 61.8735L89.9798 62.2059ZM88.923 40.4893L88.8746 39.912L88.2973 39.9605L88.3457 40.5378L88.923 40.4893ZM94.0905 40.0555L94.6678 40.0071L94.6194 39.4298L94.042 39.4782L94.0905 40.0555ZM95.285 62.2713L94.7241 62.1263L94.7227 62.1319L95.285 62.2713ZM93.2763 65.3452L93.6176 65.8134L93.6242 65.8085L93.2763 65.3452ZM88.7769 66.1312C86.8856 66.29 85.4676 66.0861 84.4679 65.5878L83.951 66.6248C85.2171 67.2559 86.8764 67.4535 88.8739 67.2858L88.7769 66.1312ZM84.4753 65.5915C83.4613 65.068 82.7094 64.2699 82.2124 63.1738L81.1571 63.6523C81.7571 64.9755 82.6883 65.9729 83.9437 66.6211L84.4753 65.5915ZM82.2171 63.1845C81.7193 62.025 81.3894 60.5753 81.2421 58.821L80.0875 58.9179C80.2418 60.7565 80.5918 62.3359 81.1524 63.6416L82.2171 63.1845ZM81.2421 58.821L79.7678 41.2579L78.6131 41.3548L80.0875 58.9179L81.2421 58.821ZM79.2389 41.8837L84.4064 41.4499L84.3094 40.2952L79.142 40.729L79.2389 41.8837ZM83.7806 40.921L85.3162 59.2132L86.4708 59.1163L84.9352 40.8241L83.7806 40.921ZM85.3162 59.2132C85.3715 59.873 85.4701 60.5192 85.612 61.1515L86.7426 60.8977C86.6125 60.3183 86.5219 59.7246 86.4708 59.1163L85.3162 59.2132ZM85.6166 61.1704C85.7929 61.8481 86.0874 62.4256 86.5239 62.8682L87.3489 62.0545C87.0875 61.7895 86.876 61.4091 86.738 60.8787L85.6166 61.1704ZM86.5371 62.8811C87.0632 63.3815 87.7704 63.5474 88.5545 63.4816L88.4576 62.3269C87.889 62.3747 87.5498 62.2452 87.3357 62.0416L86.5371 62.8811ZM88.5545 63.4816C89.3503 63.4148 90.0352 63.1367 90.4544 62.5382L89.5053 61.8735C89.3543 62.0891 89.0567 62.2766 88.4576 62.3269L88.5545 63.4816ZM90.4435 62.5532C90.8321 62.0344 91.0295 61.4031 91.0673 60.6935L89.9103 60.6318C89.882 61.1622 89.74 61.5597 89.5162 61.8585L90.4435 62.5532ZM91.0673 60.6935C91.1019 60.0464 91.0913 59.3929 91.0359 58.7331L89.8813 58.83C89.9324 59.4383 89.9419 60.0388 89.9103 60.6318L91.0673 60.6935ZM91.0359 58.7331L89.5004 40.4409L88.3457 40.5378L89.8813 58.83L91.0359 58.7331ZM88.9715 41.0666L94.139 40.6329L94.042 39.4782L88.8746 39.912L88.9715 41.0666ZM93.5132 40.104L94.9875 57.6671L96.1422 57.5701L94.6678 40.0071L93.5132 40.104ZM94.9875 57.6671C95.1346 59.4191 95.0407 60.9014 94.7241 62.1264L95.8459 62.4163C96.2041 61.0306 96.2967 59.411 96.1422 57.5701L94.9875 57.6671ZM94.7227 62.1319C94.4356 63.2898 93.839 64.1981 92.9284 64.8819L93.6242 65.8085C94.7559 64.9586 95.4984 63.8177 95.8473 62.4108L94.7227 62.1319ZM92.935 64.877C92.0324 65.535 90.6683 65.9724 88.7769 66.1312L88.8739 67.2858C90.8713 67.1182 92.4745 66.6467 93.6176 65.8133L92.935 64.877ZM98.6278 65.5345L98.0505 65.5829L98.0989 66.1602L98.6763 66.1118L98.6278 65.5345ZM96.4721 39.8556L96.4237 39.2783L95.8464 39.3268L95.8948 39.9041L96.4721 39.8556ZM100.118 39.5496L100.63 39.2785L100.451 38.9402L100.069 38.9722L100.118 39.5496ZM106.947 52.4489L106.435 52.72L107.525 52.4004L106.947 52.4489ZM105.824 39.0705L105.776 38.4932L105.199 38.5417L105.247 39.119L105.824 39.0705ZM110.136 38.7086L110.713 38.6601L110.665 38.0828L110.087 38.1313L110.136 38.7086ZM112.291 64.3875L112.34 64.9648L112.917 64.9163L112.869 64.339L112.291 64.3875ZM108.804 64.6802L108.287 64.9404L108.462 65.2903L108.853 65.2575L108.804 64.6802ZM101.906 50.9566L102.423 50.6964L101.328 51.0051L101.906 50.9566ZM103.098 65.1592L103.146 65.7365L103.724 65.6881L103.675 65.1108L103.098 65.1592ZM99.2051 65.486L97.0495 39.8071L95.8948 39.9041L98.0505 65.5829L99.2051 65.486ZM96.5206 40.4329L100.166 40.1269L100.069 38.9722L96.4237 39.2783L96.5206 40.4329ZM99.6059 39.8206L106.435 52.72L107.459 52.1778L100.63 39.2785L99.6059 39.8206ZM107.525 52.4004L106.402 39.0221L105.247 39.119L106.37 52.4974L107.525 52.4004ZM105.873 39.6478L110.184 39.2859L110.087 38.1313L105.776 38.4932L105.873 39.6478ZM109.559 38.7571L111.714 64.4359L112.869 64.339L110.713 38.6601L109.559 38.7571ZM112.243 63.8101L108.756 64.1029L108.853 65.2575L112.34 64.9648L112.243 63.8101ZM109.322 64.42L102.423 50.6964L101.388 51.2168L108.287 64.9404L109.322 64.42ZM101.328 51.0051L102.52 65.2077L103.675 65.1108L102.483 50.9081L101.328 51.0051ZM103.049 64.5819L98.5793 64.9571L98.6763 66.1118L103.146 65.7365L103.049 64.5819ZM114.977 64.162L114.4 64.2105L114.448 64.7878L115.025 64.7393L114.977 64.162ZM112.821 38.4832L112.773 37.9058L112.196 37.9543L112.244 38.5316L112.821 38.4832ZM118.021 38.0467L118.598 37.9982L118.549 37.4209L117.972 37.4694L118.021 38.0467ZM120.176 63.7256L120.225 64.3029L120.802 64.2544L120.753 63.6771L120.176 63.7256ZM115.554 64.1135L113.399 38.4347L112.244 38.5316L114.4 64.2105L115.554 64.1135ZM112.87 39.0605L118.069 38.624L117.972 37.4694L112.773 37.9058L112.87 39.0605ZM117.443 38.0952L119.599 63.774L120.753 63.6771L118.598 37.9982L117.443 38.0952ZM120.128 63.1482L114.929 63.5847L115.025 64.7393L120.225 64.3029L120.128 63.1482ZM125.25 63.2996L124.672 63.3481L124.721 63.9254L125.298 63.877L125.25 63.2996ZM123.421 41.5202L123.999 41.4717L123.95 40.8944L123.373 40.9429L123.421 41.5202ZM119.459 41.8528L118.881 41.9013L118.93 42.4786L119.507 42.4302L119.459 41.8528ZM119.131 37.9535L119.083 37.3761L118.506 37.4246L118.554 38.0019L119.131 37.9535ZM132.256 36.8517L132.833 36.8032L132.785 36.2259L132.208 36.2744L132.256 36.8517ZM132.583 40.7511L132.632 41.3284L133.209 41.2799L133.161 40.7026L132.583 40.7511ZM128.684 41.0784L128.636 40.5011L128.058 40.5496L128.107 41.1269L128.684 41.0784ZM130.512 62.8579L130.561 63.4352L131.138 63.3867L131.09 62.8094L130.512 62.8579ZM125.827 63.2512L123.999 41.4717L122.844 41.5686L124.672 63.3481L125.827 63.2512ZM123.373 40.9429L119.41 41.2755L119.507 42.4302L123.47 42.0975L123.373 40.9429ZM120.036 41.8044L119.709 37.905L118.554 38.0019L118.881 41.9013L120.036 41.8044ZM119.18 38.5308L132.305 37.429L132.208 36.2744L119.083 37.3761L119.18 38.5308ZM131.679 36.9001L132.006 40.7995L133.161 40.7026L132.833 36.8032L131.679 36.9001ZM132.535 40.1737L128.636 40.5011L128.733 41.6557L132.632 41.3284L132.535 40.1737ZM128.107 41.1269L129.935 62.9063L131.09 62.8094L129.261 41.0299L128.107 41.1269ZM130.464 62.2806L125.201 62.7223L125.298 63.877L130.561 63.4352L130.464 62.2806ZM138.833 62.1594L138.256 62.2078L138.305 62.7851L138.882 62.7367L138.833 62.1594ZM137.979 51.9829L138.557 51.9345L138.549 51.8435L138.514 51.7593L137.979 51.9829ZM131.669 36.901L131.62 36.3237L130.827 36.3903L131.134 37.1246L131.669 36.901ZM136.583 36.4885L137.121 36.2736L136.962 35.8753L136.534 35.9112L136.583 36.4885ZM140.099 45.2921L139.561 45.507L140.291 47.3326L140.668 45.4033L140.099 45.2921ZM141.909 36.0414L141.86 35.4641L141.424 35.5007L141.34 35.9302L141.909 36.0414ZM146.664 35.6422L147.229 35.7715L147.406 34.9985L146.616 35.0649L146.664 35.6422ZM143.02 51.5598L142.455 51.4305L142.435 51.5184L142.443 51.6082L143.02 51.5598ZM143.874 61.7362L143.923 62.3135L144.5 62.2651L144.451 61.6877L143.874 61.7362ZM139.411 62.1109L138.557 51.9345L137.402 52.0314L138.256 62.2078L139.411 62.1109ZM138.514 51.7593L132.203 36.6774L131.134 37.1246L137.445 52.2065L138.514 51.7593ZM131.717 37.4783L136.631 37.0658L136.534 35.9112L131.62 36.3237L131.717 37.4783ZM136.045 36.7034L139.561 45.507L140.637 45.0772L137.121 36.2736L136.045 36.7034ZM140.668 45.4033L142.477 36.1526L141.34 35.9302L139.531 45.1809L140.668 45.4033ZM141.957 36.6187L146.713 36.2195L146.616 35.0649L141.86 35.4641L141.957 36.6187ZM146.099 35.5129L142.455 51.4305L143.585 51.6891L147.229 35.7715L146.099 35.5129ZM142.443 51.6082L143.297 61.7847L144.451 61.6877L143.597 51.5113L142.443 51.6082ZM143.826 61.1589L138.785 61.582L138.882 62.7367L143.923 62.3135L143.826 61.1589ZM156.404 60.6844L155.827 60.7328L155.875 61.3102L156.452 61.2617L156.404 60.6844ZM154.248 35.0055L154.2 34.4282L153.623 34.4767L153.671 35.054L154.248 35.0055ZM165.67 34.9087L165.466 35.4514L165.478 35.4554L165.67 34.9087ZM168.49 37.3218L167.977 37.5905L167.979 37.5938L168.49 37.3218ZM170.052 55.931L170.604 56.107L170.052 55.931ZM167.713 58.873L168.008 59.372L168.011 59.3698L167.713 58.873ZM161.329 56.5995L160.751 56.648L160.8 57.2253L161.377 57.1768L161.329 56.5995ZM164.462 55.8895L164.843 56.3256L164.847 56.3223L164.462 55.8895ZM165.14 54.4598L165.717 54.5136L165.717 54.5101L165.14 54.4598ZM163.82 39.5016L163.269 39.6787L163.273 39.6914L163.277 39.704L163.82 39.5016ZM162.895 38.3662L162.628 38.8803L162.639 38.8861L162.895 38.3662ZM159.788 38.2439L159.739 37.6666L159.162 37.715L159.211 38.2923L159.788 38.2439ZM156.981 60.6359L154.826 34.9571L153.671 35.054L155.827 60.7328L156.981 60.6359ZM154.297 35.5828L160.574 35.0559L160.477 33.9013L154.2 34.4282L154.297 35.5828ZM160.574 35.0559C162.713 34.8763 164.329 35.025 165.466 35.4512L165.873 34.3663C164.505 33.8534 162.692 33.7154 160.477 33.9013L160.574 35.0559ZM165.478 35.4554C166.615 35.8549 167.439 36.5623 167.977 37.5905L169.003 37.0531C168.325 35.7571 167.268 34.8558 165.862 34.3621L165.478 35.4554ZM167.979 37.5938C168.536 38.6419 168.905 40.0579 169.057 41.8715L170.211 41.7746C170.051 39.8685 169.658 38.2837 169.002 37.0498L167.979 37.5938ZM169.057 41.8715L169.842 51.2237L170.997 51.1268L170.211 41.7746L169.057 41.8715ZM169.842 51.2237C169.998 53.0804 169.874 54.5833 169.5 55.7551L170.604 56.107C171.039 54.742 171.16 53.0744 170.997 51.1268L169.842 51.2237ZM169.5 55.7551C169.139 56.8875 168.451 57.7549 167.415 58.3762L168.011 59.3698C169.286 58.6053 170.157 57.5114 170.604 56.107L169.5 55.7551ZM167.419 58.374C166.391 58.9805 164.855 59.3935 162.759 59.5695L162.856 60.7241C165.03 60.5417 166.764 60.1055 168.008 59.372L167.419 58.374ZM162.759 59.5695L156.356 60.1071L156.452 61.2617L162.856 60.7241L162.759 59.5695ZM161.377 57.1768L162.487 57.0837L162.39 55.929L161.28 56.0222L161.377 57.1768ZM162.487 57.0837C163.483 57 164.319 56.7839 164.843 56.3256L164.08 55.4535C163.851 55.6544 163.338 55.8495 162.39 55.929L162.487 57.0837ZM164.847 56.3223C165.368 55.8587 165.649 55.2386 165.717 54.5136L164.563 54.406C164.519 54.8823 164.348 55.2153 164.077 55.4568L164.847 56.3223ZM165.717 54.5101C165.775 53.8449 165.763 53.0551 165.687 52.1472L164.532 52.2441C164.605 53.1115 164.613 53.8312 164.563 54.4095L165.717 54.5101ZM165.687 52.1472L164.798 41.5586L163.643 41.6555L164.532 52.2441L165.687 52.1472ZM164.798 41.5586C164.721 40.6465 164.582 39.8856 164.363 39.2993L163.277 39.704C163.444 40.1496 163.571 40.7924 163.643 41.6555L164.798 41.5586ZM164.372 39.3246C164.159 38.6595 163.756 38.1439 163.15 37.8462L162.639 38.8861C162.922 39.0247 163.136 39.266 163.269 39.6787L164.372 39.3246ZM163.162 37.8522C162.586 37.5527 161.77 37.4961 160.817 37.5761L160.914 38.7307C161.822 38.6545 162.358 38.7398 162.628 38.8802L163.162 37.8522ZM160.817 37.5761L159.739 37.6666L159.836 38.8212L160.914 38.7307L160.817 37.5761ZM159.211 38.2923L160.751 56.648L161.906 56.551L160.365 38.1954L159.211 38.2923ZM171.7 59.4003L171.124 59.338L171.049 60.0364L171.749 59.9776L171.7 59.4003ZM174.522 33.3036L174.473 32.7263L173.997 32.7663L173.946 33.2413L174.522 33.3036ZM180.323 32.8166L180.881 32.6598L180.752 32.1993L180.275 32.2393L180.323 32.8166ZM187.425 58.0803L187.473 58.6576L188.172 58.5989L187.982 57.9235L187.425 58.0803ZM182.574 58.4875L182.012 58.6281L182.132 59.106L182.623 59.0648L182.574 58.4875ZM181.181 52.9216L181.743 52.781L181.624 52.3031L181.133 52.3443L181.181 52.9216ZM177.123 53.2623L177.075 52.685L176.589 52.7257L176.546 53.211L177.123 53.2623ZM176.614 58.9878L176.663 59.5651L177.148 59.5244L177.191 59.0391L176.614 58.9878ZM177.33 50.0204L176.752 49.9845L176.71 50.6539L177.378 50.5978L177.33 50.0204ZM180.405 49.7623L180.454 50.3396L181.124 50.2834L180.969 49.6288L180.405 49.7623ZM177.981 39.5261L178.545 39.3926L177.403 39.4902L177.981 39.5261ZM172.276 59.4626L175.098 33.3659L173.946 33.2413L171.124 59.338L172.276 59.4626ZM174.57 33.8809L180.372 33.3939L180.275 32.2393L174.473 32.7263L174.57 33.8809ZM179.766 32.9734L186.867 58.2371L187.982 57.9235L180.881 32.6598L179.766 32.9734ZM187.376 57.503L182.526 57.9102L182.623 59.0648L187.473 58.6576L187.376 57.503ZM183.136 58.3468L181.743 52.781L180.619 53.0623L182.012 58.6281L183.136 58.3468ZM181.133 52.3443L177.075 52.685L177.172 53.8396L181.23 53.499L181.133 52.3443ZM176.546 53.211L176.037 58.9365L177.191 59.0391L177.7 53.3136L176.546 53.211ZM176.566 58.4105L171.652 58.823L171.749 59.9776L176.663 59.5651L176.566 58.4105ZM177.378 50.5978L180.454 50.3396L180.357 49.185L177.282 49.4431L177.378 50.5978ZM180.969 49.6288L178.545 39.3926L177.418 39.6595L179.841 49.8958L180.969 49.6288ZM177.403 39.4902L176.752 49.9845L177.908 50.0563L178.56 39.562L177.403 39.4902ZM190.757 57.8006L190.18 57.849L190.228 58.4263L190.806 58.3779L190.757 57.8006ZM189.903 47.6241L190.48 47.5757L190.473 47.4847L190.437 47.4005L189.903 47.6241ZM183.593 32.5422L183.544 31.9649L182.751 32.0315L183.058 32.7658L183.593 32.5422ZM188.506 32.1297L189.044 31.9148L188.885 31.5165L188.458 31.5524L188.506 32.1297ZM192.023 40.9333L191.485 41.1482L192.214 42.9738L192.592 41.0445L192.023 40.9333ZM193.832 31.6826L193.784 31.1053L193.348 31.1419L193.264 31.5714L193.832 31.6826ZM198.588 31.2834L199.152 31.4127L199.329 30.6398L198.539 30.7061L198.588 31.2834ZM194.943 47.201L194.379 47.0717L194.359 47.1596L194.366 47.2494L194.943 47.201ZM195.798 57.3774L195.846 57.9547L196.424 57.9063L196.375 57.3289L195.798 57.3774ZM191.334 57.7521L190.48 47.5757L189.326 47.6726L190.18 57.849L191.334 57.7521ZM190.437 47.4005L184.127 32.3186L183.058 32.7658L189.368 47.8477L190.437 47.4005ZM183.641 33.1195L188.555 32.707L188.458 31.5524L183.544 31.9649L183.641 33.1195ZM187.968 32.3446L191.485 41.1482L192.561 40.7184L189.044 31.9148L187.968 32.3446ZM192.592 41.0445L194.401 31.7938L193.264 31.5714L191.454 40.8221L192.592 41.0445ZM193.881 32.2599L198.636 31.8607L198.539 30.7061L193.784 31.1053L193.881 32.2599ZM198.023 31.1541L194.379 47.0717L195.508 47.3303L199.152 31.4127L198.023 31.1541ZM194.366 47.2494L195.22 57.4259L196.375 57.3289L195.521 47.1525L194.366 47.2494ZM195.749 56.8001L190.709 57.2232L190.806 58.3779L195.846 57.9547L195.749 56.8001Z" fill="black" mask="url(#path-2-outside-1_1155_87)"/>
<rect x="92.3142" y="74.2282" width="69.5218" height="22.5476" rx="3.38214" transform="rotate(-13.377 92.3142 74.2282)" fill="black"/>
<rect x="89.9138" y="72.8782" width="70.1604" height="23.1863" rx="3.70147" transform="rotate(-13.377 89.9138 72.8782)" fill="#F02D32" stroke="black" stroke-width="0.638652"/>
<path d="M104.476 86.3507L102.367 77.4833L108.23 76.0891L108.574 77.5382L104.519 78.5024L105.085 80.8822L108.608 80.0443L108.956 81.5067L105.433 82.3445L106.284 85.9208L104.476 86.3507ZM114.509 84.1753C113.41 84.4367 112.513 84.3269 111.818 83.8461C111.123 83.3652 110.639 82.5487 110.365 81.3965C110.072 80.1645 110.138 79.203 110.564 78.5118C110.998 77.8186 111.747 77.3455 112.811 77.0925C113.555 76.9155 114.207 76.9009 114.767 77.0488C115.324 77.1878 115.785 77.4903 116.149 77.9563C116.521 78.4202 116.8 79.0421 116.986 79.822C117.26 80.9742 117.181 81.9246 116.751 82.6731C116.329 83.4196 115.582 83.9203 114.509 84.1753ZM114.18 82.7927C114.57 82.7 114.864 82.5365 115.061 82.3023C115.267 82.0661 115.39 81.7747 115.429 81.4282C115.466 81.0729 115.431 80.6692 115.324 80.2172C115.204 79.712 115.044 79.3147 114.844 79.0251C114.653 78.7334 114.415 78.5418 114.131 78.4501C113.856 78.3563 113.528 78.3548 113.147 78.4454C112.757 78.5382 112.461 78.6927 112.26 78.9092C112.058 79.1256 111.938 79.4071 111.899 79.7535C111.868 80.0979 111.911 80.5138 112.027 81.0013C112.195 81.7103 112.452 82.2204 112.798 82.5315C113.144 82.8426 113.604 82.9297 114.18 82.7927ZM119.287 82.8283L117.849 76.7793C117.954 76.6701 118.146 76.5121 118.425 76.3054C118.712 76.0965 119.052 75.8938 119.446 75.6973C119.837 75.4919 120.245 75.3386 120.671 75.2374C120.99 75.1615 121.249 75.1281 121.448 75.137C121.653 75.1349 121.817 75.1567 121.941 75.2023L122.244 76.4786C122.061 76.4941 121.851 76.5205 121.617 76.5575C121.391 76.5925 121.16 76.6429 120.922 76.7086C120.692 76.7634 120.468 76.826 120.251 76.8965C120.042 76.9648 119.861 77.0312 119.708 77.0957L120.976 82.4268L119.287 82.8283ZM130.096 80.4126C129.723 80.5011 129.358 80.5411 129 80.5325C128.651 80.5219 128.318 80.4794 128.001 80.405L127.599 78.7166C127.92 78.8463 128.221 78.9481 128.501 79.022C128.787 79.085 129.068 79.0838 129.343 79.0184C129.786 78.913 130.096 78.7222 130.274 78.4458C130.461 78.1673 130.494 77.7755 130.374 77.2703L128.923 71.1681L130.731 70.7382L132.204 76.9334C132.337 77.4917 132.362 77.9726 132.28 78.3761C132.207 78.7774 132.063 79.116 131.847 79.392C131.632 79.6679 131.37 79.8848 131.061 80.0425C130.754 80.2091 130.432 80.3325 130.096 80.4126ZM137.31 78.7531C136.938 78.8417 136.575 78.8905 136.221 78.8997C135.867 78.9089 135.539 78.8653 135.235 78.769C134.929 78.6639 134.662 78.4884 134.435 78.2428C134.215 77.9861 134.053 77.6406 133.95 77.2064C133.843 76.7543 133.845 76.3511 133.957 75.9966C134.068 75.6333 134.281 75.3297 134.598 75.0859C134.921 74.8311 135.344 74.6415 135.867 74.5171C136.186 74.4413 136.49 74.4017 136.78 74.3984C137.067 74.3862 137.333 74.4025 137.578 74.4473C137.823 74.4921 138.03 74.5553 138.199 74.6368L138.543 75.5522C138.328 75.4724 138.065 75.4318 137.756 75.4305C137.453 75.4182 137.134 75.452 136.797 75.5321C136.327 75.6438 135.995 75.8024 135.8 76.0079C135.606 76.2134 135.546 76.4756 135.622 76.7947C135.675 77.0163 135.781 77.1877 135.941 77.3088C136.099 77.4211 136.285 77.494 136.499 77.5274C136.71 77.5519 136.923 77.5389 137.135 77.4883C137.623 77.3724 137.966 77.2581 138.164 77.1455C138.368 77.0219 138.444 76.8493 138.392 76.6277L137.763 73.9821C137.659 73.5478 137.447 73.2659 137.126 73.1362C136.803 72.9977 136.393 72.9875 135.897 73.1055C135.515 73.1961 135.141 73.3553 134.774 73.5831C134.405 73.8021 134.12 74.043 133.921 74.3058L133.557 72.777C133.76 72.5694 134.088 72.3511 134.539 72.122C134.99 71.893 135.491 71.7131 136.04 71.5825C136.27 71.5277 136.519 71.4919 136.787 71.4751C137.055 71.4582 137.315 71.4712 137.569 71.5139C137.831 71.5545 138.081 71.6402 138.318 71.7711C138.553 71.8931 138.76 72.0734 138.938 72.3119C139.115 72.5415 139.247 72.8424 139.336 73.2147L140.091 76.392C140.19 76.8086 140.135 77.1682 139.927 77.4707C139.715 77.7644 139.386 78.0114 138.937 78.2117C138.49 78.4209 137.948 78.6014 137.31 78.7531ZM144.176 76.9095L139.778 70.8762L141.586 70.4462L145.03 75.3018L144.624 75.4264L145.322 69.5578L147.076 69.1405L145.865 76.508L144.176 76.9095ZM152.266 75.1964C151.894 75.2849 151.531 75.3338 151.177 75.343C150.824 75.3521 150.495 75.3086 150.191 75.2123C149.885 75.1071 149.619 74.9317 149.392 74.686C149.171 74.4294 149.01 74.0839 148.906 73.6496C148.799 73.1976 148.801 72.7944 148.914 72.4399C149.024 72.0766 149.237 71.773 149.554 71.5292C149.877 71.2743 150.3 71.0848 150.823 70.9604C151.142 70.8845 151.447 70.8449 151.736 70.8416C152.024 70.8295 152.29 70.8458 152.534 70.8906C152.779 70.9354 152.986 70.9985 153.155 71.08L153.5 71.9955C153.284 71.9157 153.021 71.8751 152.712 71.8737C152.409 71.8614 152.09 71.8953 151.753 71.9754C151.283 72.0871 150.951 72.2457 150.756 72.4512C150.562 72.6566 150.502 72.9189 150.578 73.238C150.631 73.4595 150.737 73.6309 150.897 73.7521C151.055 73.8644 151.241 73.9372 151.455 73.9706C151.667 73.9952 151.879 73.9821 152.092 73.9316C152.579 73.8156 152.922 73.7014 153.12 73.5887C153.325 73.4651 153.401 73.2925 153.348 73.071L152.719 70.4254C152.615 69.9911 152.403 69.7091 152.082 69.5795C151.759 69.441 151.349 69.4307 150.853 69.5488C150.472 69.6394 150.098 69.7986 149.73 70.0264C149.361 70.2453 149.077 70.4862 148.877 70.7491L148.513 69.2202C148.717 69.0126 149.044 68.7943 149.495 68.5653C149.946 68.3363 150.447 68.1564 150.996 68.0257C151.227 67.9709 151.476 67.9351 151.743 67.9183C152.011 67.9015 152.271 67.9144 152.525 67.9571C152.788 67.9977 153.037 68.0835 153.275 68.2144C153.51 68.3364 153.716 68.5166 153.895 68.7551C154.071 68.9848 154.204 69.2857 154.292 69.6579L155.048 72.8353C155.147 73.2519 155.092 73.6114 154.883 73.9139C154.672 74.2076 154.342 74.4546 153.893 74.655C153.447 74.8642 152.904 75.0446 152.266 75.1964Z" fill="white"/>
<circle cx="95.3234" cy="76.2096" r="1.43604" transform="rotate(-13.377 95.3234 76.2096)" fill="white" stroke="black" stroke-width="0.319326"/>
<path d="M94.7292 76.2761C88.7465 73.0932 88.2517 63.7363 87.7207 60.8739C90.6915 60.6246 92.7992 74.2373 95.1398 75.4406C97.0841 76.4401 95.3242 76.5927 94.7292 76.2761Z" stroke="black" stroke-width="0.579348"/>
<path d="M92.6627 73.5687C92.3279 73.3682 92.8499 72.3656 94.1602 72.3215C96.0927 72.2562 97.4884 74.4423 96.0278 74.5649C95.3914 74.6183 94.5959 74.6851 94.0824 75.2114C93.565 74.7741 92.8615 73.6878 92.6627 73.5687Z" fill="#F02D32"/>
<path d="M90.2287 66.5598C89.649 65.3801 88.7157 63.1337 89.2718 62.7948C89.8815 62.4231 90.2216 62.0207 90.3054 61.7466C91.0442 62.913 92.6678 65.4578 92.5619 65.7231C92.4559 65.9883 90.9048 66.3428 90.2287 66.5598Z" fill="white"/>
<path d="M69.3288 14.9263C69.8379 13.526 71.4782 10.673 73.9671 10.4641C77.0782 10.2029 78.3249 13.8578 77.6777 15.4787C77.3256 16.3604 75.0144 18.7507 72.5809 20.5037M72.5809 20.5037C70.5407 21.9733 68.4147 22.9948 67.2851 22.3038C65.3035 21.0916 67.0113 19.6638 68.1128 19.1013C68.5602 18.668 70.0135 18.4835 72.5809 20.5037ZM72.5809 20.5037C73.062 20.8823 73.5824 21.3384 74.1426 21.8848C77.6915 25.3465 80.1581 22.633 80.9478 20.8436C81.3966 19.9704 82.0944 17.7083 81.2946 15.645C80.4948 13.5817 83.873 13.3921 85.6621 13.5552C86.025 13.5248 86.518 14.0473 85.586 16.3813C84.4211 19.2988 81.7313 30.1769 86.4252 31.9759M89.1151 14.1935C89.5541 14.6896 90.1054 15.6319 90.4611 16.722M90.4611 16.722C91.0034 18.384 91.0912 20.3896 89.6339 21.682C87.1008 23.9285 86.9689 18.801 90.4611 16.722ZM90.4611 16.722C91.1272 16.3255 91.9252 16.0398 92.8636 15.9375C92.8686 15.9369 92.8736 15.9364 92.8785 15.9358M92.8785 15.9358C96.5306 15.5321 95.2976 13.6944 94.2228 12.8248C93.1139 11.6708 92.6474 13.691 92.8785 15.9358ZM92.8785 15.9358C92.9646 16.7722 93.1476 17.6397 93.4302 18.3859C93.7466 19.3977 93.7579 23.1819 94.0166 23.5061M104.032 13.8311C102.398 12.4017 99.1565 10.9821 99.2637 16.7378C99.3758 17.1787 99.5163 17.5292 99.6774 17.8034M99.6774 17.8034C100.592 19.3601 102.167 18.457 102.946 17.6813C103.517 16.519 102.214 14.791 99.6774 17.8034ZM99.6774 17.8034C99.2425 18.3198 98.7714 18.9755 98.2673 19.7972C96.1053 25.9938 104.976 30.6695 107.991 21.8006M130.508 12.2351C128.874 10.8058 125.632 9.38614 125.739 15.1419C125.851 15.5828 125.992 15.9333 126.153 16.2075M126.153 16.2075C127.067 17.7642 128.643 16.8611 129.421 16.0854C129.992 14.9231 128.689 13.1951 126.153 16.2075ZM126.153 16.2075C125.718 16.7239 125.247 17.3796 124.743 18.2013C122.581 24.3979 131.452 29.0736 134.467 20.2047M116.572 12.8403C114.294 13.0837 110.508 14.5085 113.58 18.2609C114.307 19.4531 116.64 19.2572 117.923 17.7397M108.871 12.5468C108.539 14.1934 108.226 17.9271 109.627 19.6893M121.429 13.0591C121.17 14.3477 120.925 17.2697 122.021 18.6488M118.728 12.9725C118.397 14.6191 118.084 18.3528 119.485 20.115" stroke="#0A0A0A" stroke-width="0.832541" stroke-linecap="round"/>
</svg>
