<svg width="60" height="60" viewBox="0 0 60 60" fill="none" xmlns="http://www.w3.org/2000/svg">
<rect x="1" y="1" width="58" height="58" rx="29" fill="white"/>
<rect x="1" y="1" width="58" height="58" rx="29" stroke="black" stroke-width="2"/>
<path d="M20.3331 16.5C19.5816 16.5 18.861 16.7985 18.3296 17.3299C17.7983 17.8612 17.4998 18.5819 17.4998 19.3333C17.4998 20.0848 17.7983 20.8054 18.3296 21.3368C18.861 21.8682 19.5816 22.1667 20.3331 22.1667C21.0845 22.1667 21.8052 21.8682 22.3366 21.3368C22.8679 20.8054 23.1664 20.0848 23.1664 19.3333C23.1664 18.5819 22.8679 17.8612 22.3366 17.3299C21.8052 16.7985 21.0845 16.5 20.3331 16.5ZM17.6664 24.5C17.6222 24.5 17.5798 24.5176 17.5486 24.5488C17.5173 24.5801 17.4998 24.6225 17.4998 24.6667V42C17.4998 42.092 17.5744 42.1667 17.6664 42.1667H22.9998C23.044 42.1667 23.0864 42.1491 23.1176 42.1178C23.1489 42.0866 23.1664 42.0442 23.1664 42V24.6667C23.1664 24.6225 23.1489 24.5801 23.1176 24.5488C23.0864 24.5176 23.044 24.5 22.9998 24.5H17.6664ZM26.3331 24.5C26.2889 24.5 26.2465 24.5176 26.2152 24.5488C26.184 24.5801 26.1664 24.6225 26.1664 24.6667V42C26.1664 42.092 26.2411 42.1667 26.3331 42.1667H31.6664C31.7106 42.1667 31.753 42.1491 31.7843 42.1178C31.8155 42.0866 31.8331 42.0442 31.8331 42V32.6667C31.8331 32.0036 32.0965 31.3677 32.5653 30.8989C33.0342 30.4301 33.67 30.1667 34.3331 30.1667C34.9961 30.1667 35.632 30.4301 36.1009 30.8989C36.5697 31.3677 36.8331 32.0036 36.8331 32.6667V42C36.8331 42.092 36.9078 42.1667 36.9998 42.1667H42.3331C42.3773 42.1667 42.4197 42.1491 42.4509 42.1178C42.4822 42.0866 42.4998 42.0442 42.4998 42V30.5067C42.4998 27.2707 39.6864 24.74 36.4664 25.032C35.4701 25.1227 34.4942 25.3693 33.5744 25.7627L31.8331 26.5093V24.6667C31.8331 24.6225 31.8155 24.5801 31.7843 24.5488C31.753 24.5176 31.7106 24.5 31.6664 24.5H26.3331Z" fill="black"/>
</svg>
