<svg width="60" height="60" viewBox="0 0 60 60" fill="none" xmlns="http://www.w3.org/2000/svg">
<rect x="1" y="1" width="58" height="58" rx="29" fill="white"/>
<rect x="1" y="1" width="58" height="58" rx="29" stroke="black" stroke-width="2"/>
<path d="M39.4001 20.5471C38.1775 19.3125 36.7214 18.3337 35.1167 17.6675C33.5121 17.0014 31.7908 16.6613 30.0534 16.6671C22.7734 16.6671 16.8401 22.6004 16.8401 29.8804C16.8401 32.2137 17.4534 34.4804 18.6001 36.4804L16.7334 43.3337L23.7334 41.4937C25.6667 42.5471 27.8401 43.1071 30.0534 43.1071C37.3334 43.1071 43.2667 37.1737 43.2667 29.8937C43.2667 26.3604 41.8934 23.0404 39.4001 20.5471ZM30.0534 40.8671C28.0801 40.8671 26.1467 40.3337 24.4534 39.3337L24.0534 39.0937L19.8934 40.1871L21.0001 36.1337L20.7334 35.7204C19.6368 33.9698 19.0546 31.9461 19.0534 29.8804C19.0534 23.8271 23.9867 18.8937 30.0401 18.8937C32.9734 18.8937 35.7334 20.0404 37.8001 22.1204C38.8236 23.1389 39.6346 24.3505 40.1862 25.6848C40.7378 27.0192 41.019 28.4498 41.0134 29.8937C41.0401 35.9471 36.1067 40.8671 30.0534 40.8671ZM36.0801 32.6537C35.7467 32.4937 34.1201 31.6937 33.8267 31.5737C33.5201 31.4671 33.3067 31.4137 33.0801 31.7337C32.8534 32.0671 32.2267 32.8137 32.0401 33.0271C31.8534 33.2537 31.6534 33.2804 31.3201 33.1071C30.9867 32.9471 29.9201 32.5871 28.6667 31.4671C27.6801 30.5871 27.0267 29.5071 26.8267 29.1737C26.6401 28.8404 26.8001 28.6671 26.9734 28.4937C27.1201 28.3471 27.3067 28.1071 27.4667 27.9204C27.6267 27.7337 27.6934 27.5871 27.8001 27.3737C27.9067 27.1471 27.8534 26.9604 27.7734 26.8004C27.6934 26.6404 27.0267 25.0137 26.7601 24.3471C26.4934 23.7071 26.2134 23.7871 26.0134 23.7737H25.3734C25.1467 23.7737 24.8001 23.8537 24.4934 24.1871C24.2001 24.5204 23.3467 25.3204 23.3467 26.9471C23.3467 28.5737 24.5334 30.1471 24.6934 30.3604C24.8534 30.5871 27.0267 33.9204 30.3334 35.3471C31.1201 35.6937 31.7334 35.8937 32.2134 36.0404C33.0001 36.2937 33.7201 36.2537 34.2934 36.1737C34.9334 36.0804 36.2534 35.3737 36.5201 34.6004C36.8001 33.8271 36.8001 33.1737 36.7067 33.0271C36.6134 32.8804 36.4134 32.8137 36.0801 32.6537Z" fill="black"/>
</svg>
