<svg width="168" height="18" viewBox="0 0 168 18" fill="none" xmlns="http://www.w3.org/2000/svg">
<path d="M2 16L22.1364 3.9642C25.0969 2.19467 28.8582 2.52172 31.4688 4.77566L40.0964 12.2243C42.707 14.4783 46.4683 14.8053 49.4288 13.0358L64.7873 3.85585C67.6592 2.13927 71.296 2.39121 73.9037 4.4874L83.7194 12.3774C86.4093 14.5396 90.1827 14.7331 93.0796 12.8572L106.356 4.26058C109.34 2.32832 113.241 2.59708 115.932 4.92032L124.031 11.9123C126.812 14.3139 130.873 14.5114 133.874 12.391L144.672 4.76374C147.774 2.57264 151.989 2.86424 154.759 5.46162L166 16" stroke="black" stroke-width="4"/>
</svg>
