<svg width="463" height="483" viewBox="0 0 463 483" fill="none" xmlns="http://www.w3.org/2000/svg">
<g clip-path="url(#clip0_897_312)">
<path fill-rule="evenodd" clip-rule="evenodd" d="M251.707 11.9285C203.895 68.6007 159.593 128.694 133.538 198.877C120.554 234.055 105.289 288.71 103.008 326.082C101.956 341.961 100.201 365.209 122.923 361.436C128.537 360.471 135.292 355.559 139.854 352.225C152.838 342.926 164.944 335.82 179.683 329.24C196.877 321.696 217.581 315.73 236.267 316.958C258.199 318.274 279.605 324.854 296.185 339.943C304.256 347.224 314.784 364.419 326.89 364.419C349.085 364.419 351.454 298.185 351.454 283.271C351.454 261.339 345.313 238.266 339.084 217.299C318.029 146.591 284.254 77.9864 251.707 11.9285Z" fill="white"/>
<path fill-rule="evenodd" clip-rule="evenodd" d="M345.922 239.068C353.116 231.875 359.783 226.611 359.783 216.347C374.083 200.029 386.979 184.063 401.98 168.36C403.91 171.693 416.28 171.518 423.473 166.868C423.912 166.605 424.438 166.868 424.965 166.868C431.193 166.868 439.089 172.922 444.967 171.43C450.318 170.114 452.95 167.395 454.266 162.131C454.792 159.938 452.16 159.324 451.02 157.569C453.038 155.551 458.915 158.797 461.811 149.937C464.881 140.813 455.933 136.251 452.687 134.584C454.968 134.497 459.266 127.566 458.828 123.882C458.565 122.039 454.441 117.39 452.687 116.337C451.283 115.46 449.616 114.933 447.95 114.583C442.335 113.618 435.404 115.021 429.527 113.091C428.825 112.916 428.035 112.302 428.035 111.6C427.948 106.775 431.018 98.7915 429.527 94.8438C426.193 85.4569 424.438 80.6319 414.35 77.9123C408.823 76.4209 404.963 78.2632 400.489 80.9828C399.875 81.3337 399.261 81.86 398.91 82.4741C398.822 82.7373 398.822 85.3692 398.91 85.5446C399.261 86.1587 400.226 86.4219 400.489 87.036C403.647 95.107 407.858 115.46 405.051 123.882C403.121 129.584 396.015 135.637 394.348 143.884C392.856 151.253 390.926 160.201 394.348 162.131L358.993 208.013C353.291 199.503 344.167 200.644 334.342 200.644L345.922 239.068Z" fill="black"/>
<path fill-rule="evenodd" clip-rule="evenodd" d="M138.273 182.113C120.465 179.13 121.517 181.411 116.78 188.254C100.726 187.903 87.3913 189.921 72.2144 197.378C62.1257 202.29 63.2661 220.889 61.5116 229.486C61.4238 230.188 60.722 231.065 60.0202 231.065C56.6865 227.556 51.686 232.469 52.3879 237.294C45.4574 237.82 37.5619 245.891 37.0355 249.488C35.4564 259.84 12.5594 242.119 4.75163 243.347C2.1198 243.786 0.540696 248.786 0.189785 250.979C-0.336583 254.138 0.102057 258.436 3.17253 260.279C6.76937 262.384 31.7718 264.314 32.4736 266.332C33.0877 268.262 21.5954 271.771 20.104 272.473C10.6294 276.684 9.83985 277.298 6.24301 286.334C2.47071 295.633 16.244 296.335 23.1745 295.457C29.4032 294.668 38.0882 280.895 44.6678 284.755C50.9842 288.615 46.7733 300.546 46.1592 306.248C45.3696 313.617 43.7905 321.513 52.3879 321.513C61.3361 321.513 62.3011 312.915 63.0907 304.757C63.3538 301.686 62.8275 298.528 63.0907 295.457C63.5293 290.369 67.828 275.192 75.3726 277.035C83.619 279.052 79.8467 289.316 96.8659 289.316C99.5855 289.316 102.48 288.088 104.498 286.334C106.691 284.316 108.007 281.333 109.06 278.526C110.113 275.631 110.551 272.473 110.551 269.402C110.551 265.718 107.656 263.349 104.498 263.349C101.077 263.349 97.0414 266.332 95.3745 266.332C94.1463 266.332 93.1813 265.367 92.1286 264.84C87.479 262.56 82.0399 259.226 78.443 255.541C78.3553 255.454 75.548 251.33 75.3726 250.979C80.3731 249.049 77.1271 235.539 72.2144 235.715C71.9512 234.75 72.0389 233.609 72.2144 232.557C73.5303 225.363 76.0744 207.993 81.5135 203.431C89.5845 196.676 105.99 193.254 116.78 191.237C116.868 198.518 124.676 201.15 130.553 203.431L138.273 182.113Z" fill="black"/>
<path fill-rule="evenodd" clip-rule="evenodd" d="M251.709 15.0049C195.475 71.2385 160.208 129.227 132.048 203.444C193.457 180.109 277.676 182.653 337.594 209.585C315.662 148.087 285.659 72.29 251.709 15.0049Z" fill="black"/>
<path fill-rule="evenodd" clip-rule="evenodd" d="M231.441 129.745C263.549 129.745 290.569 152.817 290.569 183.259C290.569 213.525 260.917 237.299 228.897 236.597C189.682 235.72 171.435 215.28 171.435 185.014C171.435 154.572 199.332 129.745 231.441 129.745Z" fill="url(#paint0_radial_897_312)" stroke="#231F20" stroke-width="11.4046"/>
<path d="M449.533 116.33L441.901 117.821L431.198 119.312L424.969 123.875V131.507" stroke="#666666" stroke-width="0.263184"/>
<path d="M452.691 134.571H437.339L426.548 137.641L423.478 142.291L426.548 148.432" stroke="#666666" stroke-width="0.263184"/>
<path d="M451.024 157.547L441.901 154.476L432.777 152.984L424.969 156.054L423.478 163.774" stroke="#666666" stroke-width="0.263184"/>
<path fill-rule="evenodd" clip-rule="evenodd" d="M251.707 11.9285C203.895 68.6007 159.593 128.694 133.538 198.877C120.554 234.055 105.289 288.71 103.008 326.082C101.956 341.961 100.201 365.209 122.923 361.436C128.537 360.471 135.292 355.559 139.854 352.225C152.838 342.926 164.944 335.82 179.683 329.24C196.877 321.696 217.581 315.73 236.267 316.958C258.199 318.274 279.605 324.854 296.185 339.943C304.256 347.224 314.784 364.419 326.89 364.419C349.085 364.419 351.454 298.185 351.454 283.271C351.454 261.339 345.313 238.266 339.084 217.299C318.029 146.591 284.254 77.9863 251.707 11.9285Z" stroke="#231F20" stroke-width="13.1592"/>
</g>
<path d="M183.476 430.752C167.565 405.518 173.22 352.63 178.172 328.596C178.257 328.185 178.587 327.889 179.003 327.829L233.239 320.033C233.389 320.011 233.542 320.024 233.687 320.071L282.209 335.667C282.57 335.783 282.835 336.099 282.891 336.474C290.212 385.512 276.771 422.182 268.493 435.576C268.149 436.133 267.376 436.187 266.959 435.682C261.281 428.812 257.065 417.876 254.888 410.682C254.583 409.674 253.039 409.702 252.779 410.722C244.713 442.359 230.323 467.118 223.165 476.887C222.759 477.44 221.943 477.414 221.587 476.828C212.553 461.963 206.363 428.506 203.547 407.389C203.39 406.21 200.402 405.947 199.924 407.036C195.034 418.193 185.022 431.436 183.763 431.231C183.574 431.201 183.578 430.914 183.476 430.752Z" stroke="#231F20" stroke-width="10"/>
<defs>
<radialGradient id="paint0_radial_897_312" cx="0" cy="0" r="1" gradientUnits="userSpaceOnUse" gradientTransform="translate(211.507 158.657) scale(79.8365 79.8365)">
<stop stop-color="#FBC8B4"/>
<stop offset="1" stop-color="#ED1C24"/>
</radialGradient>
<clipPath id="clip0_897_312">
<rect width="462.447" height="371" fill="white"/>
</clipPath>
</defs>
</svg>
