<svg xmlns="http://www.w3.org/2000/svg" xmlns:xlink="http://www.w3.org/1999/xlink" width="204px" height="162px" viewBox="0 0 204 162" version="1.1">
<g id="surface1">
<path style="fill-rule: nonzero; fill: rgb(255, 255, 255); fill-opacity: 1; opacity: 1; visibility: visible;" d="M 0 0 C 67.320312 0 134.640625 0 204 0 C 204 53.460938 204 106.921875 204 162 C 136.679688 162 69.359375 162 0 162 C 0 108.539062 0 55.078125 0 0 Z M 0 0 " data-index="0"></path>
<path style=" stroke:none;fill-rule:nonzero;fill:rgb(20%,19.607843%,19.607843%);fill-opacity:1;" d="M 55.25 36.28125 C 56.496094 36.375 56.496094 36.375 57.90625 36.703125 C 58.644531 37.511719 58.644531 37.511719 59.21875 38.589844 C 59.441406 39 59.664062 39.40625 59.894531 39.828125 C 60.125 40.277344 60.355469 40.722656 60.59375 41.1875 C 60.839844 41.644531 61.085938 42.105469 61.339844 42.578125 C 64.441406 48.4375 67.292969 54.382812 70.125 60.328125 C 72.726562 60.050781 75.128906 59.476562 77.601562 58.800781 C 78.007812 58.691406 78.414062 58.585938 78.832031 58.472656 C 80.125 58.125 81.417969 57.777344 82.710938 57.429688 C 97.660156 53.390625 97.660156 53.390625 100.40625 54 C 100.121094 54.074219 99.839844 54.148438 99.546875 54.222656 C 96.578125 54.996094 93.613281 55.777344 90.652344 56.566406 C 89.550781 56.855469 88.445312 57.144531 87.339844 57.433594 C 85.742188 57.847656 84.152344 58.273438 82.558594 58.695312 C 82.070312 58.820312 81.582031 58.949219 81.078125 59.078125 C 78.1875 59.859375 76.003906 60.789062 73.671875 62.363281 C 72.78125 62.859375 72.78125 62.859375 71.1875 62.859375 C 71.714844 64.113281 72.238281 65.367188 72.78125 66.65625 C 73.503906 66.480469 74.226562 66.308594 74.972656 66.128906 C 75.453125 66.015625 75.933594 65.902344 76.429688 65.785156 C 77.617188 65.503906 78.804688 65.21875 79.992188 64.929688 C 80.957031 64.703125 80.957031 64.703125 81.945312 64.46875 C 82.851562 64.25 82.851562 64.25 83.78125 64.027344 C 85.496094 63.710938 86.964844 63.640625 88.71875 63.703125 C 87.363281 64.421875 86.34375 64.816406 84.835938 65.246094 C 84.175781 65.4375 84.175781 65.4375 83.5 65.628906 C 83.042969 65.757812 82.582031 65.890625 82.109375 66.023438 C 81.203125 66.28125 80.296875 66.542969 79.390625 66.800781 C 78.988281 66.914062 78.585938 67.027344 78.171875 67.148438 C 77.015625 67.484375 77.015625 67.484375 75.921875 67.964844 C 74.90625 68.34375 74.90625 68.34375 73.3125 68.34375 C 73.503906 68.796875 73.699219 69.246094 73.898438 69.710938 C 75.613281 73.816406 77.039062 77.941406 78.257812 82.160156 C 78.460938 82.859375 78.460938 82.859375 78.667969 83.574219 C 79.300781 85.804688 79.871094 88.011719 80.21875 90.28125 C 81.972656 90.699219 83.726562 91.117188 85.53125 91.546875 C 85.417969 90.957031 85.300781 90.363281 85.183594 89.753906 C 84.476562 85.996094 83.777344 82.246094 83.703125 78.441406 C 83.695312 77.925781 83.683594 77.40625 83.675781 76.871094 C 83.988281 75.253906 84.632812 74.558594 86.0625 73.40625 C 87.402344 72.875 88.351562 72.941406 89.847656 72.957031 C 90.574219 72.964844 90.574219 72.964844 91.3125 72.96875 C 91.683594 72.972656 92.054688 72.980469 92.4375 72.984375 C 91.894531 75.53125 91.066406 77.148438 89.25 79.3125 C 88.113281 82.023438 88.054688 84.734375 88.121094 87.566406 C 88.132812 88.277344 88.144531 88.984375 88.15625 89.695312 C 88.164062 90.046875 88.167969 90.394531 88.175781 90.753906 C 88.179688 91.015625 88.183594 91.277344 88.1875 91.546875 C 98.355469 93.429688 108.539062 95.253906 118.734375 97.03125 C 119.105469 97.097656 119.472656 97.160156 119.855469 97.226562 C 131.207031 99.207031 142.566406 101.132812 154.0625 102.515625 C 154.445312 102.566406 154.824219 102.613281 155.21875 102.664062 C 158.367188 103.03125 161.511719 102.984375 164.6875 102.964844 C 165.25 102.960938 165.816406 102.960938 166.394531 102.957031 C 167.773438 102.953125 169.152344 102.945312 170.53125 102.9375 C 169.25 102.25 167.964844 101.566406 166.679688 100.882812 C 166.316406 100.6875 165.957031 100.492188 165.582031 100.292969 C 165.230469 100.105469 164.875 99.917969 164.511719 99.722656 C 164.191406 99.550781 163.867188 99.378906 163.535156 99.203125 C 163.214844 99.042969 162.894531 98.882812 162.5625 98.71875 C 162.25 98.558594 161.933594 98.398438 161.613281 98.234375 C 159.9375 97.722656 158.492188 97.8125 156.703125 97.851562 C 155.96875 97.863281 155.234375 97.871094 154.5 97.882812 C 153.347656 97.902344 152.199219 97.929688 151.046875 97.957031 C 149.933594 97.980469 148.820312 97.996094 147.703125 98.011719 C 147.039062 98.023438 146.375 98.039062 145.6875 98.054688 C 143.96875 97.875 143.96875 97.875 142.691406 97.078125 C 141.429688 95.753906 141.519531 94.84375 141.601562 93.226562 C 142.210938 90.058594 143.789062 87 145.761719 84.21875 C 146.894531 82.207031 146.628906 80.539062 145.738281 78.5 C 145.179688 77.441406 144.585938 76.402344 143.964844 75.367188 C 142.5625 72.820312 142.847656 70.933594 144 68.34375 C 144.167969 68.066406 144.332031 67.785156 144.5 67.5 C 146.265625 68.902344 146.425781 70.886719 147 72.78125 C 147.875 74.652344 149.140625 75.882812 151.40625 76.78125 C 151.527344 76.496094 151.648438 76.214844 151.773438 75.921875 C 152.664062 74.324219 153.835938 72.964844 155.09375 71.535156 C 155.347656 71.238281 155.605469 70.945312 155.871094 70.640625 C 158.488281 67.671875 161.261719 64.816406 164.15625 62.015625 C 164.550781 61.628906 164.949219 61.246094 165.355469 60.847656 C 167.796875 58.5625 169.847656 56.992188 173.75 56.714844 C 175.84375 56.953125 175.84375 56.953125 177.335938 57.980469 C 179.714844 60.679688 180.351562 63.945312 180.691406 67.15625 C 180.734375 67.511719 180.773438 67.867188 180.816406 68.234375 C 181.285156 72.480469 181.5 76.742188 181.6875 81 C 186.777344 79.109375 189.390625 75.6875 191.78125 71.71875 C 193.925781 67.007812 195.046875 62.183594 192.84375 57.375 C 194.539062 57.007812 194.539062 57.007812 196.5625 56.953125 C 198.1875 58.035156 198.1875 58.035156 199.21875 59.484375 C 198.851562 60.855469 198.851562 60.855469 198.15625 62.015625 C 198.15625 62.292969 198.15625 62.574219 198.15625 62.859375 C 198.398438 62.679688 198.644531 62.503906 198.894531 62.320312 C 199.382812 61.972656 199.382812 61.972656 199.882812 61.621094 C 200.363281 61.273438 200.363281 61.273438 200.855469 60.921875 C 201.929688 60.296875 202.714844 60.128906 204 59.90625 C 204.011719 61.761719 204.023438 63.617188 204.027344 65.46875 C 204.03125 66.101562 204.035156 66.734375 204.039062 67.363281 C 204.046875 68.269531 204.050781 69.175781 204.050781 70.082031 C 204.054688 70.902344 204.054688 70.902344 204.058594 71.734375 C 204 72.984375 204 72.984375 203.46875 73.40625 C 202.308594 73.5 201.144531 73.585938 199.980469 73.671875 C 196.0625 74.109375 194.394531 74.9375 191.78125 77.203125 C 191.265625 77.601562 190.742188 77.996094 190.21875 78.390625 C 189.65625 78.820312 189.089844 79.25 188.527344 79.679688 C 188.265625 79.878906 188.003906 80.078125 187.738281 80.28125 C 183.582031 83.554688 181.800781 86.375 181.355469 91.019531 C 180.21875 99.964844 180.21875 99.964844 177.554688 102.609375 C 172.058594 106.105469 161.882812 104.828125 155.308594 104.296875 C 142.808594 103.171875 130.621094 100.851562 118.433594 98.441406 C 108.636719 96.507812 98.738281 94.695312 88.71875 93.65625 C 88.71875 94.910156 88.71875 96.164062 88.71875 97.453125 C 88.367188 97.453125 88.015625 97.453125 87.65625 97.453125 C 86.957031 95.925781 86.59375 94.882812 86.59375 93.234375 C 85.640625 93.152344 84.691406 93.074219 83.738281 92.996094 C 83.207031 92.953125 82.679688 92.910156 82.132812 92.863281 C 80.757812 92.722656 80.757812 92.722656 79.6875 93.234375 C 79.6875 92.957031 79.6875 92.675781 79.6875 92.390625 C 79.101562 92.375 79.101562 92.375 78.503906 92.359375 C 76.707031 92.308594 74.910156 92.257812 73.113281 92.207031 C 72.5 92.191406 71.882812 92.171875 71.25 92.15625 C 67.671875 92.050781 64.121094 91.875 60.5625 91.546875 C 60.492188 91.847656 60.417969 92.152344 60.34375 92.460938 C 59.390625 95.964844 57.835938 99.132812 55.25 102.09375 C 54.070312 102.671875 54.070312 102.671875 53.125 102.9375 C 53.347656 102.511719 53.347656 102.511719 53.574219 102.074219 C 56.890625 95.347656 60.441406 87.3125 57.375 80.15625 C 57.175781 80.441406 56.976562 80.726562 56.769531 81.019531 C 53.863281 85.042969 53.863281 85.042969 51.53125 86.0625 C 49.46875 86.335938 48.660156 86.230469 46.914062 85.296875 C 46.511719 84.992188 46.105469 84.6875 45.6875 84.375 C 45.359375 84.191406 45.03125 84.007812 44.691406 83.820312 C 43.890625 82.867188 44.046875 82.183594 44.324219 81.085938 C 46.125 75.523438 49.160156 70.09375 54.71875 66.234375 C 56.074219 65.65625 56.074219 65.65625 57.375 65.390625 C 58.96875 66.234375 58.96875 66.234375 59.242188 67.054688 C 59.328125 67.90625 59.414062 68.757812 59.5 69.609375 C 58.710938 69.738281 58.710938 69.738281 57.90625 69.875 C 53.835938 70.820312 51.148438 73.027344 48.976562 75.84375 C 47.179688 78.507812 47.203125 80.640625 47.8125 83.53125 C 49.527344 83.972656 49.800781 84.003906 51.53125 83.347656 C 53.464844 82.035156 54.292969 80.730469 55.25 78.890625 C 54.722656 78.890625 54.199219 78.890625 53.65625 78.890625 C 53.480469 79.308594 53.304688 79.726562 53.125 80.15625 C 52.335938 79.949219 52.335938 79.949219 51.53125 79.734375 C 51.53125 79.039062 51.53125 78.34375 51.53125 77.625 C 53.617188 76.921875 55.722656 76.417969 57.90625 75.9375 C 58.695312 75.730469 58.695312 75.730469 59.5 75.515625 C 59.761719 74.890625 59.761719 74.890625 60.03125 74.25 C 60.558594 74.25 61.082031 74.25 61.625 74.25 C 61.636719 76.082031 61.648438 77.914062 61.652344 79.746094 C 61.65625 80.367188 61.660156 80.992188 61.664062 81.613281 C 61.671875 82.507812 61.675781 83.40625 61.675781 84.300781 C 61.679688 84.839844 61.683594 85.378906 61.683594 85.9375 C 61.636719 87.058594 61.519531 87.953125 61.09375 89.015625 C 61.402344 89.007812 61.710938 89 62.03125 88.992188 C 65.699219 88.945312 69.21875 89.242188 72.847656 89.648438 C 73.40625 89.707031 73.964844 89.769531 74.539062 89.832031 C 75.902344 89.980469 77.265625 90.128906 78.625 90.28125 C 78.296875 87.292969 77.566406 84.484375 76.632812 81.578125 C 76.492188 81.136719 76.351562 80.695312 76.207031 80.238281 C 75.214844 77.164062 74.070312 74.167969 72.71875 71.183594 C 72.25 70.03125 72.25 70.03125 72.25 68.765625 C 71.722656 68.625 71.199219 68.488281 70.65625 68.34375 C 70.578125 67.898438 70.503906 67.457031 70.421875 67 C 70.191406 65.746094 69.925781 64.519531 69.59375 63.28125 C 68.367188 63.28125 67.140625 63.28125 65.875 63.28125 C 66.050781 62.863281 66.226562 62.445312 66.40625 62.015625 C 67.5 61.726562 67.5 61.726562 68.53125 61.59375 C 67.5 59.777344 66.464844 57.964844 65.429688 56.148438 C 65.0625 55.507812 64.699219 54.867188 64.332031 54.226562 C 62.546875 51.089844 60.757812 47.957031 58.851562 44.863281 C 58.601562 44.460938 58.355469 44.0625 58.101562 43.648438 C 57.652344 42.921875 57.195312 42.199219 56.734375 41.480469 C 55.609375 39.664062 54.980469 38.359375 55.25 36.28125 Z M 55.25 36.28125 " data-index="1"></path>
<path style="fill-rule: nonzero; fill: rgb(254, 102, 0); fill-opacity: 1; opacity: 1;" d="M 98.8125 98.71875 C 99.164062 99.136719 99.515625 99.554688 99.875 99.984375 C 98.226562 103.054688 95.832031 105.164062 92.96875 107.578125 C 88.316406 111.414062 88.316406 111.414062 87 116.417969 C 87.097656 117.363281 87.097656 117.363281 87.65625 118.546875 C 89.230469 119.101562 89.230469 119.101562 90.742188 118.601562 C 92.445312 117.699219 92.941406 117.175781 93.964844 115.832031 C 95.523438 113.847656 97.03125 112.859375 99.875 112.21875 C 102.183594 111.898438 103.714844 112 105.71875 113.0625 C 106.070312 113.339844 106.421875 113.621094 106.78125 113.90625 C 106.648438 115.433594 106.519531 116.21875 105.15625 117.335938 C 100.265625 119.8125 100.265625 119.8125 98.28125 119.8125 C 98.976562 121.128906 98.976562 121.128906 100.40625 121.921875 C 104.671875 122.203125 108.53125 121.382812 111.929688 119.285156 C 112.980469 118.550781 112.980469 118.550781 113.6875 117.703125 C 113.699219 116.121094 113.699219 116.121094 113.15625 114.75 C 113.683594 114.332031 113.683594 114.332031 114.21875 113.90625 C 115.613281 114.0625 115.613281 114.0625 116.875 114.328125 C 116.875 115.023438 116.875 115.71875 116.875 116.4375 C 117.375 116.515625 117.375 116.515625 117.882812 116.59375 C 118.316406 116.664062 118.75 116.734375 119.199219 116.804688 C 119.628906 116.875 120.0625 116.945312 120.507812 117.015625 C 121.65625 117.28125 121.65625 117.28125 122.71875 118.125 C 122.628906 119.019531 122.53125 119.910156 122.378906 120.796875 C 122.171875 122.023438 122.023438 123.246094 121.890625 124.480469 C 121.820312 125.074219 121.820312 125.074219 121.753906 125.679688 C 121.722656 125.972656 121.6875 126.261719 121.65625 126.5625 C 125.132812 126.203125 127.355469 125.890625 129.625 123.609375 C 129.933594 123.261719 130.238281 122.914062 130.554688 122.554688 C 132.628906 120.722656 134.976562 119.550781 138.085938 119.230469 C 141.960938 119.171875 141.960938 119.171875 143.96875 120.234375 C 143.96875 120.511719 143.96875 120.792969 143.96875 121.078125 C 143.449219 121.003906 143.449219 121.003906 142.917969 120.925781 C 140.480469 120.640625 139.09375 120.484375 136.828125 121.367188 C 134.53125 123.015625 133.617188 124.0625 133.34375 126.5625 C 133.519531 126.839844 133.695312 127.121094 133.875 127.40625 C 135.132812 127.539062 135.132812 127.539062 136.53125 127.40625 C 137.480469 126.738281 137.480469 126.738281 138.191406 125.824219 C 138.445312 125.53125 138.699219 125.238281 138.960938 124.933594 C 139.210938 124.636719 139.460938 124.339844 139.71875 124.03125 C 140.246094 123.464844 140.777344 122.902344 141.3125 122.34375 C 141.839844 122.484375 142.363281 122.621094 142.90625 122.765625 C 142.976562 123.152344 143.046875 123.539062 143.121094 123.9375 C 143.261719 124.6875 143.261719 124.6875 143.40625 125.453125 C 143.496094 125.953125 143.589844 126.453125 143.683594 126.96875 C 143.882812 128.210938 143.882812 128.210938 144.5 129.09375 C 146.753906 128.890625 148.136719 128.636719 149.8125 127.40625 C 150.320312 126.511719 150.320312 126.511719 150.566406 125.488281 C 150.683594 125.109375 150.796875 124.730469 150.917969 124.335938 C 151.09375 123.730469 151.09375 123.730469 151.273438 123.109375 C 154.738281 112.207031 154.738281 112.207031 160.011719 109.199219 C 161.761719 108.546875 163.289062 108.449219 165.21875 108.421875 C 165.75 108.84375 165.75 108.84375 165.878906 109.964844 C 165.503906 114.082031 161.492188 118.082031 158.417969 121.277344 C 157.019531 122.699219 157.019531 122.699219 156.71875 124.453125 C 156.957031 124.25 157.195312 124.046875 157.4375 123.835938 C 160.855469 121.003906 160.855469 121.003906 163.09375 120.65625 C 165.085938 120.636719 166.785156 120.730469 168.40625 121.738281 C 169.171875 123.222656 169.28125 124.578125 168.9375 126.140625 C 167.480469 128.371094 165.632812 129.789062 162.796875 130.886719 C 160.066406 131.359375 157.375 131.265625 154.59375 131.203125 C 154.441406 131.601562 154.285156 132.003906 154.128906 132.414062 C 153.53125 133.734375 153.53125 133.734375 152.46875 134.578125 C 151.59375 134.578125 150.714844 134.578125 149.8125 134.578125 C 149.8125 132.628906 149.8125 130.679688 149.8125 128.671875 C 148.9375 129.230469 148.058594 129.785156 147.15625 130.359375 C 145.007812 131.222656 143.1875 131.835938 140.847656 131.230469 C 139.507812 130.199219 138.847656 129.1875 138.125 127.828125 C 137.621094 128.167969 137.117188 128.507812 136.597656 128.855469 C 135.171875 129.816406 134.28125 130.316406 132.382812 130.515625 C 130.6875 130.359375 130.6875 130.359375 129.160156 129.410156 C 128.03125 128.25 128.03125 128.25 128.03125 126.5625 C 127.769531 126.679688 127.503906 126.796875 127.230469 126.917969 C 124.847656 127.925781 122.820312 128.632812 120.0625 128.671875 C 117.09375 127.753906 117.09375 127.753906 116.34375 126.5625 C 116.023438 123.808594 116.621094 121.21875 117.40625 118.546875 C 116.183594 118.191406 116.183594 118.191406 114.75 118.125 C 113.617188 118.765625 113.617188 118.765625 112.65625 119.707031 C 109.007812 122.804688 104.707031 123.585938 99.476562 123.742188 C 97.335938 123.699219 95.839844 123.289062 94.03125 122.34375 C 92.886719 120.980469 92.863281 120.535156 92.96875 118.96875 C 92.449219 119.195312 92.449219 119.195312 91.917969 119.429688 C 86.914062 121.539062 86.914062 121.539062 84.46875 121.078125 C 83.273438 120.101562 83.273438 120.101562 82.34375 118.96875 C 81.992188 118.550781 81.640625 118.132812 81.28125 117.703125 C 81.019531 117.859375 80.753906 118.015625 80.480469 118.179688 C 78.519531 119.265625 77.457031 119.8125 75.007812 119.8125 C 72.472656 119.179688 72.472656 119.179688 71.71875 118.125 C 71.378906 116.109375 71.71875 114.667969 73.097656 112.9375 C 75.035156 111.070312 77.796875 109.476562 80.75 108.84375 C 82.242188 108.789062 82.242188 108.789062 83.40625 108.84375 C 82.324219 109.75 81.230469 110.453125 79.921875 111.136719 C 78.476562 111.949219 77.511719 112.503906 77.03125 113.90625 C 76.941406 115.242188 76.941406 115.242188 77.03125 116.4375 C 78.28125 116.726562 78.28125 116.726562 79.6875 116.859375 C 81.363281 116.167969 81.363281 116.167969 81.636719 115.0625 C 81.726562 114.664062 81.816406 114.265625 81.914062 113.851562 C 83.5625 108.15625 87.359375 102.527344 93.5 99.140625 C 95.382812 98.640625 96.839844 98.605469 98.8125 98.71875 Z M 98.8125 98.71875 " data-index="2"></path>
<path style="fill-rule: nonzero; fill: rgb(0, 50, 152); fill-opacity: 1; opacity: 1;" d="M 55.25 36.28125 C 56.496094 36.375 56.496094 36.375 57.90625 36.703125 C 58.644531 37.511719 58.644531 37.511719 59.21875 38.589844 C 59.441406 39 59.664062 39.40625 59.894531 39.828125 C 60.125 40.277344 60.355469 40.722656 60.59375 41.1875 C 60.839844 41.644531 61.085938 42.105469 61.339844 42.578125 C 64.441406 48.4375 67.292969 54.382812 70.125 60.328125 C 72.726562 60.050781 75.128906 59.476562 77.601562 58.800781 C 78.007812 58.691406 78.414062 58.585938 78.832031 58.472656 C 80.125 58.125 81.417969 57.777344 82.710938 57.429688 C 97.660156 53.390625 97.660156 53.390625 100.40625 54 C 100.121094 54.074219 99.839844 54.148438 99.546875 54.222656 C 96.578125 54.996094 93.613281 55.777344 90.652344 56.566406 C 89.550781 56.855469 88.445312 57.144531 87.339844 57.433594 C 85.742188 57.847656 84.152344 58.273438 82.558594 58.695312 C 82.070312 58.820312 81.582031 58.949219 81.078125 59.078125 C 78.1875 59.859375 76.003906 60.789062 73.671875 62.363281 C 72.78125 62.859375 72.78125 62.859375 71.1875 62.859375 C 71.714844 64.113281 72.238281 65.367188 72.78125 66.65625 C 73.503906 66.480469 74.226562 66.308594 74.972656 66.128906 C 75.453125 66.015625 75.933594 65.902344 76.429688 65.785156 C 77.617188 65.503906 78.804688 65.21875 79.992188 64.929688 C 80.957031 64.703125 80.957031 64.703125 81.945312 64.46875 C 82.851562 64.25 82.851562 64.25 83.78125 64.027344 C 85.496094 63.710938 86.964844 63.640625 88.71875 63.703125 C 87.363281 64.421875 86.34375 64.816406 84.835938 65.246094 C 84.175781 65.4375 84.175781 65.4375 83.5 65.628906 C 83.042969 65.757812 82.582031 65.890625 82.109375 66.023438 C 81.203125 66.28125 80.296875 66.542969 79.390625 66.800781 C 78.988281 66.914062 78.585938 67.027344 78.171875 67.148438 C 77.015625 67.484375 77.015625 67.484375 75.921875 67.964844 C 74.90625 68.34375 74.90625 68.34375 73.3125 68.34375 C 73.503906 68.796875 73.699219 69.246094 73.898438 69.710938 C 75.613281 73.816406 77.039062 77.941406 78.257812 82.160156 C 78.460938 82.859375 78.460938 82.859375 78.667969 83.574219 C 79.300781 85.804688 79.871094 88.011719 80.21875 90.28125 C 81.972656 90.699219 83.726562 91.117188 85.53125 91.546875 C 85.417969 90.957031 85.300781 90.363281 85.183594 89.753906 C 84.476562 85.996094 83.777344 82.246094 83.703125 78.441406 C 83.695312 77.925781 83.683594 77.40625 83.675781 76.871094 C 83.988281 75.253906 84.632812 74.558594 86.0625 73.40625 C 87.402344 72.875 88.351562 72.941406 89.847656 72.957031 C 90.574219 72.964844 90.574219 72.964844 91.3125 72.96875 C 91.683594 72.972656 92.054688 72.980469 92.4375 72.984375 C 91.894531 75.53125 91.066406 77.148438 89.25 79.3125 C 88.113281 82.023438 88.054688 84.734375 88.121094 87.566406 C 88.132812 88.277344 88.144531 88.984375 88.15625 89.695312 C 88.164062 90.046875 88.167969 90.394531 88.175781 90.753906 C 88.179688 91.015625 88.183594 91.277344 88.1875 91.546875 C 98.355469 93.429688 108.539062 95.253906 118.734375 97.03125 C 119.105469 97.097656 119.472656 97.160156 119.855469 97.226562 C 131.207031 99.207031 142.566406 101.132812 154.0625 102.515625 C 154.433594 102.5625 154.800781 102.613281 155.183594 102.660156 C 158.660156 103.070312 162.175781 103.03125 165.683594 103.042969 C 166.328125 103.050781 166.976562 103.058594 167.640625 103.070312 C 171.539062 103.082031 174.847656 102.78125 178.5 101.671875 C 175.597656 104.316406 171.585938 104.503906 167.355469 104.746094 C 150.84375 105.164062 134.328125 101.585938 118.433594 98.441406 C 108.636719 96.507812 98.738281 94.695312 88.71875 93.65625 C 88.71875 94.910156 88.71875 96.164062 88.71875 97.453125 C 88.367188 97.453125 88.015625 97.453125 87.65625 97.453125 C 86.957031 95.925781 86.59375 94.882812 86.59375 93.234375 C 85.640625 93.152344 84.691406 93.074219 83.738281 92.996094 C 83.207031 92.953125 82.679688 92.910156 82.132812 92.863281 C 80.757812 92.722656 80.757812 92.722656 79.6875 93.234375 C 79.6875 92.957031 79.6875 92.675781 79.6875 92.390625 C 79.101562 92.375 79.101562 92.375 78.503906 92.359375 C 76.707031 92.308594 74.910156 92.257812 73.113281 92.207031 C 72.5 92.191406 71.882812 92.171875 71.25 92.15625 C 67.671875 92.050781 64.121094 91.875 60.5625 91.546875 C 60.492188 91.847656 60.417969 92.152344 60.34375 92.460938 C 59.390625 95.964844 57.835938 99.132812 55.25 102.09375 C 54.070312 102.671875 54.070312 102.671875 53.125 102.9375 C 53.347656 102.511719 53.347656 102.511719 53.574219 102.074219 C 56.890625 95.347656 60.441406 87.3125 57.375 80.15625 C 57.175781 80.441406 56.976562 80.726562 56.769531 81.019531 C 53.863281 85.042969 53.863281 85.042969 51.53125 86.0625 C 49.46875 86.335938 48.660156 86.230469 46.914062 85.296875 C 46.511719 84.992188 46.105469 84.6875 45.6875 84.375 C 45.359375 84.191406 45.03125 84.007812 44.691406 83.820312 C 43.890625 82.867188 44.046875 82.183594 44.324219 81.085938 C 46.125 75.523438 49.160156 70.09375 54.71875 66.234375 C 56.074219 65.65625 56.074219 65.65625 57.375 65.390625 C 58.96875 66.234375 58.96875 66.234375 59.242188 67.054688 C 59.328125 67.90625 59.414062 68.757812 59.5 69.609375 C 58.710938 69.738281 58.710938 69.738281 57.90625 69.875 C 53.835938 70.820312 51.148438 73.027344 48.976562 75.84375 C 47.179688 78.507812 47.203125 80.640625 47.8125 83.53125 C 49.527344 83.972656 49.800781 84.003906 51.53125 83.347656 C 53.464844 82.035156 54.292969 80.730469 55.25 78.890625 C 54.722656 78.890625 54.199219 78.890625 53.65625 78.890625 C 53.480469 79.308594 53.304688 79.726562 53.125 80.15625 C 52.335938 79.949219 52.335938 79.949219 51.53125 79.734375 C 51.53125 79.039062 51.53125 78.34375 51.53125 77.625 C 53.617188 76.921875 55.722656 76.417969 57.90625 75.9375 C 58.695312 75.730469 58.695312 75.730469 59.5 75.515625 C 59.761719 74.890625 59.761719 74.890625 60.03125 74.25 C 60.558594 74.25 61.082031 74.25 61.625 74.25 C 61.636719 76.082031 61.648438 77.914062 61.652344 79.746094 C 61.65625 80.367188 61.660156 80.992188 61.664062 81.613281 C 61.671875 82.507812 61.675781 83.40625 61.675781 84.300781 C 61.679688 84.839844 61.683594 85.378906 61.683594 85.9375 C 61.636719 87.058594 61.519531 87.953125 61.09375 89.015625 C 61.402344 89.007812 61.710938 89 62.03125 88.992188 C 65.699219 88.945312 69.21875 89.242188 72.847656 89.648438 C 73.40625 89.707031 73.964844 89.769531 74.539062 89.832031 C 75.902344 89.980469 77.265625 90.128906 78.625 90.28125 C 78.296875 87.292969 77.566406 84.484375 76.632812 81.578125 C 76.492188 81.136719 76.351562 80.695312 76.207031 80.238281 C 75.214844 77.164062 74.070312 74.167969 72.71875 71.183594 C 72.25 70.03125 72.25 70.03125 72.25 68.765625 C 71.722656 68.625 71.199219 68.488281 70.65625 68.34375 C 70.578125 67.898438 70.503906 67.457031 70.421875 67 C 70.191406 65.746094 69.925781 64.519531 69.59375 63.28125 C 68.367188 63.28125 67.140625 63.28125 65.875 63.28125 C 66.050781 62.863281 66.226562 62.445312 66.40625 62.015625 C 67.5 61.726562 67.5 61.726562 68.53125 61.59375 C 67.5 59.777344 66.464844 57.964844 65.429688 56.148438 C 65.0625 55.507812 64.699219 54.867188 64.332031 54.226562 C 62.546875 51.089844 60.757812 47.957031 58.851562 44.863281 C 58.601562 44.460938 58.355469 44.0625 58.101562 43.648438 C 57.652344 42.921875 57.195312 42.199219 56.734375 41.480469 C 55.609375 39.664062 54.980469 38.359375 55.25 36.28125 Z M 55.25 36.28125 " data-index="3"></path>
<path style=" stroke:none;fill-rule:nonzero;fill:rgb(96.078432%,96.078432%,96.078432%);fill-opacity:1;" d="M 155.457031 80.550781 C 155.882812 80.554688 156.308594 80.554688 156.746094 80.558594 C 157.800781 80.5625 158.851562 80.570312 159.90625 80.578125 C 159.730469 81.09375 159.554688 81.609375 159.371094 82.140625 C 158.753906 84.117188 158.648438 85.777344 159.375 87.75 C 160.679688 89.199219 161.382812 89.761719 163.59375 90.097656 C 165.714844 89.789062 166.773438 89.300781 168.40625 88.171875 C 169.054688 87.335938 169.578125 86.5 170.074219 85.597656 C 170.53125 84.796875 170.53125 84.796875 171.59375 83.53125 C 173.210938 84.496094 174.796875 85.480469 176.375 86.484375 C 176.714844 86.691406 177.054688 86.898438 177.402344 87.109375 C 178.550781 87.890625 179.441406 88.625 179.8125 89.808594 C 180.023438 93.628906 178.722656 97.941406 176.375 101.25 C 176.023438 101.527344 175.671875 101.808594 175.3125 102.09375 C 171.867188 102.0625 169.625 100.851562 166.8125 99.378906 C 161.433594 96.578125 157.652344 96.078125 151.242188 96.398438 C 149.992188 96.460938 148.742188 96.515625 147.496094 96.570312 C 146.945312 96.597656 146.394531 96.625 145.828125 96.652344 C 144.5 96.609375 144.5 96.609375 143.4375 95.765625 C 142.582031 90.71875 146.484375 85.175781 149.8125 81 C 151.570312 80.300781 153.527344 80.535156 155.457031 80.550781 Z M 155.457031 80.550781 " data-index="4"></path>
<path style="fill-rule: nonzero; fill: rgb(255, 102, 0); fill-opacity: 1; opacity: 1;" d="M 165.21875 108.421875 C 165.75 108.84375 165.75 108.84375 165.878906 109.964844 C 165.503906 114.082031 161.492188 118.082031 158.417969 121.277344 C 157.019531 122.699219 157.019531 122.699219 156.71875 124.453125 C 157.074219 124.148438 157.074219 124.148438 157.4375 123.835938 C 160.855469 121.003906 160.855469 121.003906 163.09375 120.65625 C 165.085938 120.636719 166.785156 120.730469 168.40625 121.738281 C 169.171875 123.222656 169.28125 124.578125 168.9375 126.140625 C 167.480469 128.371094 165.632812 129.789062 162.796875 130.886719 C 160.066406 131.359375 157.375 131.265625 154.59375 131.203125 C 154.441406 131.601562 154.285156 132.003906 154.128906 132.414062 C 153.53125 133.734375 153.53125 133.734375 152.46875 134.578125 C 151.59375 134.578125 150.714844 134.578125 149.8125 134.578125 C 149.8125 132.628906 149.8125 130.679688 149.8125 128.671875 C 148.9375 129.230469 148.058594 129.785156 147.15625 130.359375 C 145.007812 131.222656 143.1875 131.835938 140.847656 131.230469 C 139.507812 130.199219 138.847656 129.1875 138.125 127.828125 C 137.621094 128.167969 137.117188 128.507812 136.597656 128.855469 C 135.171875 129.816406 134.28125 130.316406 132.382812 130.515625 C 130.6875 130.359375 130.6875 130.359375 129.160156 129.410156 C 128.03125 128.25 128.03125 128.25 128.03125 126.5625 C 127.679688 126.421875 127.328125 126.285156 126.96875 126.140625 C 132.3125 120.414062 132.3125 120.414062 136.53125 119.390625 C 139.34375 119.113281 141.566406 118.960938 143.96875 120.234375 C 143.96875 120.511719 143.96875 120.792969 143.96875 121.078125 C 143.621094 121.027344 143.277344 120.976562 142.917969 120.925781 C 140.480469 120.640625 139.09375 120.484375 136.828125 121.367188 C 134.53125 123.015625 133.617188 124.0625 133.34375 126.5625 C 133.519531 126.839844 133.695312 127.121094 133.875 127.40625 C 135.132812 127.539062 135.132812 127.539062 136.53125 127.40625 C 137.480469 126.738281 137.480469 126.738281 138.191406 125.824219 C 138.445312 125.53125 138.699219 125.238281 138.960938 124.933594 C 139.210938 124.636719 139.460938 124.339844 139.71875 124.03125 C 140.246094 123.464844 140.777344 122.902344 141.3125 122.34375 C 142.101562 122.550781 142.101562 122.550781 142.90625 122.765625 C 143.011719 123.34375 143.011719 123.34375 143.121094 123.9375 C 143.214844 124.4375 143.308594 124.9375 143.40625 125.453125 C 143.542969 126.203125 143.542969 126.203125 143.683594 126.96875 C 143.882812 128.210938 143.882812 128.210938 144.5 129.09375 C 146.753906 128.890625 148.136719 128.636719 149.8125 127.40625 C 150.320312 126.511719 150.320312 126.511719 150.566406 125.488281 C 150.683594 125.109375 150.796875 124.730469 150.917969 124.335938 C 151.035156 123.929688 151.152344 123.527344 151.273438 123.109375 C 152.9375 117.878906 154.957031 111.933594 160.96875 108.84375 C 162.53125 108.429688 163.589844 108.355469 165.21875 108.421875 Z M 165.21875 108.421875 " data-index="5"></path>
<path style="fill-rule: nonzero; fill: rgb(255, 102, 0); fill-opacity: 1; opacity: 1;" d="M 44.09375 94.5 C 44.621094 94.5 45.144531 94.5 45.6875 94.5 C 45.6875 100.488281 45.6875 106.472656 45.6875 112.640625 C 48.316406 112.433594 48.316406 112.433594 51 112.21875 C 51.789062 112.636719 51.789062 112.636719 52.59375 113.0625 C 52.792969 114.089844 52.792969 114.089844 52.59375 115.171875 C 51 116.4375 51 116.4375 45.15625 117.28125 C 45.15625 122.570312 45.15625 127.863281 45.15625 133.3125 C 44.367188 133.519531 44.367188 133.519531 43.5625 133.734375 C 42.71875 132.394531 42.96875 130.953125 42.980469 129.484375 C 42.980469 129.148438 42.980469 128.8125 42.980469 128.46875 C 42.984375 127.394531 42.992188 126.320312 43 125.242188 C 43 124.515625 43.003906 123.789062 43.003906 123.0625 C 43.011719 121.273438 43.019531 119.488281 43.03125 117.703125 C 42.683594 117.765625 42.339844 117.824219 41.980469 117.886719 C 41.515625 117.964844 41.050781 118.042969 40.574219 118.125 C 39.890625 118.242188 39.890625 118.242188 39.191406 118.363281 C 37.71875 118.546875 37.71875 118.546875 34.53125 118.546875 C 34.355469 123.558594 34.179688 128.570312 34 133.734375 C 33.472656 133.59375 32.949219 133.457031 32.40625 133.3125 C 31.136719 128.65625 32.015625 123.679688 32.40625 118.96875 C 31.886719 119.03125 31.363281 119.089844 30.828125 119.152344 C 17.257812 120.667969 17.257812 120.667969 11.972656 118.617188 C 11.15625 118.125 11.15625 118.125 10.625 116.859375 C 10.957031 116.839844 11.292969 116.816406 11.636719 116.796875 C 20.054688 116.273438 20.054688 116.273438 28.410156 115.328125 C 29.761719 115.171875 31.039062 115.160156 32.40625 115.171875 C 32.425781 114.414062 32.425781 114.414062 32.445312 113.644531 C 32.496094 111.773438 32.550781 109.902344 32.605469 108.03125 C 32.628906 107.222656 32.648438 106.410156 32.671875 105.601562 C 32.699219 104.4375 32.734375 103.273438 32.769531 102.113281 C 32.777344 101.75 32.789062 101.386719 32.796875 101.011719 C 32.808594 100.675781 32.816406 100.335938 32.828125 99.988281 C 32.835938 99.691406 32.84375 99.394531 32.851562 99.089844 C 32.9375 98.296875 32.9375 98.296875 33.46875 97.03125 C 33.996094 97.171875 34.519531 97.308594 35.0625 97.453125 C 35.0625 103.023438 35.0625 108.589844 35.0625 114.328125 C 36.816406 114.050781 38.570312 113.769531 40.375 113.484375 C 41.25 113.484375 42.128906 113.484375 43.03125 113.484375 C 43.042969 113.027344 43.058594 112.574219 43.070312 112.105469 C 43.121094 110.402344 43.175781 108.703125 43.230469 107 C 43.25 106.265625 43.273438 105.53125 43.296875 104.796875 C 43.328125 103.738281 43.359375 102.679688 43.394531 101.617188 C 43.402344 101.296875 43.414062 100.972656 43.421875 100.636719 C 43.492188 98.566406 43.734375 96.554688 44.09375 94.5 Z M 44.09375 94.5 " data-index="6"></path>
<path style=" stroke:none;fill-rule:nonzero;fill:rgb(100%,40.000001%,0%);fill-opacity:1;" d="M 203.46875 104.203125 C 203.644531 104.203125 203.820312 104.203125 204 104.203125 C 204 111.164062 204 118.125 204 125.296875 C 203.472656 125.15625 202.949219 125.019531 202.40625 124.875 C 202.078125 125.234375 202.078125 125.234375 201.746094 125.597656 C 201.460938 125.90625 201.175781 126.21875 200.878906 126.535156 C 200.59375 126.84375 200.3125 127.152344 200.019531 127.46875 C 198.9375 128.527344 198.367188 128.648438 196.664062 128.828125 C 194.433594 128.621094 193.734375 127.890625 192.3125 126.5625 C 192.027344 126.875 191.742188 127.1875 191.449219 127.511719 C 189.6875 129.132812 188.097656 130.195312 185.40625 130.597656 C 183.183594 130.265625 182.25 129.480469 180.625 128.25 C 180.445312 128.457031 180.261719 128.667969 180.078125 128.882812 C 178.664062 130.363281 177.632812 131.375 175.246094 131.679688 C 173.1875 131.625 173.1875 131.625 171.890625 131.230469 C 170.628906 129.90625 170.445312 128.597656 170.53125 126.984375 C 171.246094 124.121094 173.316406 121.75 176.332031 120.097656 C 178.671875 119.074219 180.574219 118.710938 183.28125 118.96875 C 183.632812 119.246094 183.984375 119.527344 184.34375 119.8125 C 182.75 120.234375 182.75 120.234375 180.957031 120.3125 C 178.929688 120.675781 178.132812 121.089844 176.910156 122.421875 C 175.949219 123.800781 175.597656 124.996094 175.3125 126.5625 C 175.691406 127.59375 175.691406 127.59375 176.375 128.25 C 177.664062 128.257812 177.664062 128.257812 179.03125 127.828125 C 179.9375 126.574219 179.9375 126.574219 180.523438 125.058594 C 180.746094 124.554688 180.96875 124.050781 181.199219 123.527344 C 181.359375 123.136719 181.523438 122.746094 181.6875 122.34375 C 182.390625 122.34375 183.089844 122.34375 183.8125 122.34375 C 184.863281 124.015625 185.917969 125.683594 187 127.40625 C 189.554688 127.183594 189.554688 127.183594 190.75 126.21875 C 191.746094 124.921875 192.222656 123.839844 192.777344 122.398438 C 193.683594 120.101562 194.742188 118.410156 197.09375 116.859375 C 198.621094 116.253906 198.621094 116.253906 199.75 116.015625 C 199.230469 116.859375 198.703125 117.679688 198.101562 118.488281 C 196.519531 120.679688 196.386719 121.988281 197.09375 124.453125 C 197.660156 125 197.660156 125 198.984375 124.902344 C 199.414062 124.894531 199.839844 124.882812 200.28125 124.875 C 201.554688 123.136719 201.164062 122.097656 200.5625 120.222656 C 199.394531 114.996094 199.671875 108.707031 203.46875 104.203125 Z M 203.46875 104.203125 " data-index="7"></path>
<path style=" stroke:none;fill-rule:nonzero;fill:rgb(99.607843%,0%,0%);fill-opacity:1;" d="M 44.09375 67.5 C 44.09375 67.917969 44.09375 68.335938 44.09375 68.765625 C 43.730469 68.75 43.371094 68.734375 43 68.722656 C 32.910156 68.496094 23.785156 71.019531 15.128906 74.957031 C 13.8125 75.515625 13.8125 75.515625 12.75 75.515625 C 12.925781 76.488281 13.101562 77.464844 13.28125 78.46875 C 13.894531 78.304688 14.507812 78.136719 15.140625 77.96875 C 16.113281 77.710938 17.089844 77.457031 18.0625 77.203125 C 18.6875 77.035156 19.3125 76.867188 19.953125 76.695312 C 26.765625 74.898438 33.679688 73.554688 40.90625 73.828125 C 40.730469 74.246094 40.554688 74.664062 40.375 75.09375 C 40.082031 75.121094 39.789062 75.148438 39.484375 75.175781 C 31.625 75.929688 24.21875 77.035156 17 79.734375 C 16.347656 80.542969 16.347656 80.542969 16.46875 81.421875 C 16.820312 81.839844 17.171875 82.257812 17.53125 82.6875 C 18.898438 82.261719 20.253906 81.820312 21.597656 81.34375 C 27.410156 79.308594 32.9375 78.195312 39.3125 78.46875 C 39.3125 78.746094 39.3125 79.027344 39.3125 79.3125 C 38.773438 79.355469 38.234375 79.394531 37.675781 79.4375 C 32.359375 79.882812 27.015625 80.511719 22.3125 82.6875 C 21.917969 83.519531 21.917969 83.519531 21.78125 84.375 C 21.605469 84.652344 21.429688 84.933594 21.25 85.21875 C 24.035156 85.898438 25.59375 85.367188 28.078125 84.378906 C 30.308594 83.546875 32.207031 83.484375 34.664062 83.503906 C 35.523438 83.511719 35.523438 83.511719 36.398438 83.515625 C 36.835938 83.519531 37.269531 83.527344 37.71875 83.53125 C 37.894531 83.808594 38.070312 84.089844 38.25 84.375 C 36.4375 86.664062 33.992188 87.78125 30.8125 88.59375 C 25.992188 89.140625 22.058594 88.722656 18.0625 86.484375 C 14.308594 84.199219 11.558594 81.628906 9.03125 78.46875 C 8.679688 78.050781 8.328125 77.632812 7.96875 77.203125 C 7.964844 76.382812 7.964844 76.382812 8.5 75.515625 C 18.824219 69.507812 31.582031 67.390625 44.09375 67.5 Z M 44.09375 67.5 " data-index="8"></path>
<path style="fill-rule: nonzero; fill: rgb(0, 51, 153); fill-opacity: 1; opacity: 1;" d="M 49.738281 88.566406 C 50.765625 88.570312 50.765625 88.570312 51.816406 88.574219 C 53.492188 88.578125 55.167969 88.585938 56.84375 88.59375 C 56.910156 91.019531 56.910156 91.019531 56.3125 91.96875 C 55.324219 92.113281 55.324219 92.113281 54.023438 92.175781 C 53.542969 92.203125 53.0625 92.230469 52.566406 92.257812 C 52.050781 92.285156 51.535156 92.308594 51 92.335938 C 40.132812 92.9375 40.132812 92.9375 30.28125 96.1875 C 29.742188 97.507812 29.722656 98.199219 30.117188 99.5625 C 30.28125 100.828125 30.28125 100.828125 29.417969 101.988281 C 27.609375 103.347656 26.398438 103.78125 23.90625 103.78125 C 21.804688 103.226562 20.652344 102.367188 19.65625 100.828125 C 19.164062 98.65625 19.484375 97.425781 20.882812 95.527344 C 24.738281 91.402344 30.539062 89.925781 36.65625 89.015625 C 41.003906 88.507812 45.351562 88.542969 49.738281 88.566406 Z M 49.738281 88.566406 " data-index="9"></path>
<path style=" stroke:none;fill-rule:nonzero;fill:rgb(100%,40.000001%,0%);fill-opacity:1;" d="M 60.5625 107.15625 C 60.097656 109.582031 60.097656 109.582031 59.5 110.53125 C 59.367188 111.796875 59.367188 111.796875 59.5 113.0625 C 60.492188 114.046875 60.492188 114.046875 62.09375 113.933594 C 63.90625 113.589844 63.90625 113.589844 64.875 112.152344 C 65.199219 111.605469 65.507812 111.058594 65.808594 110.503906 C 65.972656 110.226562 66.132812 109.945312 66.300781 109.65625 C 66.703125 108.96875 67.085938 108.273438 67.46875 107.578125 C 67.996094 107.71875 68.519531 107.855469 69.0625 108 C 70.0625 113.183594 70.125 119 66.507812 123.554688 C 64.265625 125.285156 62.316406 125.804688 59.234375 125.902344 C 56.265625 125.84375 54.699219 125.28125 52.59375 123.609375 C 52.328125 122.527344 52.328125 122.527344 52.59375 121.078125 C 53.46875 120.121094 54.417969 119.285156 55.445312 118.433594 C 56.355469 117.738281 56.355469 117.738281 56.84375 116.859375 C 56.582031 116.71875 56.316406 116.582031 56.046875 116.4375 C 55.027344 115.359375 54.996094 114.46875 55.0625 113.144531 C 55.492188 111.035156 57.433594 107.15625 60.5625 107.15625 Z M 60.5625 107.15625 " data-index="10"></path>
<path style="fill-rule: nonzero; fill: rgb(254, 0, 0); fill-opacity: 1; opacity: 1;" d="M 58.007812 65.546875 C 59.585938 66.671875 59.367188 67.96875 59.5 69.609375 C 58.972656 69.695312 58.449219 69.785156 57.90625 69.875 C 53.835938 70.820312 51.148438 73.027344 48.976562 75.84375 C 47.179688 78.507812 47.203125 80.640625 47.8125 83.53125 C 49.527344 83.972656 49.800781 84.003906 51.53125 83.347656 C 53.464844 82.035156 54.292969 80.730469 55.25 78.890625 C 54.722656 78.890625 54.199219 78.890625 53.65625 78.890625 C 53.480469 79.308594 53.304688 79.726562 53.125 80.15625 C 52.335938 79.949219 52.335938 79.949219 51.53125 79.734375 C 51.53125 79.039062 51.53125 78.34375 51.53125 77.625 C 53.617188 76.921875 55.722656 76.417969 57.90625 75.9375 C 58.433594 75.796875 58.957031 75.660156 59.5 75.515625 C 59.675781 75.097656 59.851562 74.679688 60.03125 74.25 C 60.558594 74.25 61.082031 74.25 61.625 74.25 C 62.121094 95.621094 62.121094 95.621094 54.1875 102.9375 C 53.835938 102.9375 53.484375 102.9375 53.125 102.9375 C 53.273438 102.652344 53.421875 102.367188 53.574219 102.074219 C 56.890625 95.347656 60.441406 87.3125 57.375 80.15625 C 57.175781 80.441406 56.976562 80.726562 56.769531 81.019531 C 53.863281 85.042969 53.863281 85.042969 51.53125 86.0625 C 49.46875 86.335938 48.660156 86.230469 46.914062 85.296875 C 46.511719 84.992188 46.105469 84.6875 45.6875 84.375 C 45.359375 84.191406 45.03125 84.007812 44.691406 83.820312 C 43.890625 82.867188 44.046875 82.183594 44.324219 81.085938 C 46.105469 75.585938 49.371094 68.792969 55.835938 65.699219 C 56.84375 65.390625 56.84375 65.390625 58.007812 65.546875 Z M 58.007812 65.546875 " data-index="11"></path>
<path style="fill-rule: nonzero; fill: rgb(255, 2, 2); fill-opacity: 1; opacity: 1; visibility: visible; stroke: rgb(255, 2, 2);" d="M 24.4375 28.265625 C 24.789062 28.40625 25.140625 28.542969 25.5 28.6875 C 25.082031 28.921875 24.664062 29.15625 24.234375 29.398438 C 19.015625 32.410156 14.101562 35.636719 12.75 40.921875 C 12.082031 45.519531 13.914062 49.214844 17.429688 52.839844 C 17.988281 53.371094 18.550781 53.902344 19.125 54.421875 C 20.136719 52.902344 20.902344 51.484375 21.25 49.78125 C 20.539062 48.152344 19.371094 46.925781 18.0625 45.5625 C 16.789062 43.976562 16.035156 42.828125 15.9375 40.921875 C 16.628906 39.207031 17.445312 38.320312 19.359375 37.414062 C 21.773438 36.503906 23.5 36.226562 26.164062 36.253906 C 26.636719 36.257812 27.113281 36.261719 27.601562 36.265625 C 27.957031 36.269531 28.316406 36.277344 28.6875 36.28125 C 28.511719 36.558594 28.335938 36.839844 28.15625 37.125 C 27.066406 37.28125 25.96875 37.398438 24.867188 37.492188 C 21.035156 37.886719 21.035156 37.886719 18.0625 39.65625 C 17.507812 42.339844 18.324219 43.761719 20.1875 45.984375 C 20.441406 45.707031 20.691406 45.425781 20.953125 45.140625 C 22.804688 43.414062 24.933594 41.976562 27.09375 40.5 C 27.445312 40.640625 27.796875 40.777344 28.15625 40.921875 C 27.914062 41.074219 27.667969 41.230469 27.417969 41.386719 C 25.3125 42.757812 23.570312 44.027344 22.3125 45.984375 C 22.378906 47.164062 22.378906 47.164062 22.84375 48.09375 C 23.71875 47.535156 24.597656 46.980469 25.5 46.40625 C 25.851562 46.546875 26.203125 46.683594 26.5625 46.828125 C 25.511719 47.871094 25.511719 47.871094 24.4375 48.9375 C 27.613281 51.050781 30.417969 52.492188 34.367188 53.421875 C 37.847656 54.242188 41.175781 55.214844 43.136719 57.789062 C 43.84375 59.207031 43.523438 60.132812 43.03125 61.59375 C 41.632812 63.484375 40.300781 64.9375 37.71875 65.8125 C 37.9375 65.609375 38.152344 65.402344 38.378906 65.191406 C 40.410156 63.1875 41.597656 61.640625 41.96875 59.0625 C 41.175781 57.128906 39.382812 56.285156 37.261719 55.296875 C 35.671875 54.664062 34.140625 54.316406 32.40625 54 C 32.664062 54.238281 32.921875 54.472656 33.1875 54.71875 C 34.566406 56.363281 34.386719 58.003906 34 59.90625 C 32.828125 62.113281 30.90625 63.796875 28.6875 65.390625 C 28.425781 65.589844 28.167969 65.789062 27.898438 65.992188 C 25.453125 67.78125 21.5 70.453125 18.0625 70.453125 C 18.0625 70.175781 18.0625 69.894531 18.0625 69.609375 C 18.542969 69.40625 19.023438 69.199219 19.519531 68.988281 C 27.382812 65.589844 27.382812 65.589844 32.40625 59.90625 C 32.820312 57.929688 32.730469 56.621094 31.585938 54.816406 C 29.957031 53.269531 28.511719 52.800781 26.164062 52.15625 C 25.609375 51.992188 25.609375 51.992188 25.042969 51.824219 C 24.136719 51.558594 23.222656 51.300781 22.3125 51.046875 C 21.40625 52.742188 20.988281 54.277344 20.71875 56.109375 C 20.988281 56.210938 21.261719 56.308594 21.539062 56.414062 C 23.320312 57.152344 25 57.996094 26.695312 58.851562 C 27.039062 59.023438 27.386719 59.191406 27.742188 59.367188 C 28.605469 59.804688 29.445312 60.273438 30.28125 60.75 C 30.28125 61.027344 30.28125 61.308594 30.28125 61.59375 C 27.597656 61.003906 25.660156 60.074219 23.441406 58.796875 C 23.125 58.621094 22.8125 58.445312 22.488281 58.261719 C 21.71875 57.828125 20.953125 57.390625 20.1875 56.953125 C 20.539062 58.625 20.890625 60.292969 21.25 62.015625 C 20.460938 61.808594 20.460938 61.808594 19.65625 61.59375 C 19.628906 61.210938 19.601562 60.828125 19.574219 60.433594 C 19.175781 57.03125 18.515625 55.210938 15.425781 52.832031 C 12.121094 49.960938 10.945312 46.078125 11.015625 42.296875 C 11.523438 37.347656 14.933594 34.210938 19.515625 31.0625 C 22.910156 28.871094 22.910156 28.871094 24.4375 28.265625 Z M 24.4375 28.265625 " data-index="12"></path>
<path style=" stroke:none;fill-rule:nonzero;fill:rgb(0%,20%,60.000002%);fill-opacity:1;" d="M 156.71875 37.546875 C 157.246094 37.546875 157.769531 37.546875 158.3125 37.546875 C 158.894531 38.914062 158.832031 39.578125 158.054688 40.875 C 157.867188 41.195312 157.679688 41.515625 157.488281 41.84375 C 157.277344 42.195312 157.066406 42.542969 156.851562 42.898438 C 156.40625 43.664062 155.957031 44.429688 155.511719 45.195312 C 155.277344 45.601562 155.039062 46.003906 154.792969 46.421875 C 145.527344 62.261719 137.300781 79.109375 134.9375 96.609375 C 134.761719 96.609375 134.585938 96.609375 134.40625 96.609375 C 134.3125 93.734375 134.632812 91.054688 135.234375 88.226562 C 135.328125 87.796875 135.417969 87.367188 135.507812 86.925781 C 136.683594 81.636719 138.453125 76.46875 140.25 71.296875 C 137.78125 70.539062 135.308594 69.789062 132.832031 69.046875 C 131.992188 68.792969 131.15625 68.539062 130.320312 68.28125 C 125.316406 66.75 120.40625 65.46875 115.128906 64.652344 C 113.285156 64.367188 112.085938 64.121094 110.5 63.28125 C 110.675781 62.863281 110.851562 62.445312 111.03125 62.015625 C 118.449219 63.382812 125.453125 65.535156 132.53125 67.730469 C 133.113281 67.910156 133.113281 67.910156 133.703125 68.09375 C 134.4375 68.320312 135.171875 68.550781 135.90625 68.78125 C 137.515625 69.28125 139.089844 69.746094 140.78125 70.03125 C 140.929688 69.636719 141.082031 69.238281 141.234375 68.832031 C 142.976562 64.296875 144.949219 59.84375 147.023438 55.398438 C 147.183594 55.046875 147.347656 54.699219 147.515625 54.339844 C 149.464844 50.152344 151.449219 45.980469 153.664062 41.871094 C 153.855469 41.519531 154.042969 41.164062 154.242188 40.800781 C 155.511719 38.507812 155.511719 38.507812 156.71875 37.546875 Z M 156.71875 37.546875 " data-index="13"></path>
<path style=" stroke:none;fill-rule:nonzero;fill:rgb(99.607843%,0.392157%,0.392157%);fill-opacity:1;" d="M 168.40625 78.046875 C 170.160156 79.148438 170.917969 80.042969 171.1875 81.835938 C 171.292969 84.3125 170.75 86.128906 168.9375 88.171875 C 167.261719 89.410156 166.015625 90.210938 163.726562 90.414062 C 161.605469 90.25 160.847656 89.796875 159.375 88.59375 C 157.875 86.699219 158.28125 84.785156 158.84375 82.6875 C 160.488281 79.117188 163.660156 77.203125 168.40625 78.046875 Z M 168.40625 78.046875 " data-index="14"></path>
<path style=" stroke:none;fill-rule:nonzero;fill:rgb(0%,20%,60.000002%);fill-opacity:1;" d="M 120.0625 19.828125 C 120.765625 19.96875 121.464844 20.105469 122.1875 20.25 C 121.886719 22.507812 121.394531 24.558594 120.574219 26.738281 C 120.351562 27.335938 120.128906 27.933594 119.910156 28.527344 C 119.792969 28.839844 119.675781 29.148438 119.558594 29.464844 C 113.203125 46.496094 109.527344 63.246094 108.90625 81 C 108.730469 81 108.554688 81 108.375 81 C 108.195312 72.050781 108.203125 63.289062 109.96875 54.421875 C 110.070312 53.90625 110.167969 53.386719 110.269531 52.855469 C 111.769531 45.25 113.742188 37.742188 115.914062 30.242188 C 116.027344 29.84375 116.140625 29.441406 116.261719 29.03125 C 116.589844 27.886719 116.925781 26.746094 117.261719 25.609375 C 117.359375 25.265625 117.457031 24.925781 117.558594 24.574219 C 118.101562 22.789062 118.722656 21.363281 120.0625 19.828125 Z M 120.0625 19.828125 " data-index="15"></path>
<path style=" stroke:none;fill-rule:nonzero;fill:rgb(100%,40.000001%,0%);fill-opacity:1;" d="M 114.21875 113.90625 C 115.613281 114.0625 115.613281 114.0625 116.875 114.328125 C 116.875 115.023438 116.875 115.71875 116.875 116.4375 C 117.207031 116.488281 117.539062 116.539062 117.882812 116.59375 C 118.316406 116.664062 118.75 116.734375 119.199219 116.804688 C 119.628906 116.875 120.0625 116.945312 120.507812 117.015625 C 121.65625 117.28125 121.65625 117.28125 122.71875 118.125 C 122.628906 119.019531 122.53125 119.910156 122.378906 120.796875 C 122.171875 122.023438 122.023438 123.246094 121.890625 124.480469 C 121.8125 125.167969 121.734375 125.855469 121.65625 126.5625 C 123.410156 126.421875 125.164062 126.285156 126.96875 126.140625 C 126.4375 127.40625 126.4375 127.40625 125.453125 127.820312 C 122.960938 128.472656 121.042969 128.960938 118.46875 128.25 C 117.207031 127.617188 117.207031 127.617188 116.34375 126.5625 C 115.789062 123.871094 116.636719 121.164062 117.40625 118.546875 C 116.183594 118.191406 116.183594 118.191406 114.75 118.125 C 113.617188 118.765625 113.617188 118.765625 112.65625 119.707031 C 110.960938 121.167969 109.625 122.03125 107.3125 122.765625 C 106.960938 122.488281 106.609375 122.207031 106.25 121.921875 C 107.3125 121.078125 107.3125 121.078125 108.476562 120.761719 C 110.542969 120.03125 112.304688 119.148438 113.6875 117.703125 C 113.652344 116.140625 113.652344 116.140625 113.15625 114.75 C 113.507812 114.472656 113.859375 114.191406 114.21875 113.90625 Z M 114.21875 113.90625 " data-index="16"></path>
<path style=" stroke:none;fill-rule:nonzero;fill:rgb(99.607843%,9.019608%,9.019608%);fill-opacity:1;" d="M 5.179688 69.554688 C 5.703125 69.5625 6.226562 69.570312 6.765625 69.578125 C 7.359375 69.59375 7.359375 69.59375 7.96875 69.609375 C 6.878906 70.558594 6.371094 70.875 4.78125 71.296875 C 3.742188 72.84375 3.582031 74.183594 3.554688 75.914062 C 3.542969 76.398438 3.53125 76.886719 3.519531 77.386719 C 3.507812 77.898438 3.496094 78.414062 3.484375 78.945312 C 3.296875 84.839844 2.6875 90.523438 0.53125 96.1875 C 0.355469 96.1875 0.179688 96.1875 0 96.1875 C 0 87.695312 0 79.203125 0 70.453125 C 2.117188 69.613281 2.90625 69.511719 5.179688 69.554688 Z M 5.179688 69.554688 " data-index="17"></path>
<path style=" stroke:none;fill-rule:nonzero;fill:rgb(96.078432%,96.078432%,96.078432%);fill-opacity:1;" d="M 64.8125 113.90625 C 65.757812 115.40625 64.84375 116.960938 64.316406 118.519531 C 63.523438 120.332031 62.605469 121.691406 60.5625 122.765625 C 58.566406 123.226562 56.621094 123.519531 54.71875 122.765625 C 54.753906 121.363281 54.804688 120.238281 55.964844 119.125 C 57.90625 117.78125 60.039062 116.695312 62.265625 115.667969 C 63.25 115.15625 64.007812 114.589844 64.8125 113.90625 Z M 64.8125 113.90625 " data-index="18"></path>
<path style=" stroke:none;fill-rule:nonzero;fill:rgb(98.823529%,32.156864%,32.156864%);fill-opacity:1;" d="M 168.40625 81.84375 C 169.570312 82.511719 169.941406 82.902344 170.25 84.019531 C 170.292969 86.667969 170.292969 86.667969 168.90625 87.804688 C 166.882812 88.28125 165.648438 88.226562 163.625 87.75 C 162.246094 86.554688 162.015625 85.941406 162.097656 84.320312 C 163.09375 81.71875 165.167969 81.316406 168.40625 81.84375 Z M 168.40625 81.84375 " data-index="19"></path>
<path style=" stroke:none;fill-rule:nonzero;fill:rgb(96.078432%,96.078432%,96.078432%);fill-opacity:1;" d="M 162.398438 122.921875 C 162.800781 123.011719 163.207031 123.097656 163.625 123.1875 C 164.144531 124.289062 164.195312 124.785156 163.71875 125.917969 C 161.320312 129.703125 161.320312 129.703125 158.84375 130.359375 C 156.820312 130.4375 156.820312 130.4375 155.125 130.359375 C 155.203125 127.433594 156.90625 125.710938 159.375 123.609375 C 160.96875 122.765625 160.96875 122.765625 162.398438 122.921875 Z M 162.398438 122.921875 " data-index="20"></path>
<path style=" stroke:none;fill-rule:nonzero;fill:rgb(0%,20%,60.000002%);fill-opacity:1;" d="M 120.0625 77.625 C 120.226562 78.757812 120.226562 78.757812 120.0625 80.15625 C 119.421875 80.621094 118.78125 81.085938 118.132812 81.546875 C 114.78125 84.855469 114.722656 90.40625 114.21875 94.5 C 114.042969 94.5 113.867188 94.5 113.6875 94.5 C 113.65625 92.609375 113.636719 90.722656 113.621094 88.832031 C 113.613281 88.300781 113.601562 87.769531 113.59375 87.21875 C 113.546875 80.117188 113.546875 80.117188 115.464844 78.164062 C 116.886719 77.292969 118.332031 77.546875 120.0625 77.625 Z M 120.0625 77.625 " data-index="21"></path>
<path style=" stroke:none;fill-rule:nonzero;fill:rgb(0%,20%,60.000002%);fill-opacity:1;" d="M 117.40625 54.421875 C 119.878906 54.679688 121.878906 55.5 124.046875 56.425781 C 124.429688 56.589844 124.8125 56.75 125.207031 56.917969 C 130.359375 59.136719 135.304688 61.636719 140.25 64.125 C 139.722656 64.332031 139.722656 64.332031 139.1875 64.546875 C 138.136719 64.234375 138.136719 64.234375 136.84375 63.722656 C 136.367188 63.53125 135.886719 63.34375 135.394531 63.148438 C 134.882812 62.941406 134.371094 62.730469 133.84375 62.515625 C 133.320312 62.308594 132.796875 62.097656 132.261719 61.878906 C 128.898438 60.511719 125.585938 59.09375 122.320312 57.585938 C 121.945312 57.414062 121.566406 57.242188 121.179688 57.0625 C 119.507812 56.273438 118.503906 55.726562 117.40625 54.421875 Z M 117.40625 54.421875 " data-index="22"></path>
<path style=" stroke:none;fill-rule:nonzero;fill:rgb(96.078432%,96.078432%,96.078432%);fill-opacity:1;" d="M 162.5625 109.6875 C 163.089844 109.6875 163.613281 109.6875 164.15625 109.6875 C 163.914062 112.21875 162.914062 113.949219 161.300781 116.121094 C 161.089844 116.417969 160.875 116.71875 160.65625 117.023438 C 159.652344 118.40625 158.726562 119.554688 157.25 120.65625 C 157.617188 116.796875 159.007812 112.511719 162.5625 109.6875 Z M 162.5625 109.6875 " data-index="23"></path>
<path style=" stroke:none;fill-rule:nonzero;fill:rgb(96.078432%,96.078432%,96.078432%);fill-opacity:1;" d="M 98.28125 99.984375 C 97.527344 101.753906 96.441406 102.964844 94.929688 104.386719 C 94.289062 104.992188 94.289062 104.992188 93.640625 105.605469 C 93.242188 105.980469 92.847656 106.351562 92.4375 106.734375 C 91.894531 107.253906 91.351562 107.769531 90.8125 108.289062 C 90.472656 108.613281 90.132812 108.933594 89.78125 109.265625 C 89.25 108 89.25 108 89.9375 106.75 C 90.269531 106.277344 90.601562 105.800781 90.945312 105.3125 C 91.269531 104.835938 91.59375 104.363281 91.929688 103.875 C 94.902344 99.984375 94.902344 99.984375 98.28125 99.984375 Z M 98.28125 99.984375 " data-index="24"></path>
<path style="fill-rule: nonzero; fill: rgb(245, 245, 245); fill-opacity: 1; opacity: 1;" d="M 103.09375 113.457031 C 103.867188 113.472656 103.867188 113.472656 104.65625 113.484375 C 105.085938 114.40625 105.085938 114.40625 105.1875 115.59375 C 103.550781 117.246094 101.769531 118.15625 99.34375 118.96875 C 98.992188 118.96875 98.640625 118.96875 98.28125 118.96875 C 98.570312 116.570312 99.652344 113.515625 103.09375 113.457031 Z M 103.09375 113.457031 " data-index="25"></path>
<path style=" stroke:none;fill-rule:nonzero;fill:rgb(0%,20%,60.000002%);fill-opacity:1;" d="M 124.414062 12.289062 C 125.375 12.65625 125.375 12.65625 126.4375 13.5 C 126.503906 14.820312 126.503906 14.820312 126.4375 16.03125 C 125.195312 16.644531 124.535156 16.894531 123.058594 16.773438 C 122.429688 16.640625 122.429688 16.640625 121.789062 16.507812 C 121.363281 16.421875 120.941406 16.335938 120.503906 16.246094 C 120.023438 16.140625 120.023438 16.140625 119.53125 16.03125 C 120.261719 14.132812 121.59375 12.160156 124.414062 12.289062 Z M 124.414062 12.289062 " data-index="26"></path>
<path style=" stroke:none;fill-rule:nonzero;fill:rgb(0%,20%,60.000002%);fill-opacity:1;" d="M 93.5 45.140625 C 93.390625 45.394531 93.28125 45.644531 93.167969 45.90625 C 92.804688 46.949219 92.804688 46.949219 94.03125 48.09375 C 94.269531 49.097656 94.464844 50.109375 94.628906 51.125 C 94.71875 51.664062 94.808594 52.199219 94.898438 52.753906 C 94.996094 53.371094 94.996094 53.371094 95.09375 54 C 94.390625 54.140625 93.691406 54.277344 92.96875 54.421875 C 92.167969 51.972656 91.789062 49.78125 91.90625 47.25 C 91.554688 47.25 91.203125 47.25 90.84375 47.25 C 90.667969 46.691406 90.492188 46.136719 90.3125 45.5625 C 91.414062 45.328125 92.355469 45.140625 93.5 45.140625 Z M 93.5 45.140625 " data-index="27"></path>
<path style=" stroke:none;fill-rule:nonzero;fill:rgb(96.078432%,96.078432%,96.078432%);fill-opacity:1;" d="M 37.1875 84.375 C 35.261719 86.429688 35.261719 86.429688 33.46875 86.90625 C 32.375 86.933594 31.277344 86.941406 30.179688 86.933594 C 29.316406 86.925781 29.316406 86.925781 28.433594 86.921875 C 27.992188 86.917969 27.550781 86.910156 27.09375 86.90625 C 27.09375 86.488281 27.09375 86.070312 27.09375 85.640625 C 30.582031 84.667969 33.488281 84.234375 37.1875 84.375 Z M 37.1875 84.375 " data-index="28"></path>
<path style=" stroke:none;fill-rule:nonzero;fill:rgb(0%,20%,60.000002%);fill-opacity:1;" d="M 162.5625 29.953125 C 163.058594 31.222656 163.117188 31.585938 162.5625 32.90625 C 162.660156 33.261719 162.757812 33.621094 162.859375 33.988281 C 162.9375 34.328125 163.015625 34.664062 163.09375 35.015625 C 162.742188 35.292969 162.390625 35.574219 162.03125 35.859375 C 160.46875 35.730469 159.191406 35.574219 157.78125 35.015625 C 158.535156 33.566406 159.414062 32.988281 160.96875 32.0625 C 161.601562 31.199219 161.601562 31.199219 162.03125 30.375 C 162.207031 30.234375 162.382812 30.097656 162.5625 29.953125 Z M 162.5625 29.953125 " data-index="29"></path>
<path style=" stroke:none;fill-rule:nonzero;fill:rgb(0%,20%,60.000002%);fill-opacity:1;" d="M 50.46875 28.6875 C 52.527344 29.796875 52.527344 29.796875 53.125 31.21875 C 54.007812 31.785156 54.894531 32.347656 55.78125 32.90625 C 55.78125 33.183594 55.78125 33.464844 55.78125 33.75 C 54.414062 34.433594 53.828125 34.613281 52.195312 34.4375 C 51.605469 34.304688 51.605469 34.304688 51 34.171875 C 50.46875 32.90625 50.46875 32.90625 50.734375 31.90625 C 51.023438 30.691406 50.851562 29.875 50.46875 28.6875 Z M 50.46875 28.6875 " data-index="30"></path>
<path style=" stroke:none;fill-rule:nonzero;fill:rgb(100%,0%,0%);fill-opacity:1;" d="M 48.34375 27.84375 C 48.695312 27.84375 49.046875 27.84375 49.40625 27.84375 C 48.347656 31.886719 45.738281 35.132812 41.96875 37.96875 C 41.617188 37.828125 41.265625 37.691406 40.90625 37.546875 C 41.1875 37.28125 41.46875 37.015625 41.761719 36.742188 C 44.691406 33.925781 46.730469 31.257812 48.34375 27.84375 Z M 48.34375 27.84375 " data-index="31"></path>
<path style=" stroke:none;fill-rule:nonzero;fill:rgb(0%,20%,60.000002%);fill-opacity:1;" d="M 119.53125 16.453125 C 121.285156 16.730469 123.039062 17.011719 124.84375 17.296875 C 124.667969 17.714844 124.492188 18.132812 124.3125 18.5625 C 122.46875 19.050781 120.933594 19.011719 119 18.984375 C 118.824219 18.707031 118.648438 18.425781 118.46875 18.140625 C 118.820312 17.582031 119.171875 17.027344 119.53125 16.453125 Z M 119.53125 16.453125 " data-index="32"></path>
<path style=" stroke:none;fill-rule:nonzero;fill:rgb(96.078432%,92.941177%,92.941177%);fill-opacity:1;" d="M 167.875 83.109375 C 169.003906 83.503906 169.003906 83.503906 170 83.953125 C 169.824219 84.511719 169.648438 85.066406 169.46875 85.640625 C 168.59375 85.5 167.714844 85.363281 166.8125 85.21875 C 166.8125 84.660156 166.8125 84.105469 166.8125 83.53125 C 167.164062 83.390625 167.515625 83.253906 167.875 83.109375 Z M 167.875 83.109375 " data-index="33"></path>
<path style=" stroke:none;fill-rule:nonzero;fill:rgb(0%,20%,60.000002%);fill-opacity:1;" d="M 90.84375 42.609375 C 91.894531 42.816406 91.894531 42.816406 92.96875 43.03125 C 92.96875 43.589844 92.96875 44.144531 92.96875 44.71875 C 92.09375 44.859375 91.214844 44.996094 90.3125 45.140625 C 90.488281 44.304688 90.664062 43.46875 90.84375 42.609375 Z M 90.84375 42.609375 " data-index="34"></path>
<path style="fill-rule: nonzero; fill: rgb(255, 0, 0); fill-opacity: 1; opacity: 1;" d="M 27.09375 40.5 C 27.445312 40.640625 27.796875 40.777344 28.15625 40.921875 C 27.90625 41.085938 27.65625 41.25 27.398438 41.417969 C 25.667969 42.566406 24.089844 43.628906 22.84375 45.140625 C 22.492188 45 22.140625 44.863281 21.78125 44.71875 C 25.046875 41.5625 25.046875 41.5625 27.09375 40.5 Z M 27.09375 40.5 " data-index="35"></path>
<path style=" stroke:none;fill-rule:nonzero;fill:rgb(0%,20%,60.000002%);fill-opacity:1;" d="M 125.90625 8.859375 C 126.257812 8.859375 126.609375 8.859375 126.96875 8.859375 C 126.792969 9.832031 126.617188 10.808594 126.4375 11.8125 C 125.734375 11.8125 125.035156 11.8125 124.3125 11.8125 C 125.308594 9.335938 125.308594 9.335938 125.90625 8.859375 Z M 125.90625 8.859375 " data-index="36"></path>
<path style=" stroke:none;fill-rule:nonzero;fill:rgb(0%,20%,60.000002%);fill-opacity:1;" d="M 157.25 35.859375 C 158.652344 36 160.054688 36.136719 161.5 36.28125 C 160.132812 36.964844 159.546875 37.144531 157.914062 36.96875 C 157.519531 36.878906 157.125 36.792969 156.71875 36.703125 C 156.894531 36.425781 157.070312 36.144531 157.25 35.859375 Z M 157.25 35.859375 " data-index="37"></path>
<path style=" stroke:none;fill-rule:nonzero;fill:rgb(0%,20%,60.000002%);fill-opacity:1;" d="M 56.84375 34.59375 C 56.84375 34.871094 56.84375 35.152344 56.84375 35.4375 C 54.996094 35.925781 53.945312 35.734375 52.0625 35.4375 C 55.023438 33.871094 55.023438 33.871094 56.84375 34.59375 Z M 56.84375 34.59375 " data-index="38"></path>
</g>
</svg>