<svg width="195" height="65" viewBox="0 0 195 65" fill="none" xmlns="http://www.w3.org/2000/svg">
<rect x="3.54027" y="3.54015" width="60.156" height="60.156" rx="30.078" fill="black"/>
<rect x="3.54027" y="3.54015" width="60.156" height="60.156" rx="30.078" stroke="black" stroke-width="0.607637"/>
<g clip-path="url(#clip0_888_186)">
<path fill-rule="evenodd" clip-rule="evenodd" d="M35.0518 10.1289C31.7785 14.0088 28.7455 18.1229 26.9617 22.9277C26.0728 25.3361 25.0278 29.0778 24.8716 31.6364C24.7995 32.7234 24.6794 34.315 26.235 34.0568C26.6194 33.9907 27.0818 33.6544 27.3941 33.4261C28.283 32.7895 29.1118 32.303 30.1208 31.8526C31.298 31.3361 32.7154 30.9276 33.9947 31.0117C35.4962 31.1018 36.9617 31.5523 38.0968 32.5853C38.6493 33.0838 39.3701 34.261 40.1989 34.261C41.7184 34.261 41.8806 29.7265 41.8806 28.7054C41.8806 27.2039 41.4601 25.6244 41.0337 24.1889C39.5923 19.3481 37.28 14.6514 35.0518 10.1289Z" fill="white"/>
<path fill-rule="evenodd" clip-rule="evenodd" d="M41.5018 25.6792C41.9943 25.1868 42.4508 24.8264 42.4508 24.1237C43.4298 23.0066 44.3126 21.9135 45.3397 20.8384C45.4718 21.0666 46.3186 21.0546 46.8111 20.7363C46.8412 20.7183 46.8772 20.7363 46.9132 20.7363C47.3397 20.7363 47.8802 21.1507 48.2826 21.0486C48.649 20.9585 48.8291 20.7724 48.9192 20.412C48.9553 20.2618 48.7751 20.2198 48.697 20.0997C48.8352 19.9615 49.2376 20.1838 49.4358 19.5772C49.646 18.9525 49.0334 18.6402 48.8111 18.5261C48.9673 18.5201 49.2616 18.0456 49.2315 17.7934C49.2135 17.6673 48.9312 17.3489 48.8111 17.2769C48.715 17.2168 48.6009 17.1808 48.4868 17.1568C48.1024 17.0907 47.6279 17.1868 47.2255 17.0547C47.1775 17.0426 47.1234 17.0006 47.1234 16.9526C47.1174 16.6222 47.3277 16.0757 47.2255 15.8054C46.9973 15.1628 46.8772 14.8324 46.1865 14.6463C45.8081 14.5442 45.5439 14.6703 45.2376 14.8565C45.1955 14.8805 45.1535 14.9165 45.1295 14.9586C45.1235 14.9766 45.1235 15.1568 45.1295 15.1688C45.1535 15.2108 45.2196 15.2288 45.2376 15.2709C45.4538 15.8234 45.7421 17.2168 45.5499 17.7934C45.4178 18.1838 44.9313 18.5982 44.8172 19.1628C44.7151 19.6673 44.5829 20.2799 44.8172 20.412L42.3967 23.5531C42.0064 22.9705 41.3817 23.0486 40.7091 23.0486L41.5018 25.6792Z" fill="black"/>
<path fill-rule="evenodd" clip-rule="evenodd" d="M27.286 21.7801C26.0668 21.5758 26.1388 21.732 25.8145 22.2005C24.7154 22.1764 23.8025 22.3146 22.7635 22.8251C22.0728 23.1614 22.1509 24.4347 22.0308 25.0233C22.0247 25.0713 21.9767 25.1314 21.9287 25.1314C21.7004 24.8911 21.3581 25.2275 21.4061 25.5578C20.9317 25.5938 20.3911 26.1464 20.3551 26.3926C20.247 27.1014 18.6794 25.8881 18.1449 25.9722C17.9647 26.0023 17.8566 26.3446 17.8326 26.4947C17.7965 26.711 17.8266 27.0053 18.0368 27.1314C18.283 27.2755 19.9947 27.4077 20.0428 27.5458C20.0848 27.6779 19.298 27.9182 19.1959 27.9662C18.5473 28.2545 18.4932 28.2965 18.247 28.9152C17.9887 29.5518 18.9317 29.5998 19.4061 29.5398C19.8326 29.4857 20.4272 28.5428 20.8776 28.807C21.31 29.0713 21.0217 29.8881 20.9797 30.2785C20.9257 30.783 20.8175 31.3236 21.4061 31.3236C22.0187 31.3236 22.0848 30.735 22.1389 30.1764C22.1569 29.9662 22.1208 29.75 22.1389 29.5398C22.1689 29.1914 22.4632 28.1524 22.9797 28.2785C23.5443 28.4167 23.286 29.1194 24.4512 29.1194C24.6373 29.1194 24.8355 29.0353 24.9737 28.9152C25.1238 28.777 25.2139 28.5728 25.286 28.3806C25.3581 28.1824 25.3881 27.9662 25.3881 27.756C25.3881 27.5038 25.1899 27.3416 24.9737 27.3416C24.7395 27.3416 24.4632 27.5458 24.3491 27.5458C24.265 27.5458 24.1989 27.4797 24.1268 27.4437C23.8085 27.2875 23.4362 27.0593 23.1899 26.8071C23.1839 26.8011 22.9917 26.5188 22.9797 26.4947C23.322 26.3626 23.0998 25.4377 22.7635 25.4497C22.7455 25.3836 22.7515 25.3056 22.7635 25.2335C22.8536 24.741 23.0277 23.5518 23.4001 23.2395C23.9527 22.777 25.0758 22.5428 25.8145 22.4047C25.8205 22.9032 26.3551 23.0833 26.7575 23.2395L27.286 21.7801Z" fill="black"/>
<path fill-rule="evenodd" clip-rule="evenodd" d="M35.0517 10.3395C31.2019 14.1894 28.7875 18.1593 26.8596 23.2404C31.0638 21.6428 36.8295 21.817 40.9316 23.6608C39.4301 19.4505 37.376 14.2614 35.0517 10.3395Z" fill="black"/>
<path fill-rule="evenodd" clip-rule="evenodd" d="M33.6644 18.1949C35.8625 18.1949 37.7124 19.7745 37.7124 21.8585C37.7124 23.9306 35.6824 25.5582 33.4902 25.5102C30.8055 25.4501 29.5563 24.0507 29.5563 21.9787C29.5563 19.8946 31.4662 18.1949 33.6644 18.1949Z" fill="url(#paint0_radial_888_186)" stroke="#231F20" stroke-width="0.780778"/>
<path d="M48.5952 17.2764L48.0727 17.3785L47.34 17.4806L46.9136 17.793V18.3155" stroke="#666666" stroke-width="0.0180179"/>
<path d="M48.8115 18.5252H47.7605L47.0217 18.7354L46.8115 19.0537L47.0217 19.4741" stroke="#666666" stroke-width="0.0180179"/>
<path d="M48.6974 20.0982L48.0728 19.888L47.4482 19.7858L46.9136 19.996L46.8115 20.5245" stroke="#666666" stroke-width="0.0180179"/>
<path fill-rule="evenodd" clip-rule="evenodd" d="M35.0518 10.1289C31.7785 14.0088 28.7455 18.1229 26.9617 22.9277C26.0728 25.3361 25.0278 29.0778 24.8716 31.6364C24.7995 32.7234 24.6794 34.315 26.235 34.0568C26.6194 33.9907 27.0818 33.6544 27.3941 33.4261C28.283 32.7895 29.1118 32.303 30.1208 31.8526C31.298 31.3361 32.7154 30.9276 33.9947 31.0117C35.4962 31.1018 36.9617 31.5523 38.0968 32.5853C38.6493 33.0838 39.3701 34.261 40.1989 34.261C41.7184 34.261 41.8806 29.7265 41.8806 28.7054C41.8806 27.2039 41.4601 25.6244 41.0337 24.1889C39.5923 19.3481 37.28 14.6514 35.0518 10.1289Z" stroke="#231F20" stroke-width="0.900897"/>
</g>
<path d="M22.4927 55.0714C21.6953 55.0714 20.9976 54.9446 20.3996 54.6909C19.8107 54.4372 19.3531 54.0657 19.0269 53.5764C18.7007 53.078 18.5376 52.471 18.5376 51.7552C18.5376 51.4018 18.5784 51.0303 18.6599 50.6407C18.9771 49.1728 19.6159 48.0402 20.5763 47.2429C21.5368 46.4455 22.8778 46.0469 24.5993 46.0469C25.143 46.0469 25.6277 46.0786 26.0536 46.142C26.4794 46.2054 26.8736 46.3006 27.236 46.4274L26.7603 48.6156C26.3979 48.4616 26.0083 48.3574 25.5915 48.303C25.1837 48.2486 24.7579 48.2215 24.3139 48.2215C23.5347 48.2215 22.8778 48.4117 22.3432 48.7923C21.8086 49.1728 21.4507 49.789 21.2695 50.6407C21.1879 50.9941 21.1471 51.3021 21.1471 51.5649C21.1471 52.027 21.283 52.3668 21.5549 52.5842C21.8358 52.7926 22.3024 52.8968 22.9548 52.8968C23.1903 52.8968 23.4123 52.8832 23.6207 52.8561C23.8382 52.8198 24.0466 52.7745 24.2459 52.7201L24.5178 51.4426H22.7781L23.1179 49.866H26.9914L26.0536 54.2695C25.673 54.4779 25.1837 54.6637 24.5857 54.8268C23.9968 54.9899 23.2991 55.0714 22.4927 55.0714ZM30.9242 55.0714C30.1812 55.0714 29.5515 54.9491 29.035 54.7045C28.5186 54.4508 28.1244 54.111 27.8526 53.6851C27.5898 53.2502 27.4585 52.7609 27.4585 52.2173C27.4585 51.9817 27.4856 51.737 27.54 51.4833L28.6681 46.1828H31.2232L30.1359 51.2931C30.0816 51.5468 30.0544 51.7688 30.0544 51.959C30.0544 52.2943 30.1586 52.5344 30.367 52.6794C30.5754 52.8243 30.9152 52.8968 31.3863 52.8968C31.9662 52.8968 32.4011 52.7745 32.6911 52.5299C32.981 52.2852 33.1849 51.873 33.3027 51.2931L34.39 46.1828H36.9451L35.8035 51.5649C35.5498 52.7972 35.0242 53.6897 34.2269 54.2424C33.4295 54.7951 32.3286 55.0714 30.9242 55.0714ZM37.7532 55.0714C37.3726 55.0714 37.0147 55.0442 36.6795 54.9899C36.3442 54.9446 36.0316 54.8676 35.7417 54.7588L36.1902 52.6386C36.607 52.8198 37.1053 52.9104 37.6852 52.9104C38.2289 52.9104 38.6139 52.8108 38.8405 52.6114C39.067 52.4121 39.2255 52.0814 39.3162 51.6193L40.4714 46.1828H43.0266L41.7898 52.027C41.5814 53.0146 41.151 53.7712 40.4986 54.2967C39.8462 54.8132 38.9311 55.0714 37.7532 55.0714Z" fill="white"/>
<path d="M22.2152 46.0786C21.8347 46.0786 21.4767 46.0514 21.1415 45.997C20.8062 45.9517 20.4937 45.8747 20.2037 45.766L20.6522 43.6457C21.069 43.827 21.5674 43.9176 22.1472 43.9176C22.6909 43.9176 23.076 43.8179 23.3025 43.6186C23.529 43.4192 23.6876 43.0885 23.7782 42.6264L24.9335 37.1899H27.4886L26.2518 43.0341C26.0434 44.0218 25.613 44.7783 24.9606 45.3039C24.3083 45.8203 23.3931 46.0786 22.2152 46.0786ZM30.8357 46.0786C30.0927 46.0786 29.4629 45.9562 28.9465 45.7116C28.43 45.4579 28.0359 45.1181 27.764 44.6923C27.5013 44.2573 27.3699 43.7681 27.3699 43.2244C27.3699 42.9888 27.3971 42.7442 27.4514 42.4905L28.5795 37.1899H31.1347L30.0474 42.3002C29.993 42.5539 29.9658 42.7759 29.9658 42.9662C29.9658 43.3014 30.07 43.5415 30.2784 43.6865C30.4868 43.8315 30.8266 43.904 31.2978 43.904C31.8776 43.904 32.3126 43.7817 32.6025 43.537C32.8925 43.2924 33.0963 42.8801 33.2141 42.3002L34.3014 37.1899H36.8566L35.7149 42.572C35.4612 43.8043 34.9357 44.6968 34.1383 45.2495C33.341 45.8022 32.2401 46.0786 30.8357 46.0786ZM40.6275 46.0786C39.8301 46.0786 39.1325 45.9517 38.5344 45.698C37.9455 45.4443 37.4879 45.0728 37.1617 44.5835C36.8355 44.0852 36.6724 43.4781 36.6724 42.7623C36.6724 42.4089 36.7132 42.0374 36.7948 41.6478C37.1119 40.18 37.7507 39.0474 38.7111 38.25C39.6716 37.4527 41.0126 37.054 42.7341 37.054C43.2778 37.054 43.7625 37.0857 44.1884 37.1491C44.6142 37.2126 45.0084 37.3077 45.3708 37.4346L44.8951 39.6227C44.5327 39.4687 44.1431 39.3645 43.7263 39.3101C43.3185 39.2558 42.8927 39.2286 42.4487 39.2286C41.6695 39.2286 41.0126 39.4189 40.478 39.7994C39.9434 40.18 39.5855 40.7961 39.4043 41.6478C39.3227 42.0012 39.282 42.3093 39.282 42.572C39.282 43.0341 39.4179 43.3739 39.6897 43.5914C39.9706 43.7998 40.4372 43.904 41.0896 43.904C41.3252 43.904 41.5472 43.8904 41.7556 43.8632C41.973 43.827 42.1814 43.7817 42.3808 43.7273L42.6526 42.4497H40.9129L41.2527 40.8731H45.1262L44.1884 45.2767C43.8078 45.4851 43.3185 45.6708 42.7205 45.8339C42.1316 45.997 41.4339 46.0786 40.6275 46.0786Z" fill="black"/>
<g clip-path="url(#clip1_888_186)">
<rect width="60.7637" height="60.7637" rx="30.3818" fill="white"/>
<rect x="0.0606689" y="42.717" width="60.7637" height="20.052" fill="#F02D32"/>
<g clip-path="url(#clip2_888_186)">
<path fill-rule="evenodd" clip-rule="evenodd" d="M31.8156 6.89258C28.5423 10.7724 25.5093 14.8865 23.7255 19.6913C22.8366 22.0997 21.7916 25.8414 21.6354 28.4C21.5634 29.4871 21.4433 31.0787 22.9988 30.8204C23.3832 30.7543 23.8456 30.418 24.158 30.1898C25.0468 29.5531 25.8757 29.0667 26.8847 28.6162C28.0618 28.0997 29.4793 27.6913 30.7585 27.7754C32.26 27.8655 33.7255 28.3159 34.8606 29.3489C35.4132 29.8474 36.1339 31.0246 36.9627 31.0246C38.4822 31.0246 38.6444 26.4901 38.6444 25.4691C38.6444 23.9676 38.224 22.388 37.7975 20.9526C36.3561 16.1118 34.0438 11.415 31.8156 6.89258Z" fill="white"/>
<path fill-rule="evenodd" clip-rule="evenodd" d="M38.2659 22.4429C38.7584 21.9505 39.2148 21.5901 39.2148 20.8874C40.1938 19.7703 41.0767 18.6772 42.1037 17.6021C42.2359 17.8304 43.0827 17.8183 43.5752 17.5C43.6052 17.482 43.6413 17.5 43.6773 17.5C44.1037 17.5 44.6443 17.9144 45.0467 17.8123C45.413 17.7222 45.5932 17.5361 45.6833 17.1757C45.7193 17.0255 45.5391 16.9835 45.4611 16.8634C45.5992 16.7253 46.0016 16.9475 46.1998 16.3409C46.41 15.7162 45.7974 15.4039 45.5752 15.2898C45.7313 15.2838 46.0256 14.8093 45.9956 14.5571C45.9776 14.431 45.6953 14.1126 45.5752 14.0406C45.4791 13.9805 45.365 13.9445 45.2509 13.9205C44.8665 13.8544 44.392 13.9505 43.9896 13.8184C43.9416 13.8063 43.8875 13.7643 43.8875 13.7163C43.8815 13.3859 44.0917 12.8394 43.9896 12.5691C43.7614 11.9265 43.6413 11.5961 42.9506 11.41C42.5722 11.3079 42.3079 11.434 42.0016 11.6202C41.9596 11.6442 41.9175 11.6802 41.8935 11.7223C41.8875 11.7403 41.8875 11.9205 41.8935 11.9325C41.9175 11.9745 41.9836 11.9925 42.0016 12.0346C42.2178 12.5871 42.5061 13.9805 42.3139 14.5571C42.1818 14.9475 41.6953 15.3619 41.5812 15.9265C41.4791 16.431 41.347 17.0436 41.5812 17.1757L39.1608 20.3168C38.7704 19.7342 38.1458 19.8123 37.4731 19.8123L38.2659 22.4429Z" fill="black"/>
<path fill-rule="evenodd" clip-rule="evenodd" d="M24.0498 18.5437C22.8306 18.3395 22.9027 18.4956 22.5783 18.9641C21.4793 18.9401 20.5663 19.0782 19.5273 19.5887C18.8366 19.9251 18.9147 21.1983 18.7946 21.7869C18.7886 21.835 18.7405 21.895 18.6925 21.895C18.4642 21.6548 18.1219 21.9911 18.17 22.3215C17.6955 22.3575 17.1549 22.91 17.1189 23.1563C17.0108 23.865 15.4432 22.6518 14.9087 22.7359C14.7285 22.7659 14.6204 23.1082 14.5964 23.2584C14.5604 23.4746 14.5904 23.7689 14.8006 23.895C15.0468 24.0392 16.7586 24.1713 16.8066 24.3094C16.8486 24.4416 16.0619 24.6818 15.9598 24.7299C15.3111 25.0181 15.2571 25.0602 15.0108 25.6788C14.7526 26.3154 15.6955 26.3635 16.17 26.3034C16.5964 26.2494 17.191 25.3064 17.6414 25.5707C18.0739 25.835 17.7856 26.6518 17.7435 27.0422C17.6895 27.5467 17.5814 28.0872 18.17 28.0872C18.7826 28.0872 18.8486 27.4986 18.9027 26.9401C18.9207 26.7298 18.8847 26.5136 18.9027 26.3034C18.9327 25.9551 19.227 24.916 19.7435 25.0422C20.3081 25.1803 20.0498 25.883 21.215 25.883C21.4012 25.883 21.5994 25.7989 21.7375 25.6788C21.8877 25.5407 21.9777 25.3365 22.0498 25.1443C22.1219 24.9461 22.1519 24.7299 22.1519 24.5196C22.1519 24.2674 21.9537 24.1052 21.7375 24.1052C21.5033 24.1052 21.227 24.3094 21.1129 24.3094C21.0288 24.3094 20.9627 24.2434 20.8907 24.2073C20.5723 24.0512 20.2 23.823 19.9537 23.5707C19.9477 23.5647 19.7555 23.2824 19.7435 23.2584C20.0859 23.1263 19.8636 22.2013 19.5273 22.2133C19.5093 22.1473 19.5153 22.0692 19.5273 21.9971C19.6174 21.5046 19.7916 20.3155 20.1639 20.0031C20.7165 19.5407 21.8396 19.3065 22.5783 19.1683C22.5844 19.6668 23.1189 19.847 23.5213 20.0031L24.0498 18.5437Z" fill="black"/>
<path fill-rule="evenodd" clip-rule="evenodd" d="M31.8158 7.10318C27.966 10.953 25.5515 14.923 23.6236 20.004C27.8278 18.4064 33.5936 18.5806 37.6956 20.4244C36.1941 16.2142 34.1401 11.025 31.8158 7.10318Z" fill="black"/>
<path fill-rule="evenodd" clip-rule="evenodd" d="M30.4282 14.9586C32.6264 14.9586 34.4762 16.5381 34.4762 18.6222C34.4762 20.6943 32.4462 22.3219 30.254 22.2738C27.5693 22.2138 26.3201 20.8144 26.3201 18.7423C26.3201 16.6583 28.23 14.9586 30.4282 14.9586Z" fill="url(#paint1_radial_888_186)" stroke="#231F20" stroke-width="0.780778"/>
<path d="M45.3591 14.0401L44.8365 14.1422L44.1038 14.2443L43.6774 14.5567V15.0791" stroke="#666666" stroke-width="0.0180179"/>
<path d="M45.5754 15.2888H44.5243L43.7856 15.4991L43.5754 15.8174L43.7856 16.2378" stroke="#666666" stroke-width="0.0180179"/>
<path d="M45.4612 16.8618L44.8366 16.6516L44.212 16.5494L43.6775 16.7596L43.5754 17.2882" stroke="#666666" stroke-width="0.0180179"/>
<path fill-rule="evenodd" clip-rule="evenodd" d="M31.8156 6.89258C28.5423 10.7724 25.5093 14.8865 23.7255 19.6913C22.8366 22.0997 21.7916 25.8414 21.6354 28.4C21.5634 29.4871 21.4433 31.0787 22.9988 30.8204C23.3832 30.7543 23.8456 30.418 24.158 30.1898C25.0468 29.5531 25.8757 29.0667 26.8847 28.6162C28.0618 28.0997 29.4793 27.6913 30.7585 27.7754C32.26 27.8655 33.7255 28.3159 34.8606 29.3489C35.4132 29.8474 36.1339 31.0246 36.9627 31.0246C38.4822 31.0246 38.6444 26.4901 38.6444 25.4691C38.6444 23.9676 38.224 22.388 37.7975 20.9526C36.3561 16.1118 34.0438 11.415 31.8156 6.89258Z" stroke="#231F20" stroke-width="0.900897"/>
</g>
<path d="M19.2567 51.8352C18.4594 51.8352 17.7617 51.7083 17.1637 51.4546C16.5747 51.2009 16.1171 50.8294 15.791 50.3401C15.4648 49.8418 15.3017 49.2347 15.3017 48.5189C15.3017 48.1655 15.3424 47.794 15.424 47.4044C15.7411 45.9366 16.3799 44.804 17.3404 44.0066C18.3008 43.2093 19.6418 42.8106 21.3634 42.8106C21.907 42.8106 22.3918 42.8423 22.8176 42.9057C23.2435 42.9692 23.6376 43.0643 24.0001 43.1911L23.5244 45.3793C23.1619 45.2253 22.7723 45.1211 22.3555 45.0667C21.9478 45.0124 21.5219 44.9852 21.0779 44.9852C20.2987 44.9852 19.6418 45.1755 19.1072 45.556C18.5726 45.9366 18.2147 46.5527 18.0335 47.4044C17.952 47.7578 17.9112 48.0659 17.9112 48.3286C17.9112 48.7907 18.0471 49.1305 18.3189 49.348C18.5998 49.5564 19.0664 49.6606 19.7188 49.6606C19.9544 49.6606 20.1764 49.647 20.3848 49.6198C20.6023 49.5835 20.8107 49.5382 21.01 49.4839L21.2818 48.2063H19.5421L19.8819 46.6297H23.7554L22.8176 51.0333C22.4371 51.2417 21.9478 51.4274 21.3498 51.5905C20.7608 51.7536 20.0631 51.8352 19.2567 51.8352ZM27.6883 51.8352C26.9453 51.8352 26.3156 51.7128 25.7991 51.4682C25.2826 51.2145 24.8885 50.8747 24.6167 50.4489C24.3539 50.0139 24.2225 49.5247 24.2225 48.981C24.2225 48.7454 24.2497 48.5008 24.3041 48.2471L25.4321 42.9465H27.9873L26.9 48.0568C26.8456 48.3105 26.8184 48.5325 26.8184 48.7228C26.8184 49.058 26.9226 49.2981 27.131 49.4431C27.3394 49.5881 27.6792 49.6606 28.1504 49.6606C28.7303 49.6606 29.1652 49.5382 29.4551 49.2936C29.7451 49.049 29.9489 48.6367 30.0667 48.0568L31.154 42.9465H33.7092L32.5675 48.3286C32.3138 49.5609 31.7883 50.4534 30.9909 51.0061C30.1936 51.5588 29.0927 51.8352 27.6883 51.8352ZM34.5172 51.8352C34.1367 51.8352 33.7788 51.808 33.4435 51.7536C33.1083 51.7083 32.7957 51.6313 32.5057 51.5226L32.9542 49.4023C33.371 49.5835 33.8694 49.6742 34.4493 49.6742C34.9929 49.6742 35.378 49.5745 35.6045 49.3752C35.831 49.1758 35.9896 48.8451 36.0802 48.383L37.2355 42.9465H39.7906L38.5538 48.7907C38.3454 49.7784 37.915 50.5349 37.2626 51.0605C36.6103 51.5769 35.6951 51.8352 34.5172 51.8352Z" fill="white"/>
<path d="M18.9793 42.8423C18.5987 42.8423 18.2408 42.8151 17.9056 42.7607C17.5703 42.7154 17.2577 42.6384 16.9678 42.5297L17.4163 40.4094C17.8331 40.5907 18.3314 40.6813 18.9113 40.6813C19.455 40.6813 19.84 40.5816 20.0666 40.3823C20.2931 40.1829 20.4516 39.8522 20.5422 39.3901L21.6975 33.9536H24.2527L23.0159 39.7978C22.8075 40.7855 22.3771 41.542 21.7247 42.0676C21.0723 42.584 20.1572 42.8423 18.9793 42.8423ZM27.5997 42.8423C26.8567 42.8423 26.227 42.72 25.7105 42.4753C25.1941 42.2216 24.7999 41.8818 24.5281 41.456C24.2653 41.021 24.1339 40.5318 24.1339 39.9881C24.1339 39.7525 24.1611 39.5079 24.2155 39.2542L25.3436 33.9536H27.8987L26.8114 39.0639C26.757 39.3176 26.7299 39.5396 26.7299 39.7299C26.7299 40.0651 26.8341 40.3052 27.0425 40.4502C27.2509 40.5952 27.5906 40.6677 28.0618 40.6677C28.6417 40.6677 29.0766 40.5454 29.3666 40.3007C29.6565 40.0561 29.8604 39.6438 29.9782 39.0639L31.0655 33.9536H33.6206L32.479 39.3357C32.2252 40.568 31.6997 41.4605 30.9024 42.0132C30.105 42.5659 29.0041 42.8423 27.5997 42.8423ZM37.3915 42.8423C36.5942 42.8423 35.8965 42.7154 35.2985 42.4617C34.7095 42.208 34.252 41.8365 33.9258 41.3472C33.5996 40.8489 33.4365 40.2418 33.4365 39.526C33.4365 39.1726 33.4773 38.8011 33.5588 38.4115C33.8759 36.9437 34.5147 35.8111 35.4752 35.0137C36.4356 34.2164 37.7766 33.8177 39.4982 33.8177C40.0418 33.8177 40.5266 33.8494 40.9524 33.9128C41.3783 33.9763 41.7724 34.0714 42.1349 34.1983L41.6592 36.3864C41.2968 36.2324 40.9071 36.1282 40.4903 36.0738C40.0826 36.0195 39.6567 35.9923 39.2128 35.9923C38.4335 35.9923 37.7766 36.1826 37.242 36.5631C36.7074 36.9437 36.3495 37.5598 36.1683 38.4115C36.0868 38.7649 36.046 39.073 36.046 39.3357C36.046 39.7978 36.1819 40.1376 36.4537 40.3551C36.7346 40.5635 37.2013 40.6677 37.8536 40.6677C38.0892 40.6677 38.3112 40.6541 38.5196 40.6269C38.7371 40.5907 38.9455 40.5454 39.1448 40.491L39.4166 39.2134H37.677L38.0167 37.6368H41.8902L40.9524 42.0404C40.5719 42.2488 40.0826 42.4345 39.4846 42.5976C38.8956 42.7607 38.198 42.8423 37.3915 42.8423Z" fill="black"/>
</g>
<rect x="0.303818" y="0.303818" width="60.156" height="60.156" rx="30.078" stroke="black" stroke-width="0.607637"/>
<path d="M79.1923 59.4838C77.2243 59.4838 75.739 58.9515 74.7365 57.8871C73.7463 56.8226 73.2512 55.3806 73.2512 53.5611C73.2512 52.2491 73.4678 51.1166 73.901 50.1635C74.3342 49.1981 74.9902 48.4555 75.869 47.9356C76.7602 47.4157 77.8865 47.1558 79.248 47.1558C79.9536 47.1558 80.591 47.2053 81.1604 47.3043C81.7421 47.391 82.2867 47.521 82.7942 47.6942V49.4395C81.7792 49.0681 80.6529 48.8825 79.4151 48.8825C77.8927 48.8825 76.8221 49.2847 76.2032 50.0893C75.5967 50.8938 75.2934 52.0511 75.2934 53.5611C75.2934 54.935 75.6153 55.9809 76.2589 56.6988C76.9025 57.4167 77.8989 57.7757 79.248 57.7757C80.3125 57.7757 81.1727 57.6519 81.8287 57.4043V54.0624H78.8396V52.7442H83.5554V58.4998C83.1717 58.7473 82.6209 58.9763 81.903 59.1867C81.1975 59.3847 80.2939 59.4838 79.1923 59.4838ZM90.6221 59.4838C88.9759 59.4838 87.6949 59.0877 86.7789 58.2955C85.8754 57.5034 85.4236 56.3585 85.4236 54.8608V47.3415H87.4473V54.7865C87.4473 55.7891 87.7196 56.5379 88.2642 57.033C88.8212 57.5281 89.6072 57.7757 90.6221 57.7757C91.6247 57.7757 92.3983 57.5281 92.9429 57.033C93.4999 56.5379 93.7784 55.7891 93.7784 54.7865V47.3415H95.7835V54.8608C95.7835 56.3585 95.3318 57.5034 94.4282 58.2955C93.5246 59.0877 92.256 59.4838 90.6221 59.4838ZM99.8835 59.4838C98.8685 59.4838 98.0021 59.3414 97.2842 59.0567V57.3486C97.5813 57.4724 97.9278 57.5776 98.3239 57.6643C98.7324 57.7385 99.1346 57.7757 99.5307 57.7757C100.36 57.7757 100.936 57.6086 101.257 57.2744C101.592 56.9278 101.759 56.377 101.759 55.622V47.3415H103.782V55.9562C103.782 57.0949 103.454 57.9675 102.798 58.574C102.155 59.1805 101.183 59.4838 99.8835 59.4838ZM105.017 59.2981L109.584 47.3415H111.85L116.38 59.2981H114.3L113.112 56.2161H108.303L107.115 59.2981H105.017ZM108.619 54.6566H112.778L110.698 49.1795L108.619 54.6566ZM118.37 59.2981V47.3415H123.865C125.202 47.3415 126.174 47.6881 126.78 48.3812C127.399 49.0619 127.709 49.9903 127.709 51.1661C127.709 52.0078 127.498 52.7257 127.077 53.3198C126.657 53.9139 126.05 54.3286 125.258 54.5637C125.481 54.7246 125.654 54.8979 125.778 55.0836C125.902 55.2692 126.025 55.5168 126.149 55.8262L127.653 59.2981H125.574L124.107 55.9562C123.971 55.6344 123.804 55.4054 123.606 55.2692C123.42 55.1331 123.098 55.065 122.64 55.065H120.394V59.2981H118.37ZM120.394 53.4312H123.327C124.057 53.4312 124.633 53.2517 125.054 52.8928C125.475 52.5338 125.685 51.9583 125.685 51.1661C125.685 49.6684 124.961 48.9196 123.513 48.9196H120.394V53.4312ZM128.515 59.2981L133.082 47.3415H135.347L139.877 59.2981H137.798L136.61 56.2161H131.801L130.613 59.2981H128.515ZM132.117 54.6566H136.276L134.196 49.1795L132.117 54.6566ZM143.391 59.2981V48.9196H139.566V47.3415H149.221V48.9196H145.415V59.2981H143.391Z" fill="black"/>
<path d="M74.7472 20.1034C74.1861 20.1034 73.6592 20.0623 73.1665 19.9802C72.6738 19.9118 72.2222 19.7955 71.8116 19.6312L72.4069 16.8599C72.708 16.9968 73.0502 17.1063 73.4334 17.1884C73.8302 17.2568 74.2408 17.291 74.6651 17.291C75.2809 17.291 75.7599 17.2226 76.102 17.0857C76.4579 16.9352 76.7247 16.7094 76.9026 16.4083C77.0942 16.0935 77.2379 15.6898 77.3337 15.1971L79.1402 6.67787H82.4453L80.5156 15.813C80.2145 17.1952 79.6124 18.2558 78.7091 18.9949C77.8059 19.7339 76.4852 20.1034 74.7472 20.1034ZM80.5203 19.8981L88.3621 6.67787H91.934L94.1921 19.8981H90.9897L90.4354 16.901H85.8987L84.0922 19.8981H80.5203ZM86.8635 14.4581H90.3328L89.5733 9.85976L86.8635 14.4581ZM98.1603 19.8981L95.9022 6.67787H99.2278L100.603 16.1209L105.982 6.67787H109.574L101.732 19.8981H98.1603ZM105.258 19.8981L113.1 6.67787H116.672L118.93 19.8981H115.728L115.174 16.901H110.637L108.83 19.8981H105.258ZM111.602 14.4581H115.071L114.311 9.85976L111.602 14.4581ZM78.5038 39.1034C77.3816 39.1034 76.4031 38.8913 75.5683 38.467C74.7472 38.0291 74.1518 37.4201 73.7823 36.64C73.4128 35.8462 73.3376 34.9225 73.5565 33.8687L75.2809 25.6779H78.586L76.9232 33.5607C76.7316 34.4777 76.7932 35.162 77.1079 35.6136C77.4364 36.0652 78.1001 36.291 79.0992 36.291C80.1119 36.291 80.8783 36.0652 81.3983 35.6136C81.9184 35.162 82.2742 34.4777 82.4658 33.5607L84.1286 25.6779H87.4337L85.7093 33.8687C85.3261 35.6478 84.5186 36.9684 83.2869 37.8306C82.0552 38.6791 80.4609 39.1034 78.5038 39.1034ZM90.7915 39.1034C89.9156 39.1034 89.1082 39.035 88.3691 38.8981C87.6438 38.7749 87.0348 38.5902 86.5421 38.3438L87.1374 35.5315C87.6985 35.7915 88.3212 36.0036 89.0055 36.1678C89.7035 36.3321 90.3809 36.4142 91.0378 36.4142C91.859 36.4142 92.4885 36.3389 92.9264 36.1884C93.3644 36.0378 93.6381 35.7094 93.7476 35.203C93.816 34.8609 93.7749 34.5872 93.6244 34.3819C93.4738 34.1766 93.1864 33.9987 92.7622 33.8481C92.3516 33.6839 91.7905 33.4923 91.0789 33.2733C89.8061 32.8765 88.9576 32.3906 88.5334 31.8158C88.1228 31.2274 88.027 30.4131 88.246 29.373C88.5197 28.1139 89.1766 27.1491 90.2167 26.4785C91.2705 25.8079 92.6801 25.4726 94.4455 25.4726C95.2119 25.4726 95.9441 25.5342 96.642 25.6573C97.34 25.7668 97.9011 25.8968 98.3254 26.0474L97.7095 28.8803C97.1621 28.6476 96.601 28.4766 96.0262 28.3671C95.4651 28.2576 94.904 28.2029 94.3429 28.2029C93.6039 28.2029 92.988 28.2713 92.4953 28.4081C92.0163 28.545 91.7221 28.8598 91.6126 29.3524C91.5579 29.6398 91.5921 29.8725 91.7153 30.0504C91.8384 30.2146 92.0848 30.3652 92.4543 30.502C92.8375 30.6389 93.3575 30.8031 94.0144 30.9947C95.0408 31.2821 95.7935 31.6311 96.2725 32.0416C96.7652 32.4385 97.0663 32.9038 97.1758 33.4376C97.2853 33.9576 97.2716 34.5461 97.1347 35.203C96.8884 36.3663 96.2315 37.3106 95.164 38.0359C94.1102 38.7476 92.6527 39.1034 90.7915 39.1034ZM98.0516 38.8981L100.843 25.6779H110.594L110.061 28.2234H103.615L103.019 30.9947H108.706L108.172 33.5813H102.486L101.89 36.3526H108.336L107.803 38.8981H98.0516ZM109.398 38.8981L112.19 25.6779H118.8C119.676 25.6779 120.415 25.8695 121.017 26.2527C121.633 26.6222 122.064 27.1491 122.311 27.8333C122.571 28.5039 122.598 29.2977 122.393 30.2146C122.215 31.1042 121.825 31.8843 121.223 32.5549C120.634 33.2254 119.916 33.725 119.067 34.0534C119.218 34.204 119.327 34.375 119.396 34.5666C119.478 34.7445 119.553 34.9977 119.621 35.3262L120.443 38.8981H116.994L116.214 35.5315C116.145 35.2167 116.029 35.0046 115.865 34.8951C115.714 34.7719 115.461 34.7103 115.105 34.7103H113.586L112.703 38.8981H109.398ZM114.12 32.1648H116.563C117.206 32.1648 117.74 32.0074 118.164 31.6927C118.602 31.3642 118.889 30.8715 119.026 30.2146C119.177 29.5577 119.163 29.065 118.985 28.7366C118.821 28.3945 118.342 28.2234 117.548 28.2234H114.961L114.12 32.1648ZM133.187 39.1034C131.75 39.1034 130.559 38.8434 129.615 38.3233C128.684 37.8033 128.041 37.0506 127.685 36.0652C127.33 35.0662 127.302 33.8687 127.603 32.4727C128.082 30.2694 129.04 28.5518 130.477 27.3201C131.914 26.0884 133.858 25.4726 136.307 25.4726C137.115 25.4726 137.833 25.5205 138.463 25.6163C139.092 25.7121 139.681 25.8558 140.228 26.0474L139.612 28.8803C139.079 28.6613 138.511 28.5108 137.908 28.4287C137.32 28.3466 136.69 28.3055 136.02 28.3055C134.61 28.3055 133.495 28.6476 132.674 29.3319C131.853 30.0025 131.285 31.0494 130.97 32.4727C130.669 33.8413 130.73 34.8198 131.155 35.4083C131.593 35.9968 132.475 36.291 133.803 36.291C134.2 36.291 134.61 36.2636 135.034 36.2089C135.459 36.1405 135.815 36.0584 136.102 35.9626L136.636 33.4581H133.782L134.213 31.3847H139.838L138.442 37.9333C137.908 38.2344 137.204 38.5081 136.328 38.7544C135.452 38.9871 134.405 39.1034 133.187 39.1034ZM139.95 38.8981L142.742 25.6779H149.352C150.228 25.6779 150.967 25.8695 151.569 26.2527C152.185 26.6222 152.616 27.1491 152.862 27.8333C153.123 28.5039 153.15 29.2977 152.945 30.2146C152.767 31.1042 152.377 31.8843 151.774 32.5549C151.186 33.2254 150.468 33.725 149.619 34.0534C149.77 34.204 149.879 34.375 149.947 34.5666C150.03 34.7445 150.105 34.9977 150.173 35.3262L150.994 38.8981H147.546L146.766 35.5315C146.697 35.2167 146.581 35.0046 146.417 34.8951C146.266 34.7719 146.013 34.7103 145.657 34.7103H144.138L143.255 38.8981H139.95ZM144.672 32.1648H147.115C147.758 32.1648 148.292 32.0074 148.716 31.6927C149.154 31.3642 149.441 30.8715 149.578 30.2146C149.729 29.5577 149.715 29.065 149.537 28.7366C149.373 28.3945 148.894 28.2234 148.1 28.2234H145.513L144.672 32.1648ZM158.617 39.1034C157.303 39.1034 156.202 38.857 155.312 38.3644C154.436 37.8717 153.827 37.1258 153.485 36.1268C153.143 35.1277 153.136 33.8687 153.465 32.3496C153.985 29.8999 154.895 28.1413 156.195 27.0738C157.495 26.0063 159.274 25.4726 161.532 25.4726C162.846 25.4726 163.941 25.7189 164.817 26.2116C165.706 26.6906 166.315 27.4365 166.644 28.4492C166.986 29.4619 166.986 30.7621 166.644 32.3496C166.151 34.6624 165.248 36.3663 163.934 37.4611C162.634 38.556 160.862 39.1034 158.617 39.1034ZM159.212 36.291C160.321 36.291 161.197 35.9762 161.84 35.3467C162.497 34.7035 162.969 33.7044 163.257 32.3496C163.476 31.3232 163.551 30.5157 163.482 29.9272C163.414 29.3388 163.168 28.9213 162.743 28.675C162.333 28.4287 161.724 28.3055 160.916 28.3055C159.794 28.3055 158.911 28.6134 158.268 29.2293C157.625 29.8314 157.146 30.8715 156.831 32.3496C156.64 33.2939 156.578 34.0603 156.646 34.6487C156.715 35.2235 156.954 35.6409 157.365 35.901C157.775 36.161 158.391 36.291 159.212 36.291ZM172.866 39.1034C171.744 39.1034 170.765 38.8913 169.93 38.467C169.109 38.0291 168.514 37.4201 168.144 36.64C167.775 35.8462 167.7 34.9225 167.919 33.8687L169.643 25.6779H172.948L171.285 33.5607C171.094 34.4777 171.155 35.162 171.47 35.6136C171.798 36.0652 172.462 36.291 173.461 36.291C174.474 36.291 175.24 36.0652 175.76 35.6136C176.28 35.162 176.636 34.4777 176.828 33.5607L178.491 25.6779H181.796L180.071 33.8687C179.688 35.6478 178.881 36.9684 177.649 37.8306C176.417 38.6791 174.823 39.1034 172.866 39.1034ZM181.007 38.8981L183.799 25.6779H190.121C191.148 25.6779 191.969 25.89 192.585 26.3143C193.214 26.7385 193.639 27.3065 193.858 28.0181C194.09 28.7297 194.118 29.5235 193.94 30.3994C193.666 31.8227 193.064 32.9517 192.133 33.7866C191.203 34.6077 189.943 35.0183 188.356 35.0183H185.133L184.312 38.8981H181.007ZM185.667 32.4727H188.048C188.855 32.4727 189.451 32.2811 189.834 31.898C190.217 31.5148 190.47 31.0084 190.594 30.3789C190.744 29.6125 190.71 29.065 190.491 28.7366C190.286 28.3945 189.807 28.2234 189.054 28.2234H186.57L185.667 32.4727Z" fill="black"/>
<defs>
<radialGradient id="paint0_radial_888_186" cx="0" cy="0" r="1" gradientUnits="userSpaceOnUse" gradientTransform="translate(32.2996 20.1742) scale(5.46573 5.46573)">
<stop stop-color="#FBC8B4"/>
<stop offset="1" stop-color="#ED1C24"/>
</radialGradient>
<radialGradient id="paint1_radial_888_186" cx="0" cy="0" r="1" gradientUnits="userSpaceOnUse" gradientTransform="translate(29.0635 16.9379) scale(5.46573 5.46573)">
<stop stop-color="#FBC8B4"/>
<stop offset="1" stop-color="#ED1C24"/>
</radialGradient>
<clipPath id="clip0_888_186">
<rect width="31.6598" height="25.3992" fill="white" transform="translate(17.8196 9.31229)"/>
</clipPath>
<clipPath id="clip1_888_186">
<rect width="60.7637" height="60.7637" rx="30.3818" fill="white"/>
</clipPath>
<clipPath id="clip2_888_186">
<rect width="31.6598" height="25.3992" fill="white" transform="translate(14.5834 6.07596)"/>
</clipPath>
</defs>
</svg>
