<svg width="79" height="79" viewBox="0 0 79 79" fill="none" xmlns="http://www.w3.org/2000/svg">
<g clip-path="url(#clip0_204_58)">
<rect width="78.4314" height="78.4314" rx="39.2157" fill="white"/>
<rect x="0.0783157" y="55.1374" width="78.4314" height="25.8823" fill="#F02D32"/>
<g clip-path="url(#clip1_204_58)">
<path fill-rule="evenodd" clip-rule="evenodd" d="M41.0663 8.89668C36.8413 13.9047 32.9264 19.215 30.624 25.4168C29.4767 28.5255 28.1278 33.3551 27.9262 36.6576C27.8332 38.0608 27.6781 40.1151 29.686 39.7818C30.1821 39.6965 30.7791 39.2624 31.1822 38.9678C32.3295 38.1461 33.3993 37.5181 34.7017 36.9367C36.2212 36.27 38.0507 35.7428 39.7019 35.8514C41.64 35.9677 43.5316 36.5491 44.9968 37.8825C45.71 38.5259 46.6402 40.0454 47.7101 40.0454C49.6714 40.0454 49.8807 34.1924 49.8807 32.8745C49.8807 30.9364 49.338 28.8976 48.7876 27.0448C46.9271 20.7964 43.9424 14.734 41.0663 8.89668Z" fill="white"/>
<path fill-rule="evenodd" clip-rule="evenodd" d="M49.3919 28.9685C50.0276 28.3328 50.6168 27.8676 50.6168 26.9606C51.8804 25.5187 53.02 24.1078 54.3456 22.7201C54.5162 23.0147 55.6092 22.9992 56.2449 22.5883C56.2837 22.5651 56.3302 22.5883 56.3767 22.5883C56.9271 22.5883 57.6248 23.1232 58.1442 22.9914C58.6171 22.8752 58.8497 22.6348 58.966 22.1697C59.0125 21.9759 58.7799 21.9216 58.6791 21.7666C58.8574 21.5883 59.3768 21.8751 59.6327 21.0921C59.904 20.2859 59.1133 19.8828 58.8264 19.7355C59.028 19.7277 59.4078 19.1153 59.3691 18.7897C59.3458 18.6269 58.9815 18.216 58.8264 18.123C58.7024 18.0455 58.5551 17.999 58.4078 17.968C57.9117 17.8827 57.2992 18.0067 56.7798 17.8362C56.7178 17.8207 56.648 17.7664 56.648 17.7044C56.6403 17.278 56.9116 16.5725 56.7798 16.2237C56.4852 15.3942 56.3302 14.9678 55.4387 14.7275C54.9503 14.5957 54.6092 14.7585 54.2138 14.9988C54.1595 15.0298 54.1053 15.0764 54.0743 15.1306C54.0665 15.1539 54.0665 15.3864 54.0743 15.402C54.1053 15.4562 54.1906 15.4795 54.2138 15.5337C54.4929 16.247 54.865 18.0455 54.6169 18.7897C54.4464 19.2936 53.8185 19.8285 53.6712 20.5572C53.5394 21.2084 53.3688 21.9991 53.6712 22.1697L50.547 26.2241C50.0431 25.4722 49.2368 25.573 48.3686 25.573L49.3919 28.9685Z" fill="black"/>
<path fill-rule="evenodd" clip-rule="evenodd" d="M31.0425 23.9355C29.4688 23.6719 29.5618 23.8734 29.1432 24.4781C27.7245 24.4471 26.5462 24.6254 25.2051 25.2844C24.3135 25.7185 24.4143 27.362 24.2593 28.1217C24.2515 28.1837 24.1895 28.2612 24.1275 28.2612C23.8329 27.9511 23.391 28.3853 23.453 28.8116C22.8406 28.8582 22.1429 29.5714 22.0964 29.8892C21.9568 30.804 19.9335 29.238 19.2435 29.3466C19.011 29.3853 18.8714 29.8272 18.8404 30.021C18.7939 30.3001 18.8327 30.68 19.104 30.8427C19.4218 31.0288 21.6312 31.1994 21.6933 31.3777C21.7475 31.5482 20.732 31.8583 20.6002 31.9203C19.7629 32.2924 19.6932 32.3467 19.3753 33.1452C19.042 33.9669 20.2591 34.0289 20.8715 33.9514C21.4219 33.8816 22.1894 32.6645 22.7708 33.0056C23.329 33.3467 22.9569 34.401 22.9026 34.9049C22.8329 35.5561 22.6933 36.2538 23.453 36.2538C24.2438 36.2538 24.329 35.4941 24.3988 34.7732C24.4221 34.5018 24.3756 34.2227 24.3988 33.9514C24.4376 33.5018 24.8174 32.1606 25.4841 32.3234C26.2128 32.5017 25.8795 33.4088 27.3834 33.4088C27.6238 33.4088 27.8796 33.3002 28.0579 33.1452C28.2517 32.9669 28.368 32.7033 28.461 32.4552C28.554 32.1994 28.5928 31.9203 28.5928 31.649C28.5928 31.3234 28.337 31.1141 28.0579 31.1141C27.7556 31.1141 27.3989 31.3777 27.2517 31.3777C27.1431 31.3777 27.0578 31.2924 26.9648 31.2459C26.5539 31.0443 26.0733 30.7497 25.7555 30.4241C25.7477 30.4164 25.4996 30.052 25.4841 30.021C25.926 29.8505 25.6392 28.6566 25.2051 28.6721C25.1818 28.5868 25.1895 28.4861 25.2051 28.393C25.3213 27.7573 25.5462 26.2224 26.0268 25.8193C26.74 25.2223 28.1897 24.92 29.1432 24.7417C29.151 25.3851 29.8409 25.6177 30.3603 25.8193L31.0425 23.9355Z" fill="black"/>
<path fill-rule="evenodd" clip-rule="evenodd" d="M41.0665 9.16855C36.0973 14.1378 32.9809 19.262 30.4924 25.8205C35.919 23.7584 43.3612 23.9832 48.656 26.3631C46.7179 20.9287 44.0666 14.2307 41.0665 9.16855Z" fill="black"/>
<path fill-rule="evenodd" clip-rule="evenodd" d="M39.2754 19.3078C42.1128 19.3078 44.5005 21.3467 44.5005 24.0367C44.5005 26.7113 41.8802 28.8121 39.0506 28.7501C35.5854 28.6726 33.9729 26.8663 33.9729 24.1918C33.9729 21.5017 36.4381 19.3078 39.2754 19.3078Z" fill="url(#paint0_radial_204_58)" stroke="#231F20" stroke-width="1.0078"/>
<path d="M58.5477 18.1224L57.8733 18.2541L56.9275 18.3859L56.3771 18.7892V19.4635" stroke="#666666" stroke-width="0.0232569"/>
<path d="M58.8268 19.7343H57.4701L56.5166 20.0056L56.2453 20.4165L56.5166 20.9591" stroke="#666666" stroke-width="0.0232569"/>
<path d="M58.6795 21.7646L57.8732 21.4932L57.067 21.3613L56.3771 21.6327L56.2453 22.3149" stroke="#666666" stroke-width="0.0232569"/>
<path fill-rule="evenodd" clip-rule="evenodd" d="M41.0663 8.89668C36.8413 13.9047 32.9264 19.215 30.624 25.4168C29.4767 28.5255 28.1278 33.3551 27.9262 36.6576C27.8332 38.0608 27.6781 40.1151 29.686 39.7818C30.1821 39.6965 30.7791 39.2624 31.1822 38.9678C32.3295 38.1461 33.3993 37.5181 34.7017 36.9367C36.2212 36.27 38.0507 35.7428 39.7019 35.8514C41.64 35.9677 43.5316 36.5491 44.9968 37.8825C45.71 38.5259 46.6402 40.0454 47.7101 40.0454C49.6714 40.0454 49.8807 34.1924 49.8807 32.8745C49.8807 30.9364 49.338 28.8976 48.7876 27.0448C46.9271 20.7964 43.9424 14.734 41.0663 8.89668Z" stroke="#231F20" stroke-width="1.16284"/>
</g>
<path d="M24.8556 66.5453C23.8264 66.5453 22.9259 66.3816 22.154 66.0541C21.3938 65.7267 20.8032 65.2472 20.3822 64.6156C19.9611 63.9724 19.7506 63.1888 19.7506 62.2648C19.7506 61.8087 19.8032 61.3292 19.9085 60.8263C20.3178 58.9317 21.1424 57.4698 22.3821 56.4406C23.6218 55.4114 25.3527 54.8968 27.5748 54.8968C28.2765 54.8968 28.9022 54.9377 29.4519 55.0196C30.0016 55.1014 30.5103 55.2242 30.9781 55.388L30.3641 58.2124C29.8963 58.0136 29.3934 57.8791 28.8554 57.8089C28.3291 57.7387 27.7795 57.7037 27.2064 57.7037C26.2006 57.7037 25.3527 57.9493 24.6627 58.4405C23.9726 58.9317 23.5107 59.727 23.2768 60.8263C23.1715 61.2824 23.1189 61.6801 23.1189 62.0192C23.1189 62.6157 23.2943 63.0543 23.6452 63.335C24.0077 63.604 24.61 63.7385 25.4521 63.7385C25.7562 63.7385 26.0427 63.7209 26.3117 63.6858C26.5924 63.6391 26.8614 63.5806 27.1187 63.5104L27.4695 61.8614H25.224L25.6626 59.8264H30.6624L29.4519 65.5103C28.9607 65.7793 28.3291 66.0191 27.5573 66.2296C26.7971 66.4401 25.8965 66.5453 24.8556 66.5453ZM35.7387 66.5453C34.7797 66.5453 33.9669 66.3875 33.3003 66.0717C32.6336 65.7442 32.1249 65.3056 31.774 64.756C31.4349 64.1946 31.2653 63.563 31.2653 62.8613C31.2653 62.5572 31.3004 62.2415 31.3705 61.914L32.8266 55.0722H36.1247L34.7212 61.6684C34.6511 61.9959 34.616 62.2824 34.616 62.528C34.616 62.9607 34.7505 63.2706 35.0195 63.4578C35.2885 63.6449 35.727 63.7385 36.3352 63.7385C37.0837 63.7385 37.6451 63.5806 38.0193 63.2648C38.3936 62.949 38.6567 62.4169 38.8088 61.6684L40.2122 55.0722H43.5103L42.0367 62.0192C41.7092 63.6098 41.0309 64.7618 40.0017 65.4752C38.9725 66.1886 37.5515 66.5453 35.7387 66.5453ZM44.5533 66.5453C44.0621 66.5453 43.6001 66.5103 43.1674 66.4401C42.7347 66.3816 42.3312 66.2822 41.9569 66.1419L42.5358 63.4051C43.0738 63.6391 43.7171 63.756 44.4656 63.756C45.1673 63.756 45.6643 63.6274 45.9567 63.3701C46.2491 63.1128 46.4538 62.6859 46.5707 62.0894L48.0619 55.0722H51.36L49.7636 62.6157C49.4946 63.8905 48.939 64.8671 48.097 65.5454C47.2549 66.212 46.0737 66.5453 44.5533 66.5453Z" fill="white"/>
<path d="M24.4976 54.9377C24.0064 54.9377 23.5444 54.9026 23.1117 54.8324C22.679 54.774 22.2755 54.6745 21.9012 54.5342L22.4802 51.7975C23.0181 52.0314 23.6614 52.1484 24.4099 52.1484C25.1116 52.1484 25.6087 52.0197 25.901 51.7624C26.1934 51.5051 26.3981 51.0782 26.5151 50.4818L28.0062 43.4646H31.3043L29.7079 51.0081C29.4389 52.2828 28.8834 53.2594 28.0413 53.9377C27.1992 54.6044 26.018 54.9377 24.4976 54.9377ZM35.6245 54.9377C34.6655 54.9377 33.8527 54.7798 33.1861 54.464C32.5194 54.1366 32.0107 53.698 31.6598 53.1483C31.3207 52.5869 31.1511 51.9554 31.1511 51.2537C31.1511 50.9496 31.1862 50.6338 31.2563 50.3063L32.7124 43.4646H36.0105L34.607 50.0607C34.5369 50.3882 34.5018 50.6747 34.5018 50.9203C34.5018 51.3531 34.6363 51.663 34.9053 51.8501C35.1743 52.0372 35.6128 52.1308 36.221 52.1308C36.9695 52.1308 37.5309 51.9729 37.9051 51.6571C38.2794 51.3414 38.5425 50.8092 38.6946 50.0607L40.098 43.4646H43.3961L41.9225 50.4116C41.595 52.0022 40.9167 53.1542 39.8875 53.8676C38.8583 54.581 37.4373 54.9377 35.6245 54.9377ZM48.2635 54.9377C47.2343 54.9377 46.3337 54.774 45.5618 54.4465C44.8016 54.119 44.211 53.6395 43.79 53.008C43.369 52.3647 43.1584 51.5811 43.1584 50.6572C43.1584 50.2011 43.2111 49.7216 43.3163 49.2187C43.7257 47.324 44.5502 45.8621 45.7899 44.8329C47.0296 43.8037 48.7605 43.2891 50.9826 43.2891C51.6844 43.2891 52.3101 43.3301 52.8597 43.4119C53.4094 43.4938 53.9182 43.6166 54.386 43.7803L53.772 46.6048C53.3042 46.4059 52.8013 46.2714 52.2633 46.2013C51.737 46.1311 51.1873 46.096 50.6142 46.096C49.6084 46.096 48.7605 46.3416 48.0705 46.8328C47.3805 47.324 46.9185 48.1193 46.6846 49.2187C46.5793 49.6748 46.5267 50.0724 46.5267 50.4116C46.5267 51.0081 46.7021 51.4466 47.053 51.7273C47.4156 51.9963 48.0179 52.1308 48.8599 52.1308C49.164 52.1308 49.4505 52.1133 49.7195 52.0782C50.0002 52.0314 50.2692 51.9729 50.5265 51.9027L50.8774 50.2537H48.6319L49.0704 48.2187H54.0702L52.8597 53.9027C52.3685 54.1716 51.737 54.4114 50.9651 54.6219C50.2049 54.8324 49.3044 54.9377 48.2635 54.9377Z" fill="black"/>
</g>
<rect x="0.392157" y="0.392157" width="77.6471" height="77.6471" rx="38.8235" stroke="black" stroke-width="0.784314"/>
<defs>
<radialGradient id="paint0_radial_204_58" cx="0" cy="0" r="1" gradientUnits="userSpaceOnUse" gradientTransform="translate(37.5139 21.8627) scale(7.05495)">
<stop stop-color="#FBC8B4"/>
<stop offset="1" stop-color="#ED1C24"/>
</radialGradient>
<clipPath id="clip0_204_58">
<rect width="78.4314" height="78.4314" rx="39.2157" fill="white"/>
</clipPath>
<clipPath id="clip1_204_58">
<rect width="40.8652" height="32.7843" fill="white" transform="translate(18.8236 7.84259)"/>
</clipPath>
</defs>
</svg>
