<svg width="54" height="54" viewBox="0 0 54 54" fill="none" xmlns="http://www.w3.org/2000/svg">
<rect x="2.98706" y="2.98699" width="50.7566" height="50.7566" rx="25.3783" fill="black"/>
<rect x="2.98706" y="2.98699" width="50.7566" height="50.7566" rx="25.3783" stroke="black" stroke-width="0.512693"/>
<g clip-path="url(#clip0_1155_104)">
<path fill-rule="evenodd" clip-rule="evenodd" d="M29.575 8.54626C26.8132 11.8199 24.2541 15.2912 22.7491 19.3452C21.9991 21.3773 21.1173 24.5343 20.9855 26.6931C20.9247 27.6103 20.8234 28.9532 22.1359 28.7353C22.4602 28.6796 22.8504 28.3958 23.1139 28.2032C23.8639 27.6661 24.5632 27.2556 25.4146 26.8755C26.4078 26.4397 27.6038 26.0951 28.6831 26.1661C29.95 26.2421 31.1865 26.6222 32.1443 27.4938C32.6105 27.9144 33.2186 28.9076 33.9179 28.9076C35.2 28.9076 35.3368 25.0816 35.3368 24.2202C35.3368 22.9533 34.9821 21.6205 34.6223 20.4094C33.4061 16.3249 31.4551 12.3621 29.575 8.54626Z" fill="white"/>
<path fill-rule="evenodd" clip-rule="evenodd" d="M35.0171 21.6668C35.4326 21.2513 35.8177 20.9472 35.8177 20.3543C36.6437 19.4118 37.3887 18.4895 38.2552 17.5824C38.3667 17.775 39.0812 17.7648 39.4968 17.4962C39.5221 17.481 39.5525 17.4962 39.5829 17.4962C39.9427 17.4962 40.3988 17.8459 40.7383 17.7597C41.0474 17.6837 41.1995 17.5266 41.2755 17.2226C41.3059 17.0959 41.1538 17.0604 41.088 16.9591C41.2045 16.8425 41.544 17.03 41.7113 16.5182C41.8886 15.9912 41.3718 15.7277 41.1843 15.6314C41.316 15.6263 41.5643 15.226 41.539 15.0131C41.5238 14.9067 41.2856 14.6381 41.1843 14.5773C41.1032 14.5267 41.0069 14.4963 40.9106 14.476C40.5863 14.4202 40.1859 14.5013 39.8464 14.3898C39.8059 14.3797 39.7603 14.3442 39.7603 14.3037C39.7552 14.025 39.9326 13.5638 39.8464 13.3358C39.6539 12.7936 39.5525 12.5148 38.9697 12.3578C38.6505 12.2716 38.4275 12.378 38.1691 12.5351C38.1336 12.5554 38.0981 12.5858 38.0779 12.6213C38.0728 12.6365 38.0728 12.7885 38.0779 12.7986C38.0981 12.8341 38.1539 12.8493 38.1691 12.8848C38.3515 13.351 38.5947 14.5267 38.4326 15.0131C38.3211 15.3425 37.9106 15.6922 37.8143 16.1685C37.7282 16.5942 37.6167 17.1111 37.8143 17.2226L35.7721 19.8729C35.4427 19.3814 34.9157 19.4472 34.3481 19.4472L35.0171 21.6668Z" fill="black"/>
<path fill-rule="evenodd" clip-rule="evenodd" d="M23.0227 18.3769C21.994 18.2046 22.0548 18.3363 21.7811 18.7316C20.8538 18.7113 20.0835 18.8279 19.2068 19.2586C18.624 19.5424 18.6899 20.6167 18.5886 21.1133C18.5835 21.1539 18.543 21.2046 18.5024 21.2046C18.3099 21.0018 18.021 21.2856 18.0615 21.5643C17.6612 21.5948 17.2051 22.061 17.1747 22.2687C17.0835 22.8667 15.7609 21.8431 15.3099 21.914C15.1578 21.9393 15.0666 22.2282 15.0464 22.3549C15.016 22.5373 15.0413 22.7856 15.2187 22.892C15.4264 23.0137 16.8707 23.1251 16.9112 23.2417C16.9467 23.3532 16.2828 23.5559 16.1967 23.5964C15.6494 23.8397 15.6038 23.8751 15.396 24.3971C15.1781 24.9343 15.9737 24.9748 16.3741 24.9241C16.7339 24.8785 17.2355 24.0829 17.6156 24.3059C17.9805 24.5289 17.7372 25.218 17.7018 25.5474C17.6561 25.9731 17.5649 26.4292 18.0615 26.4292C18.5784 26.4292 18.6342 25.9326 18.6798 25.4613C18.695 25.2839 18.6646 25.1015 18.6798 24.9241C18.7051 24.6302 18.9534 23.7535 19.3892 23.8599C19.8656 23.9765 19.6477 24.5694 20.6308 24.5694C20.7879 24.5694 20.9551 24.4985 21.0717 24.3971C21.1984 24.2805 21.2744 24.1083 21.3352 23.9461C21.396 23.7789 21.4213 23.5964 21.4213 23.4191C21.4213 23.2062 21.2541 23.0694 21.0717 23.0694C20.874 23.0694 20.6409 23.2417 20.5446 23.2417C20.4737 23.2417 20.418 23.186 20.3571 23.1556C20.0886 23.0238 19.7744 22.8312 19.5666 22.6184C19.5615 22.6133 19.3994 22.3752 19.3892 22.3549C19.6781 22.2434 19.4906 21.463 19.2068 21.4731C19.1916 21.4174 19.1967 21.3515 19.2068 21.2907C19.2828 20.8752 19.4298 19.8718 19.744 19.6083C20.2102 19.2181 21.1578 19.0204 21.7811 18.9039C21.7862 19.3245 22.2372 19.4765 22.5767 19.6083L23.0227 18.3769Z" fill="black"/>
<path fill-rule="evenodd" clip-rule="evenodd" d="M29.5747 8.72395C26.3264 11.9722 24.2893 15.3219 22.6626 19.609C26.2099 18.2611 31.0747 18.408 34.5358 19.9637C33.269 16.4113 31.5359 12.033 29.5747 8.72395Z" fill="black"/>
<path fill-rule="evenodd" clip-rule="evenodd" d="M28.4042 15.3519C30.2589 15.3519 31.8197 16.6847 31.8197 18.4431C31.8197 20.1914 30.1069 21.5647 28.2572 21.5242C25.992 21.4735 24.938 20.2927 24.938 18.5444C24.938 16.786 26.5495 15.3519 28.4042 15.3519Z" fill="url(#paint0_radial_1155_104)" stroke="#231F20" stroke-width="0.65878"/>
<path d="M41.0024 14.5769L40.5615 14.6631L39.9433 14.7492L39.5835 15.0128V15.4536" stroke="#666666" stroke-width="0.0152026"/>
<path d="M41.1848 15.6306H40.298L39.6747 15.808L39.4973 16.0765L39.6747 16.4313" stroke="#666666" stroke-width="0.0152026"/>
<path d="M41.0885 16.9578L40.5615 16.7804L40.0345 16.6942L39.5835 16.8715L39.4973 17.3175" stroke="#666666" stroke-width="0.0152026"/>
<path fill-rule="evenodd" clip-rule="evenodd" d="M29.575 8.54626C26.8132 11.8199 24.2541 15.2912 22.7491 19.3452C21.9991 21.3773 21.1173 24.5343 20.9855 26.6931C20.9247 27.6103 20.8234 28.9532 22.1359 28.7353C22.4602 28.6796 22.8504 28.3958 23.1139 28.2032C23.8639 27.6661 24.5632 27.2556 25.4146 26.8755C26.4078 26.4397 27.6038 26.0951 28.6831 26.1661C29.95 26.2421 31.1865 26.6222 32.1443 27.4938C32.6105 27.9144 33.2186 28.9076 33.9179 28.9076C35.2 28.9076 35.3368 25.0816 35.3368 24.2202C35.3368 22.9533 34.9821 21.6205 34.6223 20.4094C33.4061 16.3249 31.4551 12.3621 29.575 8.54626Z" stroke="#231F20" stroke-width="0.760131"/>
</g>
<path d="M18.9782 46.8102C18.3055 46.8102 17.7168 46.7032 17.2122 46.4891C16.7153 46.275 16.3292 45.9616 16.054 45.5488C15.7788 45.1283 15.6412 44.6161 15.6412 44.0121C15.6412 43.714 15.6756 43.4005 15.7444 43.0718C16.012 41.8333 16.5509 40.8776 17.3613 40.2049C18.1717 39.5321 19.3032 39.1957 20.7557 39.1957C21.2144 39.1957 21.6234 39.2225 21.9827 39.276C22.3421 39.3295 22.6746 39.4098 22.9804 39.5168L22.5791 41.3631C22.2733 41.2331 21.9445 41.1452 21.5928 41.0993C21.2488 41.0535 20.8895 41.0305 20.5149 41.0305C19.8574 41.0305 19.3032 41.1911 18.8521 41.5122C18.401 41.8333 18.0991 42.3531 17.9462 43.0718C17.8774 43.3699 17.8429 43.6299 17.8429 43.8516C17.8429 44.2415 17.9576 44.5282 18.187 44.7116C18.424 44.8875 18.8177 44.9754 19.3681 44.9754C19.5669 44.9754 19.7542 44.9639 19.93 44.941C20.1135 44.9104 20.2894 44.8722 20.4576 44.8263L20.6869 43.7484H19.2191L19.5057 42.4181H22.774L21.9827 46.1336C21.6617 46.3094 21.2488 46.4662 20.7442 46.6038C20.2473 46.7414 19.6586 46.8102 18.9782 46.8102ZM26.0923 46.8102C25.4655 46.8102 24.9341 46.707 24.4984 46.5006C24.0626 46.2865 23.73 45.9998 23.5007 45.6405C23.279 45.2735 23.1681 44.8607 23.1681 44.402C23.1681 44.2032 23.191 43.9968 23.2369 43.7828L24.1887 39.3104H26.3446L25.4272 43.6222C25.3814 43.8363 25.3584 44.0236 25.3584 44.1841C25.3584 44.467 25.4463 44.6696 25.6222 44.7919C25.798 44.9142 26.0847 44.9754 26.4822 44.9754C26.9715 44.9754 27.3385 44.8722 27.5831 44.6658C27.8278 44.4593 27.9998 44.1115 28.0992 43.6222L29.0166 39.3104H31.1725L30.2092 43.8516C29.9951 44.8913 29.5517 45.6443 28.879 46.1107C28.2062 46.577 27.2773 46.8102 26.0923 46.8102ZM31.8543 46.8102C31.5332 46.8102 31.2312 46.7873 30.9483 46.7414C30.6655 46.7032 30.4017 46.6382 30.1571 46.5464L30.5355 44.7575C30.8872 44.9104 31.3076 44.9869 31.7969 44.9869C32.2556 44.9869 32.5805 44.9028 32.7717 44.7346C32.9628 44.5664 33.0966 44.2873 33.173 43.8974L34.1478 39.3104H36.3037L35.2601 44.2415C35.0843 45.0748 34.7212 45.7131 34.1707 46.1565C33.6203 46.5923 32.8481 46.8102 31.8543 46.8102Z" fill="white"/>
<path d="M18.7442 39.2225C18.4231 39.2225 18.1211 39.1995 17.8382 39.1537C17.5554 39.1154 17.2916 39.0505 17.047 38.9587L17.4254 37.1698C17.7771 37.3227 18.1976 37.3991 18.6868 37.3991C19.1455 37.3991 19.4705 37.315 19.6616 37.1468C19.8527 36.9787 19.9865 36.6996 20.0629 36.3097L21.0377 31.7227H23.1936L22.15 36.6537C21.9742 37.4871 21.6111 38.1254 21.0606 38.5688C20.5102 39.0046 19.738 39.2225 18.7442 39.2225ZM26.0177 39.2225C25.3908 39.2225 24.8594 39.1193 24.4237 38.9129C23.9879 38.6988 23.6553 38.4121 23.426 38.0528C23.2043 37.6858 23.0934 37.273 23.0934 36.8143C23.0934 36.6155 23.1164 36.4091 23.1622 36.195L24.114 31.7227H26.27L25.3525 36.0345C25.3067 36.2486 25.2837 36.4359 25.2837 36.5964C25.2837 36.8793 25.3717 37.0819 25.5475 37.2042C25.7233 37.3265 26.01 37.3877 26.4076 37.3877C26.8968 37.3877 27.2638 37.2845 27.5084 37.078C27.7531 36.8716 27.9251 36.5238 28.0245 36.0345L28.9419 31.7227H31.0978L30.1345 36.2638C29.9205 37.3036 29.477 38.0566 28.8043 38.523C28.1315 38.9893 27.2026 39.2225 26.0177 39.2225ZM34.2795 39.2225C33.6067 39.2225 33.0181 39.1154 32.5135 38.9014C32.0166 38.6873 31.6305 38.3739 31.3553 37.961C31.0801 37.5406 30.9424 37.0284 30.9424 36.4244C30.9424 36.1262 30.9769 35.8128 31.0457 35.4841C31.3132 34.2456 31.8522 33.2899 32.6626 32.6172C33.473 31.9444 34.6044 31.608 36.057 31.608C36.5157 31.608 36.9247 31.6348 37.284 31.6883C37.6433 31.7418 37.9759 31.8221 38.2817 31.9291L37.8803 33.7754C37.5745 33.6454 37.2458 33.5575 36.8941 33.5116C36.5501 33.4658 36.1908 33.4428 35.8162 33.4428C35.1587 33.4428 34.6044 33.6034 34.1534 33.9245C33.7023 34.2456 33.4003 34.7654 33.2474 35.4841C33.1786 35.7822 33.1442 36.0421 33.1442 36.2638C33.1442 36.6537 33.2589 36.9404 33.4883 37.1239C33.7252 37.2997 34.119 37.3877 34.6694 37.3877C34.8682 37.3877 35.0555 37.3762 35.2313 37.3533C35.4148 37.3227 35.5906 37.2845 35.7588 37.2386L35.9882 36.1606H34.5203L34.807 34.8304H38.0753L37.284 38.5459C36.9629 38.7217 36.5501 38.8785 36.0455 39.0161C35.5486 39.1537 34.9599 39.2225 34.2795 39.2225Z" fill="black"/>
<g clip-path="url(#clip1_1155_104)">
<rect width="51.2693" height="51.2693" rx="25.6346" fill="white"/>
<rect x="0.0510254" y="36.0424" width="51.2693" height="16.9188" fill="#F02D32"/>
<g clip-path="url(#clip2_1155_104)">
<path fill-rule="evenodd" clip-rule="evenodd" d="M26.8441 5.81561C24.0823 9.08923 21.5232 12.5605 20.0181 16.6145C19.2681 18.6466 18.3863 21.8037 18.2546 23.9625C18.1938 24.8797 18.0924 26.2226 19.4049 26.0047C19.7292 25.9489 20.1194 25.6651 20.383 25.4726C21.133 24.9354 21.8323 24.525 22.6836 24.1449C23.6769 23.7091 24.8728 23.3645 25.9522 23.4354C27.2191 23.5114 28.4555 23.8915 29.4133 24.7631C29.8795 25.1837 30.4876 26.177 31.1869 26.177C32.469 26.177 32.6059 22.351 32.6059 21.4895C32.6059 20.2226 32.2511 18.8899 31.8913 17.6787C30.6751 13.5943 28.7241 9.63139 26.8441 5.81561Z" fill="white"/>
<path fill-rule="evenodd" clip-rule="evenodd" d="M32.2868 18.9362C32.7024 18.5207 33.0875 18.2166 33.0875 17.6237C33.9135 16.6811 34.6584 15.7588 35.525 14.8518C35.6365 15.0443 36.351 15.0342 36.7665 14.7656C36.7919 14.7504 36.8223 14.7656 36.8527 14.7656C37.2125 14.7656 37.6686 15.1153 38.0081 15.0291C38.3172 14.9531 38.4692 14.796 38.5452 14.492C38.5756 14.3653 38.4236 14.3298 38.3577 14.2284C38.4743 14.1119 38.8138 14.2994 38.9811 13.7876C39.1584 13.2605 38.6415 12.997 38.454 12.9008C38.5858 12.8957 38.8341 12.4953 38.8088 12.2825C38.7936 12.1761 38.5554 11.9075 38.454 11.8467C38.3729 11.796 38.2767 11.7656 38.1804 11.7454C37.8561 11.6896 37.4557 11.7707 37.1162 11.6592C37.0757 11.6491 37.03 11.6136 37.03 11.5731C37.025 11.2943 37.2023 10.8332 37.1162 10.6052C36.9236 10.0629 36.8223 9.78422 36.2395 9.62712C35.9203 9.54098 35.6973 9.64739 35.4388 9.80449C35.4034 9.82476 35.3679 9.85516 35.3476 9.89064C35.3426 9.90584 35.3426 10.0579 35.3476 10.068C35.3679 10.1035 35.4236 10.1187 35.4388 10.1541C35.6213 10.6204 35.8645 11.796 35.7024 12.2825C35.5909 12.6119 35.1804 12.9616 35.0841 13.4379C34.998 13.8636 34.8865 14.3805 35.0841 14.492L33.0419 17.1423C32.7125 16.6507 32.1855 16.7166 31.6179 16.7166L32.2868 18.9362Z" fill="black"/>
<path fill-rule="evenodd" clip-rule="evenodd" d="M20.292 15.6462C19.2632 15.4739 19.3241 15.6057 19.0504 16.001C18.123 15.9807 17.3528 16.0972 16.4761 16.528C15.8933 16.8118 15.9592 17.8861 15.8579 18.3827C15.8528 18.4232 15.8123 18.4739 15.7717 18.4739C15.5791 18.2712 15.2903 18.555 15.3308 18.8337C14.9305 18.8641 14.4744 19.3303 14.444 19.5381C14.3528 20.1361 13.0302 19.1124 12.5792 19.1834C12.4271 19.2087 12.3359 19.4976 12.3157 19.6242C12.2852 19.8067 12.3106 20.055 12.4879 20.1614C12.6957 20.283 14.14 20.3945 14.1805 20.5111C14.216 20.6225 13.5521 20.8252 13.466 20.8658C12.9187 21.109 12.8731 21.1445 12.6653 21.6665C12.4474 22.2036 13.243 22.2442 13.6433 22.1935C14.0031 22.1479 14.5048 21.3523 14.8849 21.5752C15.2498 21.7982 15.0065 22.4874 14.971 22.8168C14.9254 23.2425 14.8342 23.6985 15.3308 23.6985C15.8477 23.6985 15.9035 23.2019 15.9491 22.7306C15.9643 22.5533 15.9339 22.3708 15.9491 22.1935C15.9744 21.8996 16.2227 21.0229 16.6585 21.1293C17.1349 21.2459 16.917 21.8388 17.9001 21.8388C18.0572 21.8388 18.2244 21.7678 18.341 21.6665C18.4676 21.5499 18.5437 21.3776 18.6045 21.2154C18.6653 21.0482 18.6906 20.8658 18.6906 20.6884C18.6906 20.4756 18.5234 20.3388 18.341 20.3388C18.1433 20.3388 17.9102 20.5111 17.8139 20.5111C17.743 20.5111 17.6872 20.4553 17.6264 20.4249C17.3579 20.2932 17.0437 20.1006 16.8359 19.8878C16.8308 19.8827 16.6687 19.6445 16.6585 19.6242C16.9474 19.5128 16.7599 18.7324 16.4761 18.7425C16.4609 18.6867 16.466 18.6209 16.4761 18.5601C16.5521 18.1445 16.6991 17.1411 17.0133 16.8776C17.4795 16.4874 18.4271 16.2898 19.0504 16.1732C19.0555 16.5939 19.5065 16.7459 19.846 16.8776L20.292 15.6462Z" fill="black"/>
<path fill-rule="evenodd" clip-rule="evenodd" d="M26.8445 5.9933C23.5962 9.24159 21.5591 12.5912 19.9324 16.8784C23.4797 15.5304 28.3445 15.6774 31.8056 17.2331C30.5387 13.6807 28.8056 9.30233 26.8445 5.9933Z" fill="black"/>
<path fill-rule="evenodd" clip-rule="evenodd" d="M25.6737 12.6213C27.5284 12.6213 29.0892 13.954 29.0892 15.7125C29.0892 17.4608 27.3764 18.8341 25.5268 18.7935C23.2616 18.7428 22.2075 17.5621 22.2075 15.8138C22.2075 14.0554 23.819 12.6213 25.6737 12.6213Z" fill="url(#paint1_radial_1155_104)" stroke="#231F20" stroke-width="0.65878"/>
<path d="M38.2717 11.8463L37.8308 11.9325L37.2126 12.0186L36.8528 12.2822V12.723" stroke="#666666" stroke-width="0.0152026"/>
<path d="M38.4541 12.8999H37.5673L36.944 13.0773L36.7666 13.3459L36.944 13.7006" stroke="#666666" stroke-width="0.0152026"/>
<path d="M38.3578 14.2271L37.8308 14.0498L37.3038 13.9636L36.8527 14.1409L36.7666 14.5869" stroke="#666666" stroke-width="0.0152026"/>
<path fill-rule="evenodd" clip-rule="evenodd" d="M26.8441 5.81561C24.0823 9.08923 21.5232 12.5605 20.0181 16.6145C19.2681 18.6466 18.3863 21.8037 18.2546 23.9625C18.1938 24.8797 18.0924 26.2226 19.4049 26.0047C19.7292 25.9489 20.1194 25.6652 20.383 25.4726C21.133 24.9354 21.8323 24.525 22.6836 24.1449C23.6769 23.7091 24.8728 23.3645 25.9522 23.4354C27.2191 23.5114 28.4555 23.8915 29.4133 24.7631C29.8795 25.1837 30.4876 26.177 31.1869 26.177C32.469 26.177 32.6059 22.351 32.6059 21.4895C32.6059 20.2226 32.2511 18.8899 31.8913 17.6787C30.6751 13.5943 28.7241 9.63139 26.8441 5.81561Z" stroke="#231F20" stroke-width="0.760131"/>
</g>
<path d="M16.2478 44.0796C15.575 44.0796 14.9863 43.9726 14.4818 43.7585C13.9848 43.5445 13.5988 43.231 13.3235 42.8182C13.0483 42.3977 12.9107 41.8855 12.9107 41.2815C12.9107 40.9834 12.9451 40.6699 13.0139 40.3412C13.2815 39.1027 13.8205 38.1471 14.6308 37.4743C15.4412 36.8015 16.5727 36.4651 18.0252 36.4651C18.4839 36.4651 18.893 36.4919 19.2523 36.5454C19.6116 36.5989 19.9442 36.6792 20.25 36.7862L19.8486 38.6325C19.5428 38.5026 19.214 38.4146 18.8624 38.3688C18.5183 38.3229 18.159 38.3 17.7844 38.3C17.127 38.3 16.5727 38.4605 16.1216 38.7816C15.6706 39.1027 15.3686 39.6226 15.2157 40.3412C15.1469 40.6393 15.1125 40.8993 15.1125 41.121C15.1125 41.5109 15.2272 41.7976 15.4565 41.9811C15.6935 42.1569 16.0872 42.2448 16.6377 42.2448C16.8364 42.2448 17.0237 42.2333 17.1996 42.2104C17.3831 42.1798 17.5589 42.1416 17.7271 42.0957L17.9564 41.0178H16.4886L16.7753 39.6875H20.0435L19.2523 43.403C18.9312 43.5789 18.5183 43.7356 18.0138 43.8732C17.5168 44.0108 16.9282 44.0796 16.2478 44.0796ZM23.3619 44.0796C22.735 44.0796 22.2037 43.9764 21.7679 43.77C21.3321 43.5559 20.9996 43.2692 20.7702 42.9099C20.5485 42.543 20.4376 42.1301 20.4376 41.6714C20.4376 41.4727 20.4606 41.2662 20.5064 41.0522L21.4583 36.5798H23.6142L22.6968 40.8916C22.6509 41.1057 22.628 41.293 22.628 41.4535C22.628 41.7364 22.7159 41.939 22.8917 42.0613C23.0675 42.1836 23.3542 42.2448 23.7518 42.2448C24.2411 42.2448 24.608 42.1416 24.8527 41.9352C25.0973 41.7288 25.2693 41.3809 25.3687 40.8916L26.2861 36.5798H28.442L27.4787 41.121C27.2647 42.1607 26.8213 42.9137 26.1485 43.3801C25.4757 43.8464 24.5469 44.0796 23.3619 44.0796ZM29.1238 44.0796C28.8027 44.0796 28.5007 44.0567 28.2179 44.0108C27.935 43.9726 27.6712 43.9076 27.4266 43.8159L27.805 42.0269C28.1567 42.1798 28.5772 42.2563 29.0665 42.2563C29.5252 42.2563 29.8501 42.1722 30.0412 42.004C30.2323 41.8358 30.3661 41.5568 30.4426 41.1669L31.4173 36.5798H33.5732L32.5297 41.5109C32.3538 42.3442 31.9907 42.9826 31.4402 43.426C30.8898 43.8617 30.1176 44.0796 29.1238 44.0796Z" fill="white"/>
<path d="M16.0137 36.4919C15.6926 36.4919 15.3906 36.469 15.1078 36.4231C14.8249 36.3849 14.5611 36.3199 14.3165 36.2281L14.6949 34.4392C15.0466 34.5921 15.4671 34.6686 15.9564 34.6686C16.4151 34.6686 16.74 34.5845 16.9311 34.4163C17.1222 34.2481 17.256 33.969 17.3325 33.5791L18.3072 28.9921H20.4631L19.4196 33.9232C19.2437 34.7565 18.8806 35.3948 18.3302 35.8382C17.7797 36.274 17.0076 36.4919 16.0137 36.4919ZM23.2872 36.4919C22.6603 36.4919 22.129 36.3887 21.6932 36.1823C21.2574 35.9682 20.9249 35.6815 20.6955 35.3222C20.4738 34.9552 20.363 34.5424 20.363 34.0837C20.363 33.8849 20.3859 33.6785 20.4318 33.4645L21.3836 28.9921H23.5395L22.6221 33.3039C22.5762 33.518 22.5533 33.7053 22.5533 33.8658C22.5533 34.1487 22.6412 34.3513 22.817 34.4736C22.9929 34.5959 23.2796 34.6571 23.6771 34.6571C24.1664 34.6571 24.5333 34.5539 24.778 34.3475C25.0226 34.141 25.1946 33.7932 25.294 33.3039L26.2114 28.9921H28.3673L27.4041 33.5333C27.19 34.573 26.7466 35.326 26.0738 35.7924C25.4011 36.2587 24.4722 36.4919 23.2872 36.4919ZM31.549 36.4919C30.8763 36.4919 30.2876 36.3849 29.783 36.1708C29.2861 35.9567 28.9 35.6433 28.6248 35.2305C28.3496 34.81 28.212 34.2978 28.212 33.6938C28.212 33.3957 28.2464 33.0822 28.3152 32.7535C28.5828 31.515 29.1217 30.5593 29.9321 29.8866C30.7425 29.2138 31.874 28.8774 33.3265 28.8774C33.7852 28.8774 34.1942 28.9042 34.5535 28.9577C34.9129 29.0112 35.2454 29.0915 35.5512 29.1985L35.1499 31.0448C34.8441 30.9148 34.5153 30.8269 34.1637 30.781C33.8196 30.7352 33.4603 30.7122 33.0857 30.7122C32.4282 30.7122 31.874 30.8728 31.4229 31.1939C30.9718 31.515 30.6699 32.0348 30.517 32.7535C30.4482 33.0516 30.4138 33.3116 30.4138 33.5333C30.4138 33.9232 30.5284 34.2099 30.7578 34.3933C30.9948 34.5692 31.3885 34.6571 31.9389 34.6571C32.1377 34.6571 32.325 34.6456 32.5009 34.6227C32.6843 34.5921 32.8602 34.5539 33.0284 34.508L33.2577 33.4301H31.7899L32.0766 32.0998H35.3448L34.5535 35.8153C34.2325 35.9911 33.8196 36.1479 33.3151 36.2855C32.8181 36.4231 32.2295 36.4919 31.549 36.4919Z" fill="black"/>
</g>
<rect x="0.256346" y="0.256346" width="50.7566" height="50.7566" rx="25.3783" stroke="black" stroke-width="0.512693"/>
<defs>
<radialGradient id="paint0_radial_1155_104" cx="0" cy="0" r="1" gradientUnits="userSpaceOnUse" gradientTransform="translate(27.2527 17.022) scale(4.6117)">
<stop stop-color="#FBC8B4"/>
<stop offset="1" stop-color="#ED1C24"/>
</radialGradient>
<radialGradient id="paint1_radial_1155_104" cx="0" cy="0" r="1" gradientUnits="userSpaceOnUse" gradientTransform="translate(24.5223 14.2913) scale(4.6117)">
<stop stop-color="#FBC8B4"/>
<stop offset="1" stop-color="#ED1C24"/>
</radialGradient>
<clipPath id="clip0_1155_104">
<rect width="26.7129" height="21.4305" fill="white" transform="translate(15.0354 7.85722)"/>
</clipPath>
<clipPath id="clip1_1155_104">
<rect width="51.2693" height="51.2693" rx="25.6346" fill="white"/>
</clipPath>
<clipPath id="clip2_1155_104">
<rect width="26.7129" height="21.4305" fill="white" transform="translate(12.3047 5.12658)"/>
</clipPath>
</defs>
</svg>
