<svg width="186" height="331" viewBox="0 0 186 331" fill="none" xmlns="http://www.w3.org/2000/svg">
<rect x="39" y="14" width="108" height="225" rx="33" stroke="black" stroke-width="6"/>
<rect x="41" y="137" width="104" height="6" fill="black"/>
<circle cx="93" cy="38" r="5" fill="black"/>
<circle cx="93" cy="51" r="5" fill="black"/>
<path d="M182.922 190C184.622 190 186.005 191.378 185.949 193.077C185.579 204.241 183.202 215.255 178.921 225.59C174.247 236.873 167.397 247.125 158.761 255.761C150.125 264.397 139.873 271.247 128.59 275.921C117.306 280.594 105.213 283 93 283C80.7871 283 68.6937 280.594 57.4104 275.921C46.1272 271.247 35.8749 264.397 27.2391 255.761C18.6032 247.125 11.7529 236.873 7.0792 225.59C2.79843 215.255 0.420496 204.241 0.0509237 193.077C-0.00531949 191.378 1.37797 190 3.07778 190C4.77759 190 6.14987 191.378 6.21009 193.077C6.57721 203.432 8.7948 213.646 12.7662 223.234C17.1305 233.77 23.5275 243.344 31.5917 251.408C39.656 259.473 49.2296 265.869 59.7661 270.234C70.3025 274.598 81.5954 276.844 93 276.844C104.405 276.844 115.697 274.598 126.234 270.234C136.77 265.869 146.344 259.473 154.408 251.408C162.473 243.344 168.869 233.77 173.234 223.234C177.205 213.646 179.423 203.432 179.79 193.077C179.85 191.378 181.222 190 182.922 190Z" fill="black"/>
<rect x="31" y="325" width="123" height="6" rx="3" fill="black"/>
<rect x="90" y="328" width="48" height="6" rx="3" transform="rotate(-90 90 328)" fill="black"/>
<path d="M138.649 21.1867L145 4.26793L151.351 21.1867C151.605 21.8621 152.138 22.395 152.813 22.6486L169.732 29L152.813 35.3514C152.138 35.605 151.605 36.1379 151.351 36.8133L145 53.7321L138.649 36.8133C138.395 36.1379 137.862 35.605 137.187 35.3514L120.268 29L137.187 22.6486C137.862 22.395 138.395 21.8621 138.649 21.1867ZM144.532 3.02101L144.532 3.0222C144.532 3.02181 144.532 3.02141 144.532 3.02101L145 2.84529L144.532 3.02101ZM170.979 28.5319L170.978 28.5324L170.979 28.5319ZM145.468 54.979L145.468 54.9777L145.468 54.979ZM119.021 29.4681L119.022 29.4677C119.022 29.4678 119.021 29.468 119.021 29.4681L118.845 29L119.021 29.4681Z" fill="white" stroke="black" stroke-width="3"/>
<path d="M37.5319 49.021L37.5323 49.0222C37.5322 49.0218 37.532 49.0214 37.5319 49.021L38 48.8453L37.5319 49.021ZM38 50.2679L41.0761 58.462C41.3297 59.1374 41.8626 59.6703 42.538 59.9239L50.7321 63L42.538 66.0761C41.8626 66.3297 41.3297 66.8626 41.0761 67.538L38 75.7321L34.9239 67.538C34.6703 66.8626 34.1374 66.3297 33.462 66.0761L25.2679 63L33.462 59.9239C34.1374 59.6703 34.6703 59.1374 34.9239 58.462L38 50.2679ZM24.021 63.4681L24.0222 63.4677C24.0218 63.4678 24.0214 63.468 24.021 63.4681L23.8453 63L24.021 63.4681ZM51.979 62.5319L51.9779 62.5323L51.979 62.5319Z" fill="white" stroke="black" stroke-width="3"/>
</svg>
