<svg width="266" height="16" viewBox="0 0 266 16" fill="none" xmlns="http://www.w3.org/2000/svg">
<path d="M1 15L29.5856 1.86191C32.104 0.704445 35.0421 0.932978 37.3512 2.46594L52.5169 12.5341C54.826 14.067 57.7641 14.2956 60.2825 13.1381L84.9702 1.7915C87.4048 0.672529 90.2379 0.846705 92.5172 2.25547L109.35 12.6594C111.704 14.1147 114.644 14.2495 117.121 13.0158L139.124 2.06066C141.685 0.785684 144.731 0.97496 147.114 2.55708L161.845 12.3367C164.314 13.9753 167.485 14.1157 170.089 12.7016L189.055 2.39978C191.756 0.932762 195.058 1.14279 197.551 2.94013L210.134 12.011C212.663 13.8335 216.019 14.0219 218.735 12.4936L236.809 2.32484C239.357 0.891364 242.483 0.961729 244.964 2.50837L265 15" stroke="black" stroke-width="2"/>
</svg>
