<svg width="315" height="64" viewBox="0 0 315 64" fill="none" xmlns="http://www.w3.org/2000/svg">
<path fill-rule="evenodd" clip-rule="evenodd" d="M209.034 62.5589C222.216 62.5589 232.901 51.8731 232.901 38.6915C232.901 25.51 222.216 14.8242 209.034 14.8242C201.857 14.8242 195.42 17.9919 191.045 23.0054V54.3777C195.42 59.3912 201.857 62.5589 209.034 62.5589Z" fill="#245BFF"/>
<path d="M277.118 22.3413C278.62 20.1164 280.678 18.3087 283.292 16.9181C285.962 15.5275 288.994 14.8322 292.387 14.8322C296.336 14.8322 299.896 15.8056 303.066 17.7524C306.292 19.6992 308.823 22.4803 310.659 26.0958C312.55 29.6556 313.495 33.7995 313.495 38.5275C313.495 43.2554 312.55 47.4549 310.659 51.126C308.823 54.7414 306.292 57.5504 303.066 59.5528C299.896 61.5552 296.336 62.5564 292.387 62.5564C288.938 62.5564 285.907 61.8889 283.292 60.554C280.734 59.1634 278.676 57.3835 277.118 55.2142V61.8055H265.438V0.0644531H277.118V22.3413ZM301.564 38.5275C301.564 35.7463 300.98 33.3545 299.812 31.3521C298.7 29.2941 297.198 27.7367 295.307 26.6798C293.471 25.623 291.469 25.0946 289.3 25.0946C287.186 25.0946 285.184 25.6508 283.292 26.7633C281.457 27.8201 279.955 29.3775 278.787 31.4356C277.674 33.4936 277.118 35.9132 277.118 38.6943C277.118 41.4754 277.674 43.895 278.787 45.9531C279.955 48.0111 281.457 49.5963 283.292 50.7088C285.184 51.7656 287.186 52.294 289.3 52.294C291.469 52.294 293.471 51.7378 295.307 50.6254C297.198 49.5129 298.7 47.9277 299.812 45.8696C300.98 43.8116 301.564 41.3642 301.564 38.5275Z" fill="white"/>
<path d="M247.918 22.7607C249.42 20.3134 251.367 18.3944 253.758 17.0038C256.206 15.6133 258.987 14.918 262.102 14.918V27.1827H259.015C255.344 27.1827 252.563 28.0449 250.671 29.7692C248.836 31.4935 247.918 34.4971 247.918 38.78V61.8078H236.237V15.5854H247.918V22.7607Z" fill="white"/>
<path d="M139.567 38.5292C139.567 33.8569 140.485 29.713 142.321 26.0975C144.212 22.4821 146.743 19.701 149.913 17.7542C153.139 15.8074 156.727 14.834 160.676 14.834C164.125 14.834 167.128 15.5293 169.687 16.9198C172.301 18.3104 174.387 20.0625 175.945 22.1762V15.5849H187.709V61.8072H175.945V55.0491C174.443 57.2184 172.357 59.0261 169.687 60.4723C167.073 61.8629 164.041 62.5581 160.593 62.5581C156.699 62.5581 153.139 61.5569 149.913 59.5545C146.743 57.5521 144.212 54.7432 142.321 51.1277C140.485 47.4566 139.567 43.2571 139.567 38.5292ZM175.945 38.6961C175.945 35.8593 175.388 33.4397 174.276 31.4373C173.163 29.3793 171.662 27.8218 169.77 26.765C167.879 25.6526 165.849 25.0963 163.68 25.0963C161.51 25.0963 159.508 25.6248 157.673 26.6816C155.837 27.7384 154.335 29.2958 153.167 31.3539C152.055 33.3563 151.498 35.7481 151.498 38.5292C151.498 41.3103 152.055 43.7577 153.167 45.8714C154.335 47.9294 155.837 49.5146 157.673 50.6271C159.564 51.7395 161.566 52.2958 163.68 52.2958C165.849 52.2958 167.879 51.7674 169.77 50.7105C171.662 49.5981 173.163 48.0406 174.276 46.0382C175.388 43.9802 175.945 41.5328 175.945 38.6961Z" fill="white"/>
<path d="M125.885 25.1787V47.539C125.885 49.0965 126.247 50.2367 126.97 50.9598C127.749 51.6273 129.028 51.961 130.808 51.961H136.231V61.8062H128.889C119.044 61.8062 114.121 57.0227 114.121 47.4556V25.1787L103.778 25.1788V15.5839C109.609 15.5839 114.451 11.0837 114.877 5.26885L115.259 0.0507812H125.885V15.5838H136.231V25.1787H125.885Z" fill="white"/>
<path d="M52.3008 38.5292C52.3008 33.8569 53.2186 29.713 55.0541 26.0975C56.9453 22.4821 59.4761 19.701 62.6466 17.7542C65.8727 15.8074 69.4603 14.834 73.4095 14.834C76.8581 14.834 79.8618 15.5293 82.4204 16.9198C85.0347 18.3104 87.1205 20.0625 88.6779 22.1762V15.5849H100.442V61.8072H88.6779V55.0491C87.1761 57.2184 85.0903 59.0261 82.4204 60.4723C79.8061 61.8629 76.7747 62.5581 73.3261 62.5581C69.4325 62.5581 65.8727 61.5569 62.6466 59.5545C59.4761 57.5521 56.9453 54.7432 55.0541 51.1277C53.2186 47.4566 52.3008 43.2571 52.3008 38.5292ZM88.6779 38.6961C88.6779 35.8593 88.1217 33.4397 87.0093 31.4373C85.8968 29.3793 84.395 27.8218 82.5038 26.765C80.6127 25.6526 78.5824 25.0963 76.4132 25.0963C74.2439 25.0963 72.2415 25.6248 70.4059 26.6816C68.5704 27.7384 67.0686 29.2958 65.9005 31.3539C64.788 33.3563 64.2318 35.7481 64.2318 38.5292C64.2318 41.3103 64.788 43.7577 65.9005 45.8714C67.0686 47.9294 68.5704 49.5146 70.4059 50.6271C72.2971 51.7395 74.2995 52.2958 76.4132 52.2958C78.5824 52.2958 80.6127 51.7674 82.5038 50.7105C84.395 49.5981 85.8968 48.0407 87.0093 46.0382C88.1217 43.9802 88.6779 41.5328 88.6779 38.6961Z" fill="white"/>
<path d="M0.824219 38.5294C0.824219 33.8571 1.74199 29.7132 3.57754 26.0978C5.4687 22.4823 8.02734 19.7012 11.2535 17.7544C14.4796 15.8076 18.0672 14.8342 22.0164 14.8342C25.02 14.8342 27.8846 15.5017 30.6101 16.8366C33.3356 18.1159 35.5049 19.8402 37.1179 22.0095V0.0664062H48.9656V61.8074H37.1179V54.9659C35.6718 57.2464 33.6415 59.0819 31.0273 60.4725C28.413 61.8631 25.3816 62.5583 21.933 62.5583C18.0394 62.5583 14.4796 61.5571 11.2535 59.5547C8.02734 57.5523 5.4687 54.7434 3.57754 51.1279C1.74199 47.4568 0.824219 43.2573 0.824219 38.5294ZM37.2014 38.6963C37.2014 35.8595 36.6452 33.4399 35.5327 31.4375C34.4203 29.3795 32.9184 27.8221 31.0273 26.7652C29.1361 25.6528 27.1059 25.0966 24.9366 25.0966C22.7673 25.0966 20.7649 25.625 18.9294 26.6818C17.0938 27.7386 15.592 29.2961 14.4239 31.3541C13.3115 33.3565 12.7553 35.7483 12.7553 38.5294C12.7553 41.3105 13.3115 43.7579 14.4239 45.8716C15.592 47.9296 17.0938 49.5149 18.9294 50.6273C20.8205 51.7398 22.8229 52.296 24.9366 52.296C27.1059 52.296 29.1361 51.7676 31.0273 50.7107C32.9184 49.5983 34.4203 48.0409 35.5327 46.0384C36.6452 43.9804 37.2014 41.533 37.2014 38.6963Z" fill="white"/>
</svg>
