<svg id="Layer_1" data-name="Layer 1" xmlns="http://www.w3.org/2000/svg" viewBox="0 0 730.02 147"><defs><style>.cls-1{fill:#231f20;}.cls-1,.cls-2{fill-rule:evenodd;}.cls-2{fill:#0095fa;}</style></defs><path class="cls-1" d="M283.6,56.59a35.41,35.41,0,0,1,15,14.22,42.76,42.76,0,0,1,5.31,21.63q0,12.36-5.31,21.45a35,35,0,0,1-15,13.93q-9.75,4.85-22.68,4.84H234.45v-81h26.47Q273.85,51.63,283.6,56.59Zm-.88,57.53q7.57-7.7,7.58-21.68t-7.58-22q-7.58-7.92-21.8-7.93H247.74v59.35h13.18Q275.14,121.82,282.72,114.12Z"/><path class="cls-1" d="M315.31,83.11A29.31,29.31,0,0,1,341.6,67.37a28.06,28.06,0,0,1,13.23,3,26.71,26.71,0,0,1,9,7.41V68.42h13.42v64.24H363.86V123.1a26.33,26.33,0,0,1-9.21,7.58,29.78,29.78,0,0,1-28.44-1.23,30.09,30.09,0,0,1-10.9-11.89,36.47,36.47,0,0,1-4-17.31A35.48,35.48,0,0,1,315.31,83.11Zm45.82,5.83A19.26,19.26,0,0,0,354,81.48a18.74,18.74,0,0,0-9.55-2.57,19.14,19.14,0,0,0-9.57,2.51,18.84,18.84,0,0,0-7.16,7.35,22.87,22.87,0,0,0-2.75,11.48,23.89,23.89,0,0,0,2.75,11.66,19.29,19.29,0,0,0,7.22,7.63,18.53,18.53,0,0,0,9.51,2.62A18.73,18.73,0,0,0,354,119.6a19.09,19.09,0,0,0,7.18-7.52,23.65,23.65,0,0,0,2.73-11.6A23.31,23.31,0,0,0,361.13,88.94Z"/><path class="cls-1" d="M408.87,79.26v35.56q0,3.62,1.69,5.19t5.77,1.58h8.16v11.07H414q-9,0-13.76-4.2t-4.78-13.64V79.26h-7.58V68.42h7.58v-16h13.41v16h15.62V79.26Z"/><path class="cls-1" d="M434.92,83.11a29.31,29.31,0,0,1,26.29-15.74,28.08,28.08,0,0,1,13.24,3,26.71,26.71,0,0,1,9,7.41V68.42h13.41v64.24H483.48V123.1a26.38,26.38,0,0,1-9.2,7.58,28.49,28.49,0,0,1-13.3,3,28.18,28.18,0,0,1-15.15-4.26,30.11,30.11,0,0,1-10.91-11.89,36.59,36.59,0,0,1-4-17.31A35.59,35.59,0,0,1,434.92,83.11Zm45.82,5.83a19.17,19.17,0,0,0-7.17-7.46A18.75,18.75,0,0,0,464,78.91a19.13,19.13,0,0,0-9.56,2.51,18.93,18.93,0,0,0-7.17,7.35,22.87,22.87,0,0,0-2.74,11.48,23.89,23.89,0,0,0,2.74,11.66,19.38,19.38,0,0,0,7.23,7.63,18.52,18.52,0,0,0,9.5,2.62,18.74,18.74,0,0,0,9.56-2.56,19,19,0,0,0,7.17-7.52,23.55,23.55,0,0,0,2.74-11.6A23.21,23.21,0,0,0,480.74,88.94Z"/><path class="cls-1" d="M529.13,128.17a39.35,39.35,0,0,1-15-14.81A41.68,41.68,0,0,1,508.55,92a41.42,41.42,0,0,1,5.53-21.34,39.52,39.52,0,0,1,15-14.74,43.65,43.65,0,0,1,41.73,0,39.09,39.09,0,0,1,15,14.74A41.78,41.78,0,0,1,591.33,92a42,42,0,0,1-5.48,21.39,38.92,38.92,0,0,1-15,14.81,43.65,43.65,0,0,1-41.73,0Zm35.15-9.91a25.48,25.48,0,0,0,9.85-10.49A33.7,33.7,0,0,0,577.69,92a33.34,33.34,0,0,0-3.56-15.74,25.17,25.17,0,0,0-9.85-10.37,30.21,30.21,0,0,0-28.68,0,25.13,25.13,0,0,0-9.86,10.37A33.34,33.34,0,0,0,522.19,92a33.7,33.7,0,0,0,3.55,15.8,25.44,25.44,0,0,0,9.86,10.49,29.85,29.85,0,0,0,28.68,0Z"/><path class="cls-1" d="M624,70.11a23,23,0,0,1,11.48-2.74V81.13h-3.38q-7.82,0-11.84,4t-4,13.76v33.81H603V68.42h13.3v9.33A20.8,20.8,0,0,1,624,70.11Z"/><path class="cls-1" d="M668.92,70.34a28.66,28.66,0,0,1,13.11-3,29.62,29.62,0,0,1,15.39,4.08,28.67,28.67,0,0,1,10.84,11.6,36.39,36.39,0,0,1,4,17.2,37,37,0,0,1-4,17.31,29.59,29.59,0,0,1-10.9,11.89A28.7,28.7,0,0,1,682,133.71a29,29,0,0,1-13.24-2.92,25.4,25.4,0,0,1-9.14-7.46v9.33H646.36V46.38h13.29V78A25.12,25.12,0,0,1,668.92,70.34Zm27,18.43a18.8,18.8,0,0,0-7.23-7.35,19.43,19.43,0,0,0-9.62-2.51,18.86,18.86,0,0,0-9.5,2.57,19.17,19.17,0,0,0-7.23,7.46,23.31,23.31,0,0,0-2.73,11.54,23.65,23.65,0,0,0,2.73,11.6,18.94,18.94,0,0,0,16.73,10.08,18.73,18.73,0,0,0,9.62-2.62,19.38,19.38,0,0,0,7.23-7.63,23.89,23.89,0,0,0,2.74-11.66A22.87,22.87,0,0,0,696,88.77Z"/><path class="cls-1" d="M17.79,88.11a54.8,54.8,0,0,1,5.58-25.17A41.85,41.85,0,0,1,38.91,46.05,41.36,41.36,0,0,1,60.7,40.14a39.11,39.11,0,0,1,17.4,4A34.11,34.11,0,0,1,91.27,54.67V10.24h24v125h-24V121.39a32.18,32.18,0,0,1-12.33,11.15,38.68,38.68,0,0,1-18.41,4.22,40.23,40.23,0,0,1-21.62-6.08,43.12,43.12,0,0,1-15.54-17.06A56.28,56.28,0,0,1,17.79,88.11Zm73.65.34a29.88,29.88,0,0,0-3.38-14.7,23.13,23.13,0,0,0-9.12-9.46,24.4,24.4,0,0,0-24.49-.17,24.63,24.63,0,0,0-9.12,9.47A29.46,29.46,0,0,0,42,88.11,31.51,31.51,0,0,0,45.33,103a25.87,25.87,0,0,0,9.12,9.62A23.53,23.53,0,0,0,66.61,116a24.88,24.88,0,0,0,12.33-3.21,24.49,24.49,0,0,0,9.12-9.46A30.85,30.85,0,0,0,91.44,88.45Z"/><path class="cls-2" d="M158.39,135.62A48.14,48.14,0,1,0,122,56V119A48.05,48.05,0,0,0,158.39,135.62Z"/></svg>